<?xml version="1.0" encoding="utf-8"?>
<!-- Generator: Adobe Illustrator 21.0.0, SVG Export Plug-In . SVG Version: 6.00 Build 0)  -->
<svg version="1.1" id="Capa_1" xmlns="http://www.w3.org/2000/svg" xmlns:xlink="http://www.w3.org/1999/xlink" x="0px" y="0px"
	 viewBox="0 0 142 50" style="enable-background:new 0 0 142 50;" xml:space="preserve">
<style type="text/css">
	.st0{fill:#DF011F;}
	.st1{opacity:0.7;fill:#FFFFFF;enable-background:new    ;}
</style>
<path id="Forma_15" class="st0" d="M138.5,2.5c-1.2-0.9-9-2.5-47-2.5C54.4,0,7.9,1.5,2.8,2.1c-0.3,0-1,1-1.7,4.4
	C-1,18.2,0,44.4,3.5,47.2C5.6,48.8,36.9,50,79.6,50c30.6,0,56.9-0.6,58.6-1.4c1-0.5,2.8-7.5,3.5-19.2
	C142.6,15.4,141.3,4.5,138.5,2.5z"/>
<path class="st1" d="M78.3,47.5v-1l2,0v1L78.3,47.5z M74.3,47.5l-2,0l0-1l2,0L74.3,47.5z M84.3,47.5l0-1l2,0l0,1L84.3,47.5z
	 M68.3,47.5l-2,0l0-1l2,0L68.3,47.5z M90.3,47.5l0-1l2,0l0,1L90.3,47.5z M62.3,47.4l-2,0l0-1l2,0L62.3,47.4z M96.3,47.4l0-1l2,0l0,1
	L96.3,47.4z M56.3,47.4l-2,0l0-1l2,0L56.3,47.4z M102.3,47.4l0-1l2,0l0,1L102.3,47.4z M50.3,47.3l-2,0l0-1l2,0L50.3,47.3z
	 M108.3,47.3l0-1l2,0l0,1L108.3,47.3z M44.3,47.2l-2,0l0-1l2,0L44.3,47.2z M114.3,47.2l0-1l2,0l0,1L114.3,47.2z M38.3,47.1l-2,0l0-1
	l2,0L38.3,47.1z M120.3,47l0-1l2-0.1l0,1L120.3,47z M32.3,46.9l-2-0.1l0-1l2,0.1L32.3,46.9z M126.3,46.9l0-1c0.7,0,1.4-0.1,2-0.1
	l0,1C127.7,46.8,127,46.8,126.3,46.9z M26.3,46.7l-2-0.1l0-1l2,0.1L26.3,46.7z M132.4,46.5l-0.1-1c1.2-0.1,1.7-0.2,1.9-0.2l0.3,1
	C134.1,46.4,133.4,46.4,132.4,46.5z M20.3,46.4c-0.7,0-1.4-0.1-2-0.1l0.1-1c0.6,0,1.3,0.1,2,0.1L20.3,46.4z M14.3,46.1
	c-0.7-0.1-1.4-0.1-2-0.2l0.1-1c0.6,0.1,1.3,0.1,2,0.2L14.3,46.1z M8.2,45.3c-0.6-0.1-1-0.3-1.2-0.4c-0.2-0.2-0.5-0.4-0.7-0.8
	l0.8-0.5c0.2,0.2,0.3,0.4,0.4,0.5c0,0,0.2,0.1,0.9,0.3L8.2,45.3z M136.4,42.4l-1-0.2c0.1-0.6,0.3-1.2,0.4-1.9l1,0.2
	C136.7,41.1,136.6,41.8,136.4,42.4z M4.9,40.2c-0.1-0.6-0.3-1.3-0.4-2l1-0.2c0.1,0.7,0.2,1.3,0.4,1.9L4.9,40.2z M137.5,36.4l-1-0.1
	c0.1-0.6,0.2-1.3,0.3-2l1,0.1C137.7,35.1,137.6,35.8,137.5,36.4z M4,34.2c-0.1-0.7-0.1-1.3-0.2-2l1-0.1c0.1,0.7,0.1,1.3,0.2,2
	L4,34.2z M138.2,30.4l-1-0.1c0-0.5,0.1-1,0.1-1.5l0-0.5l1,0.1l0,0.5C138.2,29.4,138.2,29.9,138.2,30.4z M3.6,28.2
	c0-0.7-0.1-1.3-0.1-2l1,0c0,0.7,0,1.3,0.1,2L3.6,28.2z M138.5,24.4l-1,0c0-0.7,0-1.3,0-2l1,0C138.5,23,138.5,23.7,138.5,24.4z
	 M4.5,22.2l-1,0c0-0.7,0-1.3,0-2l1,0C4.5,20.8,4.5,21.5,4.5,22.2z M137.4,18.4c0-0.7-0.1-1.3-0.1-2l1-0.1c0,0.6,0.1,1.3,0.1,2
	L137.4,18.4z M4.7,16.2l-1-0.1c0-0.7,0.1-1.4,0.1-2l1,0.1C4.8,14.8,4.7,15.5,4.7,16.2z M136.9,12.5c-0.1-0.7-0.2-1.3-0.3-1.9l1-0.2
	c0.1,0.6,0.2,1.3,0.3,2L136.9,12.5z M5.3,10.3l-1-0.2c0.1-0.5,0.2-1,0.3-1.5c0-0.2,0.1-0.3,0.1-0.5l1,0.2c0,0.2-0.1,0.3-0.1,0.5
	C5.5,9.3,5.4,9.8,5.3,10.3z M135.4,6.9c-0.3-0.6-0.7-1.1-1-1.3c-0.1-0.1-0.5-0.3-1.7-0.5l0.2-1c1.1,0.2,1.7,0.4,2.1,0.7
	c0.5,0.3,0.9,0.9,1.3,1.7L135.4,6.9z M6.9,5.3l-0.1-1c0.5,0,1.1-0.1,2-0.1l0.1,1C8,5.2,7.3,5.3,6.9,5.3z M12.9,5l0-1l2-0.1l0,1
	L12.9,5z M18.9,4.8l0-1l2-0.1l0,1L18.9,4.8z M24.9,4.6l0-1l2-0.1l0,1L24.9,4.6z M128.8,4.5c-0.6-0.1-1.3-0.1-2-0.2l0.1-1
	c0.7,0.1,1.4,0.1,2,0.2L128.8,4.5z M30.9,4.4l0-1l2-0.1l0,1L30.9,4.4z M36.9,4.2l0-1l2,0l0,1L36.9,4.2z M122.9,4.1
	c-0.6,0-1.3-0.1-2-0.1l0-1c0.7,0,1.4,0.1,2,0.1L122.9,4.1z M42.9,4.1l0-1l2,0l0,1L42.9,4.1z M48.9,4l0-1l2,0l0,1L48.9,4z M116.9,3.9
	l-2-0.1l0-1l2,0.1L116.9,3.9z M54.9,3.8l0-1l2,0l0,1L54.9,3.8z M60.9,3.7l0-1l2,0l0,1L60.9,3.7z M110.9,3.7l-2,0l0-1l2,0L110.9,3.7z
	 M66.9,3.7l0-1l2,0l0,1L66.9,3.7z M72.9,3.6l0-1l2,0l0,1L72.9,3.6z M104.9,3.6l-2,0l0-1l2,0L104.9,3.6z M79,3.5L78.9,3l0-0.5l2,0
	l0,1L79,3.5z M98.9,3.5l-2,0l0-1l2,0L98.9,3.5z M84.9,3.5l0-1l2,0l0,1L84.9,3.5z M92.9,3.5l-2,0v-1l2,0L92.9,3.5z"/>
</svg>
