<?xml version="1.0" encoding="utf-8"?>
<!-- Generator: Adobe Illustrator 21.0.0, SVG Export Plug-In . SVG Version: 6.00 Build 0)  -->
<svg version="1.1" id="Capa_1" xmlns="http://www.w3.org/2000/svg" xmlns:xlink="http://www.w3.org/1999/xlink" x="0px" y="0px"
	 viewBox="0 0 35 35" style="enable-background:new 0 0 35 35;" xml:space="preserve">
<style type="text/css">
	.st0{fill:#BF0724;}
</style>
<path id="Forma_36" class="st0" d="M33,10.3C28.2,0.9,17.1-0.2,9.1,3.5l0,0c-7,3.4-10.3,11.4-7.8,18.7c1.4,4.4,4.8,8,9.1,9.7
	c2.4,1,5,1.6,7.6,1.6c2.5,0,5-0.5,7.3-1.5c3.9-1.8,6.9-5.1,8.2-9.2C35,18.7,34.8,14.2,33,10.3z M31.9,22.2c-1.2,3.6-3.9,6.6-7.3,8.2
	c-4.3,1.9-9.2,1.8-13.4,0c-3.8-1.6-6.8-4.7-8.1-8.7C0.8,15.2,3.7,8.1,9.9,5.1l0,0c7.3-3.4,17.3-2.4,21.6,6
	C33,14.6,33.2,18.6,31.9,22.2z M22.5,22.2c0.3,0,0.7-0.2,0.8-0.5c0.2-0.4,0-0.9-0.5-1.1c0,0,0,0,0,0c-0.7-0.3-4-2.1-4.9-2.7
	c0-0.6-0.1-2.4-0.1-7.8V9.9c0-0.5-0.4-0.9-0.9-0.9l0,0c-0.5,0-0.9,0.4-0.9,0.9v0V10c0,8.3,0.1,8.5,0.4,8.8c0.4,0.5,5.5,3.2,5.7,3.3
	C22.3,22.2,22.4,22.2,22.5,22.2L22.5,22.2z M17.5,6.6V6.4c0-0.5-0.4-0.9-0.9-0.8c-0.5,0-0.8,0.4-0.8,0.8v0.2c0,0.5,0.4,0.9,0.9,0.8
	C17.1,7.4,17.5,7,17.5,6.6L17.5,6.6z M29.7,16.3c-0.5,0-0.9,0.4-0.9,0.9c0,0,0,0,0,0v0.2c0,0.5,0.4,0.9,0.9,0.8
	c0.5,0,0.8-0.4,0.8-0.8v-0.2C30.6,16.7,30.2,16.3,29.7,16.3L29.7,16.3z M27.8,22.6c-0.5,0-0.9,0.4-0.9,0.9v0v0.2
	c0,0.5,0.4,0.9,0.9,0.8c0.5,0,0.8-0.4,0.8-0.8v-0.2C28.7,23,28.3,22.6,27.8,22.6C27.8,22.6,27.8,22.6,27.8,22.6L27.8,22.6z M23,26.5
	c-0.5,0-0.9,0.4-0.9,0.9c0,0,0,0,0,0v0.2c0,0.5,0.4,0.9,0.9,0.8c0.5,0,0.8-0.4,0.8-0.8v-0.2C23.8,26.8,23.4,26.4,23,26.5
	C23,26.5,23,26.5,23,26.5L23,26.5z M11.4,25.5c-0.5,0-0.9,0.4-0.9,0.9v0.2c0,0.5,0.4,0.9,0.9,0.8c0.5,0,0.8-0.4,0.8-0.8v-0.2
	C12.3,25.9,11.9,25.5,11.4,25.5z M6.8,21.5c-0.5,0-0.9,0.4-0.9,0.9v0v0.2c0,0.5,0.4,0.9,0.9,0.8c0.5,0,0.8-0.4,0.8-0.8v-0.2
	C7.7,21.9,7.3,21.5,6.8,21.5C6.8,21.5,6.8,21.5,6.8,21.5z M6.3,17.3v-0.2c0-0.5-0.4-0.9-0.9-0.8c-0.5,0-0.8,0.4-0.8,0.8v0.2
	c0,0.5,0.4,0.9,0.9,0.8C6,18.2,6.3,17.8,6.3,17.3z M7.1,11.2c-0.5,0-0.9,0.4-0.9,0.9v0.2c0,0.5,0.4,0.9,0.9,0.9
	c0.5,0,0.9-0.4,0.9-0.9v-0.2C7.9,11.6,7.6,11.2,7.1,11.2L7.1,11.2z M11.9,8.8V8.6c0-0.5-0.4-0.9-0.9-0.8c-0.5,0-0.8,0.4-0.8,0.8v0.2
	c0,0.5,0.4,0.9,0.9,0.8C11.5,9.6,11.9,9.3,11.9,8.8L11.9,8.8z M22.8,8.9c0.5,0,0.9-0.4,0.9-0.9V7.8c0-0.5-0.4-0.9-0.9-0.9
	c-0.5,0-0.9,0.4-0.9,0.9V8C21.9,8.5,22.3,8.9,22.8,8.9L22.8,8.9z M28.1,12v-0.2c0-0.5-0.4-0.9-0.9-0.8c-0.5,0-0.8,0.4-0.8,0.8V12
	c0,0.5,0.4,0.9,0.9,0.8C27.7,12.8,28.1,12.5,28.1,12L28.1,12z M17.5,27.4c-0.5,0-0.9,0.4-0.9,0.9c0,0,0,0,0,0v0.2
	c0,0.5,0.4,0.9,0.9,0.8c0.5,0,0.8-0.4,0.8-0.8v-0.2C18.3,27.8,17.9,27.4,17.5,27.4L17.5,27.4z"/>
</svg>
