<?xml version="1.0" encoding="utf-8"?>
<!-- Generator: Adobe Illustrator 21.0.0, SVG Export Plug-In . SVG Version: 6.00 Build 0)  -->
<svg version="1.1" id="Capa_1" xmlns="http://www.w3.org/2000/svg" xmlns:xlink="http://www.w3.org/1999/xlink" x="0px" y="0px"
	 viewBox="0 0 35 35" style="enable-background:new 0 0 35 35;" xml:space="preserve">
<style type="text/css">
	.st0{fill:#BF0724;}
</style>
<path id="Forma_40" class="st0" d="M31.6,5.5C31.6,5.5,31.6,5.5,31.6,5.5c-0.4-1.4-1.5-2.4-2.8-2.9c-2.4-0.7-6-1.3-9.5,1
	c-1.6,1.2-3.8,1.5-5.7,0.7c-0.7-0.3-1.5-0.5-2.2-0.6C9.8,3.4,8.2,3.6,6.8,4.4c-2.5,1.4-4,4.1-3.8,7c0.2,2.5,0.8,4.9,1.7,7.1
	c0.2,0.5,0.4,1.1,0.6,1.6C6,21.7,6.6,23.4,7.1,25c0,0.1,0.1,0.2,0.1,0.3c0,0.3,0.1,0.5,0.3,0.7L8.1,31c0.2,0.9,1.1,1.6,5,1.9
	C14,33,15.1,33,16.4,33c2.5,0.1,5-0.2,7.4-0.8c0.6-0.2,1.1-0.6,1.3-1.2c0,0,0-0.1,0-0.1l0.4-3.6c0.2-0.2,0.4-0.4,0.5-0.7
	c1.6-3.1,2.9-6.3,4.1-9.6c0.8-2.2,1.4-4.5,1.7-6.8C32.1,8.6,32,7,31.6,5.5z M23.3,30.4c0,0-0.1,0-0.2,0.1c-1.8,0.7-6.8,0.8-9.9,0.6
	c-1.2,0-2.3-0.2-3.4-0.6l-0.6-4l0.1,0l0.1,0c2.4-0.9,5.1-1.3,7.7-1c2.3,0.3,4.5,1,6.5,2L23.3,30.4z M30,9.9
	c-0.3,2.2-0.9,4.4-1.6,6.5c-1.1,3.2-2.4,6.3-4,9.3c-2.2-1.1-4.6-1.8-7-2.1c-0.7-0.1-1.3-0.1-2-0.1c-2.2,0-4.4,0.4-6.5,1.2l-0.1,0
	l0,0c-0.5-1.7-1.1-3.4-1.8-5.1c-0.2-0.5-0.4-1.1-0.6-1.6c-0.9-2-1.5-4.2-1.6-6.5c-0.1-2.2,1-4.3,3-5.4c1-0.6,2.2-0.7,3.3-0.4
	c0.7,0.1,1.3,0.3,1.9,0.5c2.4,0.9,5.2,0.6,7.3-0.9c2.2-1.5,4.6-1.7,8-0.8c0.5,0.1,1.1,0.4,1.6,1.8C30.2,7.4,30.3,8.7,30,9.9L30,9.9z
	 M11.4,12.6c0-0.5-0.4-0.9-0.9-0.9c-0.5,0-0.9,0.4-0.9,0.8c-0.1,2,1.4,7.5,1.6,8c0.1,0.4,0.5,0.6,0.9,0.6c0.1,0,0.2,0,0.3,0
	c0.5-0.1,0.7-0.7,0.6-1.1c0,0,0,0,0,0C12.5,18.8,11.3,14.1,11.4,12.6L11.4,12.6z M23.5,12.1c-0.5,0-0.9,0.5-0.9,1c0,0,0,0,0,0
	c0.1,1.5-1.1,6.1-1.5,7.4c-0.1,0.5,0.1,1,0.6,1.1c0,0,0,0,0,0c0.1,0,0.2,0,0.3,0c0.4,0,0.7-0.3,0.9-0.6c0.2-0.5,1.7-6,1.6-8
	C24.4,12.5,24,12.1,23.5,12.1L23.5,12.1z M16.8,11.6c-0.5,0.1-0.8,0.6-0.7,1.1c0,0,0,0,0,0c0.3,1.4,0,6.2-0.2,7.5
	c-0.1,0.5,0.3,1,0.8,1c0,0,0.1,0,0.1,0c0.5,0,0.8-0.3,0.9-0.8c0.1-0.6,0.6-6.2,0.1-8.2C17.7,11.8,17.2,11.5,16.8,11.6L16.8,11.6z"/>
</svg>
