<?xml version="1.0" encoding="utf-8"?>
<!-- Generator: Adobe Illustrator 21.0.0, SVG Export Plug-In . SVG Version: 6.00 Build 0)  -->
<svg version="1.1" id="Capa_1" xmlns="http://www.w3.org/2000/svg" xmlns:xlink="http://www.w3.org/1999/xlink" x="0px" y="0px"
	 viewBox="0 0 35 35" style="enable-background:new 0 0 35 35;" xml:space="preserve">
<style type="text/css">
	.st0{fill:#BF0724;}
</style>
<path id="Forma_34" class="st0" d="M29.1,5.3c0-0.2-0.1-0.4-0.3-0.6c0,0,0-0.1,0-0.1c-0.5-2-3.6-3.4-8.2-3.9
	c-7.1-0.7-11.6,0.9-13,1.8C7,3,6.5,3.6,6.2,4.4C6,4.5,5.8,4.8,5.8,5c0,16.1,0.1,24.2,0.2,25.3c0,0.1,0.1,0.2,0.1,0.3
	c0.3,1.2,1.7,2.7,6.5,3.5c1.5,0.2,3,0.3,4.6,0.3c3.8,0,8.2-0.6,10.4-2.1c0.4-0.3,0.8-0.7,1.1-1.1c0.2-0.1,0.3-0.3,0.4-0.6
	C29.2,29.4,29.2,11.8,29.1,5.3z M8.8,3.9L8.8,3.9c0.7-0.5,3.6-1.7,8.4-1.7c1.1,0,2.2,0.1,3.3,0.2c4.8,0.5,6.4,1.9,6.6,2.6
	c0,0.4-0.2,0.9-0.6,1C24,7.8,17.1,8.3,12.9,7.6C9.4,7,8,6,7.8,5.3C7.7,4.7,8.4,4.1,8.8,3.9z M7.6,7.6c1.5,0.9,3.2,1.4,5,1.6
	c1.5,0.2,3,0.3,4.6,0.3c3.7,0,8-0.6,10.2-2c0,0.6,0,1.2,0,1.8c-0.1,0.1-0.2,0.3-0.2,0.5c-0.1,0.3-0.3,0.6-0.6,0.8
	c-2.5,1.7-9.4,2.2-13.6,1.5c-3.6-0.6-5-1.6-5.1-2.3c0-0.2-0.1-0.3-0.2-0.5C7.6,8.7,7.6,8.2,7.6,7.6z M27.3,29.8
	c-0.1,0.1-0.1,0.2-0.1,0.3c-0.1,0.3-0.3,0.6-0.6,0.8c-2.5,1.7-9.4,2.2-13.6,1.5c-3.6-0.6-5-1.6-5.1-2.3c0-0.1,0-0.2-0.1-0.2
	c0-0.4,0-1.1-0.1-2c1.5,0.8,3.2,1.4,4.9,1.6c1.5,0.2,3,0.3,4.6,0.3c3.7,0,7.9-0.6,10.2-2C27.3,28.7,27.3,29.4,27.3,29.8L27.3,29.8z
	 M27.3,25c-0.1,0.1-0.2,0.3-0.2,0.4c-0.1,0.3-0.3,0.6-0.6,0.8c-2.5,1.7-9.4,2.2-13.6,1.5c-3.6-0.6-5-1.6-5.1-2.3
	c0-0.1-0.1-0.3-0.1-0.4c0-3.6,0-8.6,0-12.9c1.5,0.9,3.2,1.4,4.9,1.6c1.5,0.2,3,0.3,4.6,0.3c3.7,0,8-0.6,10.2-2.1
	C27.4,16.5,27.4,21.4,27.3,25L27.3,25z"/>
</svg>
