<?xml version="1.0" encoding="utf-8"?>
<!-- Generator: Adobe Illustrator 21.0.0, SVG Export Plug-In . SVG Version: 6.00 Build 0)  -->
<svg version="1.1" id="Capa_1" xmlns="http://www.w3.org/2000/svg" xmlns:xlink="http://www.w3.org/1999/xlink" x="0px" y="0px"
	 viewBox="0 0 2 1500" style="enable-background:new 0 0 2 1500;" xml:space="preserve">
<style type="text/css">
	.st0{fill:#E9E9E9;}
</style>
<path id="Forma_14_copia_13" class="st0" d="M0.1,752.2c-0.2-227.9,0-462.9,0.1-697.9c0-13.6,0.1-26.2,0.2-39C0.5-0.8,1-5.1,1.4,6.8
	C1.8,18.9,2,33.6,2,51c0,31.2,0,62.4,0,93.7C1.8,319.5,1.7,494.4,1.8,669.3c0,182.7,0.1,365.4,0.1,548.1c0,78-0.1,156-0.3,234
	c0,10.9-0.1,21.7-0.1,32.4c0,6.4-0.1,11.9-0.3,14.7c-0.2,3-0.4,2.4-0.4-6.3c-0.1-15.5-0.1-31.1-0.1-46.6
	C0.4,1216.7,0.1,988.1,0.1,752.2z"/>
</svg>
