<?xml version="1.0" encoding="utf-8"?>
<!-- Generator: Adobe Illustrator 21.0.0, SVG Export Plug-In . SVG Version: 6.00 Build 0)  -->
<svg version="1.1" id="Capa_1" xmlns="http://www.w3.org/2000/svg" xmlns:xlink="http://www.w3.org/1999/xlink" x="0px" y="0px"
	 viewBox="0 0 240 50" style="enable-background:new 0 0 240 50;" xml:space="preserve">
<style type="text/css">
	.st0{fill:#BF0724;}
	.st1{opacity:0.7;fill:#FFFFFF;enable-background:new    ;}
</style>
<path id="Forma_15" class="st0" d="M234.1,2.5C232,1.5,218.9,0,154.6,0C92,0,13.3,1.5,4.7,2.1c-0.6,0-1.8,1-2.8,4.4
	c-3.7,11.7-1.9,38,4,40.7C9.5,48.8,62.4,50,134.5,50c51.8,0,96.2-0.6,99.1-1.4c1.7-0.5,4.8-7.5,6-19.1C241,15.4,238.8,4.5,234.1,2.5
	z"/>
<path class="st1" d="M134.7,47.5l-2,0v-1l2,0V47.5z M138.7,47.5v-1l2,0v1L138.7,47.5z M128.7,47.5l-2,0l0-1l2,0V47.5z M144.7,47.5
	l0-1l2,0l0,1L144.7,47.5z M122.6,47.5l-2,0l0-0.5l0-0.5l2,0L122.6,47.5z M150.7,47.5l0-0.5l0-0.5l2,0l0,1L150.7,47.5z M116.6,47.5
	l-2,0l0-1l2,0L116.6,47.5z M156.7,47.5l0-1l2,0l0,1L156.7,47.5z M110.6,47.5l-2,0l0-1l2,0L110.6,47.5z M162.7,47.4l0-1l2,0l0,1
	L162.7,47.4z M104.6,47.4l-2,0l0-0.5l0-0.5l2,0L104.6,47.4z M168.7,47.4l0-0.5l0-0.5l2,0l0,1L168.7,47.4z M98.6,47.4l-2,0l0-1l2,0
	L98.6,47.4z M174.7,47.4l0-1l2,0l0,1L174.7,47.4z M92.6,47.4l-2,0l0-1l2,0L92.6,47.4z M180.7,47.3l0-1l2,0l0,1L180.7,47.3z
	 M86.6,47.3l-2,0l0-1l2,0L86.6,47.3z M186.7,47.3l0-1l2,0l0,1L186.7,47.3z M80.6,47.3l-2,0l0-1l2,0L80.6,47.3z M192.7,47.2l0-1l2,0
	l0,1L192.7,47.2z M74.6,47.2l-1.9,0l-0.1-0.5l0.1-0.5l1.9,0L74.6,47.2z M198.7,47.2l0-1l2,0l0,1L198.7,47.2z M68.6,47.1l-2,0l0-1
	l2,0L68.6,47.1z M204.7,47.1l0-1l2,0l0,1L204.7,47.1z M62.6,47.1l-2,0l0-1l2,0L62.6,47.1z M120.7,47l0-0.5L120.7,47z M56.6,47l-2,0
	l0-1l2,0L56.6,47z M210.7,47l0-1l2,0l0,1L210.7,47z M102.6,46.9l0-0.5L102.6,46.9z M50.6,46.9l-2,0l0-1l2,0L50.6,46.9z M216.7,46.9
	l0-1l2,0l0,1L216.7,46.9z M44.6,46.8l-2,0l0-1l2,0L44.6,46.8z M222.7,46.7l0-1c0.7,0,1.4,0,2-0.1l0,1
	C224.1,46.7,223.4,46.7,222.7,46.7z M72.6,46.7l0-0.5L72.6,46.7z M38.6,46.6l-2,0l0-1l2,0L38.6,46.6z M32.6,46.5l-2-0.1l0-1l2,0.1
	L32.6,46.5z M228.7,46.4l-0.1-1c1-0.1,1.6-0.1,1.9-0.2l0.2,1C230.4,46.3,229.8,46.4,228.7,46.4z M26.6,46.3l-2-0.1l0-1l2,0.1
	L26.6,46.3z M20.6,46c-0.7,0-1.4-0.1-2-0.1l0.1-1c0.6,0,1.3,0.1,2,0.1L20.6,46z M14.6,45.7c-0.7,0-1.4-0.1-2-0.2l0.1-1
	c0.6,0.1,1.3,0.1,2,0.2L14.6,45.7z M8.5,44.9c-0.6-0.3-1.2-0.7-1.7-1.4l0.8-0.6C8,43.4,8.4,43.8,8.9,44L8.5,44.9z M233.6,43
	l-0.9-0.4c0.3-0.5,0.5-1.2,0.8-1.8l0.9,0.4C234.1,41.8,233.9,42.4,233.6,43z M4.9,39.8c-0.2-0.6-0.4-1.3-0.6-1.9l1-0.3
	c0.2,0.7,0.4,1.3,0.6,1.9L4.9,39.8z M235.6,37.2l-1-0.3c0.2-0.6,0.3-1.3,0.5-1.9l1,0.2C235.9,35.9,235.8,36.6,235.6,37.2z M3.4,33.9
	c-0.1-0.6-0.2-1.3-0.3-2l1-0.1c0.1,0.7,0.2,1.3,0.3,2L3.4,33.9z M236.8,31.3l-1-0.1c0.1-0.6,0.2-1.3,0.3-2l1,0.1
	C237,30,236.9,30.6,236.8,31.3z M2.7,27.9c0-0.7-0.1-1.3-0.1-2l1,0c0,0.7,0.1,1.3,0.1,2L2.7,27.9z M237.4,25.3l-1-0.1
	c0-0.7,0.1-1.3,0.1-2l1,0C237.5,23.9,237.4,24.6,237.4,25.3z M3.5,21.9l-1,0c0-0.7,0-1.3,0.1-2l1,0C3.5,20.6,3.5,21.2,3.5,21.9z
	 M236.5,19.3c0-0.7-0.1-1.3-0.1-2l1-0.1c0.1,0.7,0.1,1.3,0.1,2L236.5,19.3z M3.9,16l-1-0.1c0.1-0.7,0.2-1.4,0.3-2l1,0.2
	C4,14.6,3.9,15.3,3.9,16z M235.7,13.4c-0.1-0.7-0.3-1.3-0.5-1.9l1-0.3c0.2,0.6,0.4,1.3,0.5,2L235.7,13.4z M4.9,10.1L4,9.9
	C4.1,9.4,4.2,9,4.4,8.5c0.1-0.2,0.2-0.4,0.2-0.6l0.9,0.4C5.5,8.5,5.4,8.7,5.3,8.9C5.2,9.3,5,9.7,4.9,10.1z M233.7,8
	c-0.4-0.6-0.8-1.1-1.2-1.4l0.7-0.7c0.5,0.4,0.9,1,1.3,1.6L233.7,8z M231.1,5.6c-0.2-0.1-0.7-0.2-1.8-0.4l0.1-1
	c1,0.1,1.6,0.3,2.1,0.4L231.1,5.6z M7.5,5.4L7.1,4.5c0.2-0.1,0.3-0.1,0.5-0.1c0.4,0,1-0.1,1.7-0.1l0,1C8.6,5.3,8,5.3,7.6,5.3
	C7.6,5.3,7.6,5.3,7.5,5.4z M13.3,5.1l0-1l2-0.1l0,1L13.3,5.1z M19.3,5l0-1l2,0l0,1L19.3,5z M25.4,4.8l0-1l2,0l0,1L25.4,4.8z
	 M225.3,4.8c-0.6,0-1.3-0.1-2-0.1l0.1-1c0.7,0,1.4,0.1,2,0.1L225.3,4.8z M31.4,4.7l0-1l2,0l0,1L31.4,4.7z M37.4,4.6l0-1l2,0l0,1
	L37.4,4.6z M43.4,4.5l0-1l2,0l0,1L43.4,4.5z M219.3,4.5c-0.6,0-1.3-0.1-2-0.1l0-1c0.7,0,1.4,0.1,2,0.1L219.3,4.5z M49.4,4.4l0-1l2,0
	l0,1L49.4,4.4z M55.4,4.3l0-1l2,0l0,1L55.4,4.3z M61.4,4.2l0-1l2,0l0,1L61.4,4.2z M213.4,4.2l-2-0.1l0-1l2,0.1L213.4,4.2z M67.4,4.1
	l0-1l2,0l0,1L67.4,4.1z M73.4,4.1l0-1l2,0l0,1L73.4,4.1z M207.4,4l-2-0.1l0-1l2,0.1L207.4,4z M79.4,4l0-1l1.9,0l0.1,0.5L81.3,4
	L79.4,4z M85.4,3.9l0-1l1.9,0l0.1,0.5l-0.1,0.5L85.4,3.9z M201.4,3.9l-2,0l0-1l2,0L201.4,3.9z M91.4,3.9l0-1l2,0l0,0.5l0,0.5
	L91.4,3.9z M97.4,3.8l0-1l2,0l0,0.5l0,0.5L97.4,3.8z M195.4,3.8l-2,0l0-1l2,0L195.4,3.8z M103.4,3.7l0-1l2,0l0,1L103.4,3.7z
	 M109.4,3.7l0-1l2,0l0,1L109.4,3.7z M189.4,3.7l-2,0l0-1l2,0L189.4,3.7z M115.4,3.6l0-1l2,0l0,1L115.4,3.6z M183.4,3.6l-2,0l0-1l2,0
	L183.4,3.6z M121.4,3.6l0-1l2,0l0,1L121.4,3.6z M177.4,3.6l-2,0l0-1l2,0L177.4,3.6z M127.4,3.6l0-1l2,0l0,1L127.4,3.6z M133.4,3.5
	l0-1l2,0l0,1L133.4,3.5z M171.4,3.5l-2,0l0-1l2,0L171.4,3.5z M139.4,3.5l0-1l2,0l0,1L139.4,3.5z M165.4,3.5l-2,0l0-1l2,0L165.4,3.5z
	 M145.4,3.5l0-1l2,0l0,1L145.4,3.5z M159.4,3.5l-2,0v-1l2,0L159.4,3.5z M151.4,3.5v-1l2,0v1L151.4,3.5z"/>
</svg>
