<?xml version="1.0" encoding="utf-8"?>
<!-- Generator: Adobe Illustrator 21.0.0, SVG Export Plug-In . SVG Version: 6.00 Build 0)  -->
<svg version="1.1" id="Capa_1" xmlns="http://www.w3.org/2000/svg" xmlns:xlink="http://www.w3.org/1999/xlink" x="0px" y="0px"
	 viewBox="0 0 76 76" style="enable-background:new 0 0 76 76;" xml:space="preserve">
<style type="text/css">
	.st0{fill:#FFFFFF;}
	.st1{opacity:0.25;enable-background:new    ;}
</style>
<path id="Forma_15_copia_2" class="st0" d="M74.1,3.7C73.5,2.3,69.3,0,48.9,0C29.1,0,4.2,2.3,1.5,3.2C1.3,3.2,0.9,4.7,0.6,9.9
	C-0.6,27.6,0,67.6,1.9,71.7C3,74.2,19.8,76,42.6,76C59,76,73.1,75,74,73.8c0.6-0.8,1.5-11.4,1.9-29.1C76.3,23.4,75.6,6.9,74.1,3.7z"
	/>
<path class="st1" d="M42.2,73.5l-1.1,0l0-1l1.1,0l0.9,0l0,1L42.2,73.5z M37.1,73.5c-0.7,0-1.3,0-2,0l0-1c0.7,0,1.3,0,2,0L37.1,73.5z
	 M47.2,73.5l0-1l2,0l0,1L47.2,73.5z M31.1,73.3c-0.7,0-1.3,0-2-0.1l0-1c0.7,0,1.3,0,2,0.1L31.1,73.3z M53.2,73.3l0-1
	c0.7,0,1.3,0,2-0.1l0,1C54.5,73.3,53.9,73.3,53.2,73.3z M25.1,73.1c-0.7,0-1.3-0.1-2-0.1l0.1-1c0.7,0,1.3,0.1,2,0.1L25.1,73.1z
	 M59.2,73.1l-0.1-1c0.7,0,1.4-0.1,2-0.1l0.1,1C60.5,73,59.9,73,59.2,73.1z M19.1,72.7c-0.7-0.1-1.4-0.1-2-0.2l0.1-1
	c0.6,0.1,1.3,0.1,2,0.2L19.1,72.7z M65.2,72.7l-0.1-1c0.7-0.1,1.4-0.1,2-0.2l0.1,1C66.6,72.5,65.9,72.6,65.2,72.7z M13.1,72.1
	c-0.7-0.1-1.4-0.2-2-0.3l0.2-1c0.6,0.1,1.3,0.2,2,0.3L13.1,72.1z M71.3,71.5l-0.6-0.8c0,0,0.1-0.2,0.3-1.5l1,0.1
	c-0.2,1.5-0.3,1.8-0.5,2C71.5,71.4,71.4,71.4,71.3,71.5z M7.2,70.9c-0.8-0.2-1.5-0.5-2-0.8l0.5-0.9c0.4,0.2,1,0.5,1.7,0.7L7.2,70.9z
	 M3.6,66.2c-0.1-0.6-0.1-1.3-0.2-2l1-0.1c0.1,0.7,0.1,1.4,0.2,2L3.6,66.2z M72.4,65.3l-1-0.1c0.1-0.6,0.1-1.3,0.2-2l1,0.1
	C72.5,64,72.5,64.6,72.4,65.3z M3.1,60.2c0-0.6-0.1-1.3-0.1-2l1-0.1c0,0.7,0.1,1.4,0.1,2L3.1,60.2z M72.8,59.3l-1-0.1
	c0-0.6,0.1-1.3,0.1-2l1,0C72.9,57.9,72.9,58.6,72.8,59.3z M2.8,54.2l-0.1-2l1,0l0.1,2L2.8,54.2z M73.1,53.3l-1,0c0-0.6,0-1.3,0.1-2
	l1,0C73.2,51.9,73.1,52.6,73.1,53.3z M2.7,48.1l0-2l1,0l0,2L2.7,48.1z M73.3,47.3l-1,0c0-0.7,0-1.3,0-2l1,0
	C73.3,45.9,73.3,46.6,73.3,47.3z M2.5,42.1l0-2l1,0l0,2L2.5,42.1z M73.4,41.2l-1,0l0-2l1,0L73.4,41.2z M2.5,36.1l0-1.6l0-0.4h1
	l0,0.4l0,1.6L2.5,36.1z M73.5,35.2l-1,0l0-2l1,0L73.5,35.2z M3.5,30.1l-1,0l0-2l1,0L3.5,30.1z M72.5,29.2l0-2l1,0l0,2L72.5,29.2z
	 M3.6,24.1l-1,0c0-0.7,0-1.3,0-2l1,0C3.6,22.8,3.6,23.5,3.6,24.1z M72.4,23.2c0-0.7,0-1.3-0.1-2l1,0c0,0.7,0,1.3,0.1,2L72.4,23.2z
	 M3.8,18.1l-1,0c0-0.7,0.1-1.4,0.1-2l1,0C3.8,16.8,3.8,17.5,3.8,18.1z M72.2,17.3c0-0.7-0.1-1.4-0.1-2l1-0.1c0,0.6,0.1,1.3,0.1,2
	L72.2,17.3z M4.1,12.1l-1,0c0.1-0.8,0.1-1.4,0.1-2l1,0.1C4.1,10.8,4.1,11.4,4.1,12.1z M71.7,11.3c-0.1-0.7-0.2-1.4-0.2-2l1-0.2
	c0.1,0.6,0.2,1.3,0.3,2L71.7,11.3z M70.8,6.7c-0.1-0.2-0.4-0.6-1.3-1L70,4.8c0.9,0.4,1.5,0.9,1.8,1.5L70.8,6.7z M4.5,6.4
	c0.1,0,0.1,0,0.1-0.1L3.8,6c0-0.2,0.2-0.5,0.5-0.6C4.5,5.3,5.1,5.2,6,5.1l0.2,1C5.1,6.2,4.7,6.3,4.5,6.4z M10.1,5.6l-0.1-1
	c0.6-0.1,1.3-0.1,2-0.2l0.1,1C11.4,5.4,10.7,5.5,10.1,5.6z M16,5L16,4c0.6-0.1,1.3-0.1,2-0.2l0.1,1C17.4,4.9,16.7,4.9,16,5z
	 M65.8,4.6c-0.6-0.1-1.2-0.2-1.9-0.3l0.1-1c0.7,0.1,1.4,0.2,2,0.3L65.8,4.6z M22,4.5l-0.1-1c0.7,0,1.3-0.1,2-0.1l0.1,1
	C23.3,4.4,22.7,4.5,22,4.5z M28,4.1l-0.1-1c0.7,0,1.3-0.1,2-0.1L30,4C29.3,4.1,28.7,4.1,28,4.1z M59.9,3.9c-0.6,0-1.3-0.1-2-0.1
	l0.1-1c0.7,0,1.4,0.1,2,0.1L59.9,3.9z M34,3.8l0-1c0.7,0,1.3-0.1,2-0.1l0,1C35.3,3.8,34.7,3.8,34,3.8z M40,3.6l0-1
	c0.7,0,1.3,0,2-0.1l0,1C41.3,3.6,40.7,3.6,40,3.6z M54,3.6c-0.6,0-1.3,0-2,0l0-1c0.7,0,1.4,0,2,0L54,3.6z M46,3.5l0-1
	c0.7,0,1.3,0,2,0v1C47.3,3.5,46.7,3.5,46,3.5z"/>
</svg>
