<?xml version="1.0" encoding="utf-8"?>
<!-- Generator: Adobe Illustrator 21.0.0, SVG Export Plug-In . SVG Version: 6.00 Build 0)  -->
<svg version="1.1" id="Capa_1" xmlns="http://www.w3.org/2000/svg" xmlns:xlink="http://www.w3.org/1999/xlink" x="0px" y="0px"
	 viewBox="0 0 20 20" style="enable-background:new 0 0 20 20;" xml:space="preserve">
<style type="text/css">
	.st0{fill:#BF0724;}
	.st1{fill:#FFFFFF;}
</style>
<path id="Forma_15_copia_3" class="st0" d="M19.5,1c-0.2-0.4-1.3-1-6.6-1C8.7,0,4.5,0.3,0.4,0.8C0.2,1.4,0.1,2,0.2,2.6
	C-0.1,7.3,0,17.8,0.5,18.9C0.8,19.5,5.2,20,11.2,20c4.3,0,8-0.3,8.3-0.6c0.4-2.5,0.5-5.1,0.5-7.7C20.1,6.1,19.9,1.8,19.5,1z"/>
<path id="Forma_41" class="st1" d="M15,7.3c-2,2.3-4.1,4.6-6.3,6.7c-1.3-0.7-2.5-1.5-3.7-2.5c0.2-0.7,0.5-1.2,1-1.7
	c0.2-0.1,2.1,1.7,2.4,1.7s5-5.6,5.2-5.5C14.1,6.3,14.6,6.8,15,7.3z"/>
</svg>
