<?xml version="1.0" encoding="utf-8"?>
<!-- Generator: Adobe Illustrator 21.0.0, SVG Export Plug-In . SVG Version: 6.00 Build 0)  -->
<svg version="1.1" id="Capa_1" xmlns="http://www.w3.org/2000/svg" xmlns:xlink="http://www.w3.org/1999/xlink" x="0px" y="0px"
	 viewBox="0 0 210 76" style="enable-background:new 0 0 210 76;" xml:space="preserve">
<style type="text/css">
	.st0{fill:#FFFFFF;}
	.st1{opacity:0.25;enable-background:new    ;}
</style>
<path id="Forma_15_copia_2" class="st0" d="M204.8,3.7C203,2.3,191.6,0,135.3,0C80.5,0,11.6,2.3,4.1,3.2C3.7,3.2,2.6,4.7,1.7,9.9
	C-1.5,27.6,0,67.6,5.2,71.7C8.3,74.2,54.6,76,117.7,76c45.3,0,84.2-1,86.7-2.2c1.5-0.8,4.2-11.4,5.2-29.1
	C210.9,23.4,208.9,6.9,204.8,3.7z"/>
<path class="st1" d="M117.5,73.5h-2v-1h2V73.5z M121.5,73.5l0-1l2,0l0,1L121.5,73.5z M111.5,73.5l-2,0l0-1l2,0L111.5,73.5z
	 M127.5,73.5l0-1l2,0l0,1L127.5,73.5z M105.4,73.5l-2,0l0-1l2,0L105.4,73.5z M133.5,73.5l0-1l2,0l0,1L133.5,73.5z M99.4,73.4l-2,0
	l0-1l2,0L99.4,73.4z M139.5,73.4l0-1l2,0l0,1L139.5,73.4z M93.4,73.4l-2,0l0-1l2,0L93.4,73.4z M145.5,73.4l0-1l2,0l0,1L145.5,73.4z
	 M87.4,73.4l-2,0l0-1l2,0L87.4,73.4z M151.5,73.3l0-1l2,0l0,1L151.5,73.3z M81.4,73.3l-2,0l0-1l2,0L81.4,73.3z M157.5,73.2l0-1l2,0
	l0,1L157.5,73.2z M75.4,73.2l-2,0l0-1l2,0L75.4,73.2z M163.5,73.1l0-1l2,0l0,1L163.5,73.1z M69.4,73.1l-2,0l0-1l2,0L69.4,73.1z
	 M169.5,73l0-1l2,0l0,1L169.5,73z M63.4,73l-2,0l0-1l2,0L63.4,73z M175.5,72.9l0-1l2-0.1l0,1L175.5,72.9z M57.4,72.9l-2,0l0-1l2,0
	L57.4,72.9z M181.5,72.7l0-1l2-0.1l0,1L181.5,72.7z M51.4,72.7l-2-0.1l0-1l2,0.1L51.4,72.7z M45.4,72.5l-2-0.1l0-1l2,0.1L45.4,72.5z
	 M187.5,72.5l0-1l2-0.1l0,1L187.5,72.5z M39.4,72.3l-2-0.1l0-1l2,0.1L39.4,72.3z M193.5,72.3l-0.1-1c0.7,0,1.4-0.1,2-0.1l0.1,1
	C194.9,72.2,194.2,72.2,193.5,72.3z M33.4,72.1l-2-0.1l0-1l2,0.1L33.4,72.1z M199.5,71.8l-0.1-1c1.1-0.1,1.4-0.2,1.5-0.3
	c0,0,0,0,0.1-0.1l0.7,0.7c-0.1,0.1-0.3,0.2-0.4,0.3C201.1,71.5,200.7,71.7,199.5,71.8z M27.4,71.8l-2-0.1l0.1-1l2,0.1L27.4,71.8z
	 M21.4,71.4c-0.7,0-1.4-0.1-2-0.2l0.1-1c0.6,0.1,1.3,0.1,2,0.2L21.4,71.4z M15.4,70.9c-0.7-0.1-1.4-0.2-2-0.2l0.1-1
	c0.6,0.1,1.3,0.2,2,0.2L15.4,70.9z M9.4,69.9c-0.6-0.2-1-0.3-1.2-0.5C8,69.2,7.7,69,7.5,68.7l0.8-0.6c0.2,0.2,0.3,0.4,0.5,0.5
	c0.1,0.1,0.3,0.2,0.9,0.3L9.4,69.9z M203.4,67.3l-1-0.3c0.2-0.6,0.3-1.2,0.5-1.9l1,0.2C203.7,66,203.6,66.7,203.4,67.3z M5.9,64.9
	c-0.2-0.6-0.3-1.3-0.5-2l1-0.2c0.2,0.7,0.3,1.3,0.5,1.9L5.9,64.9z M204.7,61.4l-1-0.2c0.1-0.6,0.2-1.3,0.3-2l1,0.2
	C204.9,60.1,204.8,60.7,204.7,61.4z M4.6,59c-0.1-0.6-0.2-1.3-0.3-2l1-0.1c0.1,0.7,0.2,1.3,0.3,2L4.6,59z M205.6,55.4l-1-0.1
	c0.1-0.6,0.2-1.3,0.2-2l1,0.1C205.8,54.1,205.7,54.8,205.6,55.4z M3.9,53c-0.1-0.7-0.1-1.3-0.2-2l1-0.1c0.1,0.7,0.1,1.3,0.2,2
	L3.9,53z M206.3,49.4l-1-0.1c0.1-0.6,0.1-1.3,0.2-2l1,0.1C206.4,48.1,206.3,48.8,206.3,49.4z M3.4,47c0-0.7-0.1-1.3-0.1-2l1-0.1
	c0,0.7,0.1,1.3,0.1,2L3.4,47z M206.7,43.4l-1-0.1c0-0.7,0.1-1.3,0.1-2l1,0C206.8,42.1,206.7,42.8,206.7,43.4z M3.1,41
	c0-0.7,0-1.3-0.1-2l1,0c0,0.7,0,1.3,0.1,2L3.1,41z M206.9,37.4l-1,0c0-0.7,0-1.3,0-2l1,0C207,36.1,207,36.7,206.9,37.4z M3,35l0-0.4
	l0-1.6l1,0l0,1.6l0,0.4L3,35z M206,31.4c0-0.7,0-1.3,0-2l1,0c0,0.7,0,1.3,0,2L206,31.4z M4.1,29l-1,0c0-0.7,0-1.3,0.1-2l1,0
	C4.1,27.6,4.1,28.3,4.1,29z M205.8,25.4c0-0.7-0.1-1.3-0.1-2l1-0.1c0,0.7,0.1,1.3,0.1,2L205.8,25.4z M4.3,23l-1-0.1
	c0-0.7,0.1-1.3,0.1-2l1,0.1C4.4,21.7,4.4,22.3,4.3,23z M205.3,19.5c-0.1-0.7-0.2-1.3-0.3-2l1-0.1c0.1,0.6,0.2,1.3,0.3,2L205.3,19.5z
	 M4.9,17l-1-0.1c0.1-0.7,0.2-1.4,0.3-2l1,0.1C5,15.7,4.9,16.4,4.9,17z M204.3,13.6c-0.2-0.7-0.3-1.3-0.5-1.9l1-0.3
	c0.2,0.6,0.4,1.3,0.5,2L204.3,13.6z M5.8,11.2l-1-0.2C5,10.2,5.1,9.6,5.3,9l1,0.3C6.1,9.8,5.9,10.5,5.8,11.2z M202.4,8.2
	c-0.4-0.6-0.7-1-1.1-1.3c-0.2-0.1-0.6-0.4-1.7-0.6l0.2-1c1,0.2,1.6,0.5,2,0.8c0.5,0.4,1,0.9,1.4,1.6L202.4,8.2z M7.8,6.4l-0.1-1
	c0.5,0,1.2-0.1,2-0.2l0.1,1C9,6.3,8.3,6.3,7.8,6.4z M13.8,6l-0.1-1l2-0.1l0,1L13.8,6z M19.8,5.7l0-1l2-0.1l0,1L19.8,5.7z M195.7,5.5
	c-0.6-0.1-1.3-0.2-2-0.2l0.1-1c0.7,0.1,1.4,0.2,2,0.2L195.7,5.5z M25.8,5.5l0-1l2-0.1l0,1L25.8,5.5z M31.8,5.3l0-1l2-0.1l0,1
	L31.8,5.3z M37.8,5.1l0-1l2-0.1l0,1L37.8,5.1z M43.8,4.9l0-1l2-0.1l0,1L43.8,4.9z M189.7,4.9c-0.6-0.1-1.3-0.1-2-0.2l0.1-1
	c0.7,0.1,1.4,0.1,2,0.2L189.7,4.9z M49.8,4.8l0-1l2-0.1l0,1L49.8,4.8z M55.8,4.6l0-1l2-0.1l0,1L55.8,4.6z M183.8,4.5
	c-0.6,0-1.3-0.1-2-0.1l0.1-1c0.7,0,1.4,0.1,2,0.1L183.8,4.5z M61.8,4.5l0-1l2,0l0,1L61.8,4.5z M67.8,4.3l0-1l2,0l0,1L67.8,4.3z
	 M177.8,4.2l-2-0.1l0-1l2,0.1L177.8,4.2z M73.8,4.2l0-1l2,0l0,1L73.8,4.2z M79.8,4.1l0-1l2,0l0,1L79.8,4.1z M171.8,4l-2-0.1l0-1
	l2,0.1L171.8,4z M85.8,4l0-1l2,0l0,1L85.8,4z M91.8,3.9l0-1l2,0l0,1L91.8,3.9z M165.8,3.8l-2,0l0-1l2,0L165.8,3.8z M97.8,3.8l0-1
	l2,0l0,1L97.8,3.8z M159.8,3.7l-2,0l0-1l2,0L159.8,3.7z M103.9,3.7l0-1l2,0l0,1L103.9,3.7z M109.9,3.6l0-1l2,0l0,1L109.9,3.6z
	 M153.8,3.6l-2,0l0-1l2,0L153.8,3.6z M115.8,3.6l0-1l2,0l0,1L115.8,3.6z M147.8,3.6l-2,0l0-1l2,0L147.8,3.6z M121.8,3.5l0-1l2,0l0,1
	L121.8,3.5z M141.8,3.5l-2,0l0-1l2,0L141.8,3.5z M127.9,3.5l0-1l2,0l0,1L127.9,3.5z M135.8,3.5l-2,0v-1l2,0V3.5z"/>
</svg>
