<?xml version="1.0" encoding="utf-8"?>
<!-- Generator: Adobe Illustrator 21.0.0, SVG Export Plug-In . SVG Version: 6.00 Build 0)  -->
<svg version="1.1" id="Capa_1" xmlns="http://www.w3.org/2000/svg" xmlns:xlink="http://www.w3.org/1999/xlink" x="0px" y="0px"
	 viewBox="0 0 20 20" style="enable-background:new 0 0 20 20;" xml:space="preserve">
<style type="text/css">
	.st0{fill:#BF0724;}
</style>
<path id="Forma_6_copia" class="st0" d="M13.6,14.1c-0.2,0-0.4-0.1-0.6-0.2L9.3,11c-0.2-0.2-0.4-0.5-0.4-0.8V6.5c0-0.6,0.5-1,1-1
	s1,0.5,1,1v3.3l3.3,2.5c0.4,0.3,0.5,1,0.2,1.4C14.2,14,13.9,14.1,13.6,14.1z M9.9,20C4.5,19.9,0,15.4,0,10c0-5.5,4.5-9.9,10-9.9
	c5.5,0,9.9,4.5,9.9,10C19.9,15.5,15.5,20,9.9,20z M9.9,1.9c-4.5,0-8,3.7-8,8.1c0,4.5,3.7,8,8.1,8c4.4,0,8-3.6,8-8.1
	C18,5.5,14.4,1.9,9.9,1.9z"/>
</svg>
