<?xml version="1.0" encoding="utf-8"?>
<!-- Generator: Adobe Illustrator 21.0.0, SVG Export Plug-In . SVG Version: 6.00 Build 0)  -->
<svg version="1.1" id="Capa_1" xmlns="http://www.w3.org/2000/svg" xmlns:xlink="http://www.w3.org/1999/xlink" x="0px" y="0px"
	 viewBox="0 0 20 20" style="enable-background:new 0 0 20 20;" xml:space="preserve">
<style type="text/css">
	.st0{fill:#BF0724;}
</style>
<path class="st0" d="M20,18.6l-4-4c1.2-1.5,2-3.5,2-5.6c0-5-4-9-9-9C4,0,0,4,0,9c0,5,4,9,9,9c2.1,0,4.1-0.7,5.6-2l4,4L20,18.6z
	 M9,16c-3.9,0-7-3.1-7-7c0-3.9,3.1-7,7-7c3.9,0,7,3.1,7,7C16,12.9,12.9,16,9,16z"/>
</svg>
