<?xml version="1.0" encoding="utf-8"?>
<!-- Generator: Adobe Illustrator 21.0.0, SVG Export Plug-In . SVG Version: 6.00 Build 0)  -->
<svg version="1.1" id="Capa_1" xmlns="http://www.w3.org/2000/svg" xmlns:xlink="http://www.w3.org/1999/xlink" x="0px" y="0px"
	 viewBox="0 0 20 20" style="enable-background:new 0 0 20 20;" xml:space="preserve">
<style type="text/css">
	.st0{fill:#BF0724;}
</style>
<path id="Forma_13" class="st0" d="M9.9,20c-5.5,0-9.9-4.5-9.9-10c0-5.5,4.5-9.9,10-9.9c5.5,0,9.9,4.5,9.9,10
	C19.9,15.5,15.4,20,9.9,20z M4.8,16.4c3.5,2.8,8.7,2.3,11.5-1.2c2.4-3,2.4-7.3,0-10.3l-2,2c0,0-0.1,0.1-0.1,0.1c0,0-0.1,0-0.1,0
	C14,6.9,14,6.8,14,6.7c0.2-0.6,0.2-1.3,0-1.9c0-0.1,0-0.1,0-0.2l1-1C11.5,0.8,6.3,1.4,3.5,4.9C2.4,6.4,1.7,8.2,1.7,10
	c0,1.9,0.6,3.7,1.8,5.1l1.9-1.9c0,0,0.1-0.1,0.1-0.1h0c0.1,0,0.1,0,0.1,0.1c0.2,0.4,0.5,0.8,0.9,1c0,0,0.1,0.1,0.1,0.1
	c0,0.1,0,0.1-0.1,0.1L4.8,16.4z M9.9,17.7c-0.4,0-0.7-0.3-0.7-0.7V7.5c0-0.4,0.4-0.7,0.8-0.7c0.4,0,0.7,0.3,0.7,0.7V17
	C10.7,17.4,10.3,17.7,9.9,17.7z M9.9,6.6c0,0-0.1,0-0.1,0C8.7,5.7,8.5,4.1,9.3,2.9c0.1-0.2,0.3-0.4,0.5-0.5c0.1-0.1,0.2-0.1,0.2,0
	c1.1,0.9,1.4,2.5,0.5,3.6c-0.1,0.2-0.3,0.4-0.5,0.5C10,6.6,10,6.6,9.9,6.6z M11.2,8.4c-0.1,0-0.2-0.1-0.2-0.1
	c-0.2-0.8,0-1.6,0.5-2.3c0.5-0.6,1.3-1,2.1-1c0.1,0,0.2,0.1,0.2,0.1c0.2,0.8,0,1.6-0.5,2.3C12.8,8.1,12.1,8.4,11.2,8.4L11.2,8.4
	L11.2,8.4z M11.4,11.5c-0.1,0-0.2,0-0.2,0c-0.1,0-0.1-0.1-0.2-0.1c-0.2-1.4,0.8-2.8,2.2-3c0.1,0,0.2,0,0.4,0c0.1,0,0.2,0,0.3,0
	C14,8.3,14,8.4,14,8.5c0.1,0.8-0.1,1.6-0.7,2.2C12.8,11.2,12.1,11.5,11.4,11.5L11.4,11.5z M11.5,14.6c-0.1,0-0.2,0-0.2,0
	c-0.1,0-0.1-0.1-0.2-0.1c-0.1-0.8,0.1-1.6,0.7-2.2c0.5-0.5,1.2-0.8,1.9-0.8c0.1,0,0.2,0,0.2,0c0.1,0,0.1,0.1,0.2,0.1
	c0.1,0.8-0.1,1.6-0.7,2.2C13,14.3,12.3,14.6,11.5,14.6L11.5,14.6z M8.6,8.4C7.2,8.4,6,7.3,6,5.8c0-0.2,0-0.4,0.1-0.6
	c0-0.1,0.1-0.1,0.2-0.1h0.1c0.8,0,1.5,0.4,2,1C8.9,6.7,9,7.5,8.9,8.3C8.8,8.4,8.8,8.4,8.6,8.4L8.6,8.4L8.6,8.4z M8.5,11.5
	c-1.5,0-2.6-1.2-2.7-2.6c0-0.1,0-0.3,0-0.4c0-0.1,0.1-0.1,0.2-0.2c0.1,0,0.2,0,0.2,0c1.5,0,2.6,1.2,2.7,2.6c0,0.1,0,0.3,0,0.4
	c0,0.1-0.1,0.1-0.2,0.2C8.6,11.5,8.5,11.5,8.5,11.5L8.5,11.5z M8.3,14.6c-1.5,0-2.6-1.2-2.7-2.6c0-0.1,0-0.3,0-0.4
	c0-0.1,0.1-0.1,0.2-0.2c0.1,0,0.2,0,0.2,0c1.5,0,2.6,1.2,2.7,2.6c0,0.1,0,0.3,0,0.4c0,0.1-0.1,0.1-0.2,0.2
	C8.5,14.6,8.4,14.6,8.3,14.6L8.3,14.6z"/>
</svg>
