<svg xmlns="http://www.w3.org/2000/svg" width="9" height="8" viewBox="0 0 9 8">
  <metadata><?xpacket begin="﻿" id="W5M0MpCehiHzreSzNTczkc9d"?>
<x:xmpmeta xmlns:x="adobe:ns:meta/" x:xmptk="Adobe XMP Core 5.6-c138 79.159824, 2016/09/14-01:09:01        ">
   <rdf:RDF xmlns:rdf="http://www.w3.org/1999/02/22-rdf-syntax-ns#">
      <rdf:Description rdf:about=""/>
   </rdf:RDF>
</x:xmpmeta>
                                                                                                    
                                                                                                    
                                                                                                    
                                                                                                    
                                                                                                    
                                                                                                    
                                                                                                    
                                                                                                    
                                                                                                    
                                                                                                    
                                                                                                    
                                                                                                    
                                                                                                    
                                                                                                    
                                                                                                    
                                                                                                    
                                                                                                    
                                                                                                    
                                                                                                    
                                                                                                    
                           
<?xpacket end="w"?></metadata>
<defs>
    <style>
      .cls-1 {
        fill: #df011f;
        fill-rule: evenodd;
      }
    </style>
  </defs>
  <path id="v_copia" data-name="v copia" class="cls-1" d="M402.141,489.867L402.269,490l0.537-.079,0.386,0.023a1.225,1.225,0,0,1,.129-0.045c0,0.045.065,0.045,0.086,0.045l0.644,0.022a0.272,0.272,0,0,0,.085-0.033l0.15,0.056,0.172-.079,0.107-.023,0.215-.17,0.172-.26a0.532,0.532,0,0,0-.022-0.09v-0.045l0.129-.159a0.478,0.478,0,0,1-.022-0.067V489l0.065-.181a0.184,0.184,0,0,1,.043-0.079c0.085-.136.085-0.249,0.043-0.261a0.166,0.166,0,0,0,.042-0.068l0.044-.079v-0.135l0.085-.125a0.179,0.179,0,0,1,.065-0.113,0.471,0.471,0,0,1,.021-0.068l0.129-.2,0.086-.237V487.31l0.064-.09v-0.079c0-.023.022-0.046,0.022-0.068l0.214-.43v-0.158l0.15-.147v-0.1a0.06,0.06,0,0,0,.043-0.046l0.065-.112c0-.012.021-0.068,0.021-0.091a0.174,0.174,0,0,0,.022-0.1l0.128-.181c0-.023-0.021-0.09-0.021-0.124l0.107-.182c0-.022.021-0.078,0.021-0.1l0.172-.26,0.022-.159a0.424,0.424,0,0,1,.043-0.124v0.011l0.085-.09a0.293,0.293,0,0,0,.086-0.159l0.043-.1v-0.091c0-.034.022-0.068,0.022-0.1l0.086-.1a0.944,0.944,0,0,0,.107-0.294l0.043-.067V483.69l0.043-.1v-0.068l0.021-.034,0.065-.09-0.022-.114c0-.011.022-0.022,0.022-0.033v0.022a0.041,0.041,0,0,0,.021-0.034l0.086-.09v-0.159l0.107-.045,0.107-.09V482.56l-0.193-.329-0.128-.147c-0.044,0-.129-0.011-0.129-0.011a0.243,0.243,0,0,1-.086-0.022l-0.751-.046c0,0.023-.022.057-0.022,0.079l-0.043.045-0.214-.011-0.065.08-0.128-.012-0.322.328-0.043.068a0.331,0.331,0,0,1-.107.158l-0.086.136v-0.011l-0.043.068a7.751,7.751,0,0,0-.408.746l-0.021.034-0.408.8c-0.086.193-.172,0.385-0.279,0.577v0.057l-0.107.158a0.828,0.828,0,0,1-.129.306c0,0.022-.043.067-0.043,0.09a0.315,0.315,0,0,0-.086.147l-0.128.283a0.455,0.455,0,0,0-.022.068,0.064,0.064,0,0,0-.021.056l-0.064.068-0.065.2v0.056l-0.107.17-0.236.588v0.068c0,0.012-.022,0-0.022.012l-0.064-.181-0.129-.17-0.343-.747-0.493-1.052-0.044-.124a2.49,2.49,0,0,0-.171-0.4l-0.086-.2a0.413,0.413,0,0,1-.15-0.193l-0.129-.418-0.214-.509c-0.044-.091-0.108-0.17-0.151-0.272l-0.257-.521v0.012l-0.193-.249-0.194-.158-0.149-.08a0.3,0.3,0,0,1-.108-0.011L400,482.141l-0.429.022-0.086.023-0.043-.011h-0.386v0.056l-0.236.035-0.172.079,0.022,0.215c0,0.022.021,0.067,0.021,0.09l0.258,0.871a0.278,0.278,0,0,0,.043.169,0.589,0.589,0,0,1,.043.17v0.057a0.088,0.088,0,0,0,.021.057l0.043,0.09a0.2,0.2,0,0,0,.043.136,0.051,0.051,0,0,0,.021.045,1.142,1.142,0,0,0,.086.215l0.086,0.192,0.064,0.238a3.211,3.211,0,0,1,.129.384l0.15,0.362v0.045l0.129,0.238c0.043,0.057.064,0.124,0.107,0.192a3.785,3.785,0,0,0,.215.317c0.043,0.135.129,0.271,0.172,0.4l0.042,0.124a0.114,0.114,0,0,1,.065.057,0.147,0.147,0,0,0,.021.1V487.1l0.151,0.283c0.021,0.034.085,0.091,0.107,0.135a0.514,0.514,0,0,0,.064.2L400.9,488a0.112,0.112,0,0,0,.043.011v0.023l0.129,0.2c0.021,0.034.064,0.113,0.064,0.113l0.043,0.079a1.339,1.339,0,0,1,.172.26l0.043,0.046v0.09l0.043,0.034L401.475,489a0.586,0.586,0,0,0,.086.18l0.3,0.408Z" transform="translate(-398.656 -482)"/>
</svg>
