<?xml version="1.0" encoding="utf-8"?>
<!-- Generator: Adobe Illustrator 21.0.0, SVG Export Plug-In . SVG Version: 6.00 Build 0)  -->
<svg version="1.1" id="Capa_1" xmlns="http://www.w3.org/2000/svg" xmlns:xlink="http://www.w3.org/1999/xlink" x="0px" y="0px"
	 viewBox="0 0 20 19.9" style="enable-background:new 0 0 20 19.9;" xml:space="preserve">
<style type="text/css">
	.st0{fill:#BF0724;}
</style>
<path id="Forma_13" class="st0" d="M10,19.9c-5.5,0-9.9-4.5-9.9-10c0-5.5,4.5-9.9,10-9.9c5.5,0,9.9,4.5,9.9,10
	C20,15.5,15.5,19.9,10,19.9z M4.9,16.3c3.5,2.8,8.7,2.3,11.5-1.2c2.4-3,2.4-7.3,0-10.3l-2,2c0,0-0.1,0.1-0.1,0.1c0,0-0.1,0-0.1,0
	c-0.1,0-0.1-0.1-0.1-0.2c0.2-0.6,0.2-1.3,0-1.9c0-0.1,0-0.1,0-0.2l1-1C11.6,0.7,6.4,1.3,3.6,4.9C2.4,6.3,1.8,8.1,1.8,9.9
	c0,1.9,0.6,3.7,1.8,5.1l1.9-1.9c0,0,0.1-0.1,0.1-0.1h0c0.1,0,0.1,0,0.1,0.1c0.2,0.4,0.5,0.8,0.9,1c0,0,0.1,0.1,0.1,0.1
	c0,0.1,0,0.1-0.1,0.1L4.9,16.3z M10,17.7c-0.4,0-0.7-0.3-0.7-0.7V7.4c0-0.4,0.4-0.7,0.8-0.7c0.4,0,0.7,0.3,0.7,0.7v9.5
	C10.8,17.3,10.4,17.6,10,17.7z M10,6.5c0,0-0.1,0-0.1,0C8.8,5.6,8.6,4,9.4,2.9c0.1-0.2,0.3-0.4,0.5-0.5c0.1-0.1,0.2-0.1,0.2,0
	c1.1,0.9,1.4,2.5,0.5,3.6c-0.1,0.2-0.3,0.4-0.5,0.5C10.1,6.5,10.1,6.5,10,6.5z M11.3,8.4c-0.1,0-0.2-0.1-0.2-0.1
	c-0.2-0.8,0-1.6,0.5-2.3c0.5-0.6,1.3-1,2.1-1c0.1,0,0.2,0.1,0.2,0.1c0.2,0.8,0,1.6-0.5,2.3C12.9,8,12.1,8.4,11.3,8.4L11.3,8.4
	L11.3,8.4z M11.5,11.4c-0.1,0-0.2,0-0.2,0c-0.1,0-0.1-0.1-0.2-0.1c-0.2-1.4,0.8-2.8,2.2-3c0.1,0,0.2,0,0.4,0c0.1,0,0.2,0,0.3,0
	c0.1,0,0.1,0.1,0.2,0.1c0.1,0.8-0.1,1.6-0.7,2.2C12.9,11.1,12.2,11.4,11.5,11.4L11.5,11.4z M11.6,14.6c-0.1,0-0.2,0-0.2,0
	c-0.1,0-0.1-0.1-0.2-0.1c-0.1-0.8,0.1-1.6,0.7-2.2c0.5-0.5,1.2-0.8,1.9-0.8c0.1,0,0.2,0,0.2,0c0.1,0,0.1,0.1,0.2,0.1
	c0.1,0.8-0.1,1.6-0.7,2.2C13.1,14.3,12.4,14.6,11.6,14.6L11.6,14.6z M8.7,8.4c-1.4,0-2.6-1.2-2.6-2.6c0-0.2,0-0.4,0.1-0.6
	C6.2,5.1,6.3,5,6.3,5h0.1c0.8,0,1.5,0.4,2,1c0.5,0.6,0.7,1.5,0.5,2.2C8.9,8.3,8.9,8.4,8.7,8.4L8.7,8.4L8.7,8.4z M8.6,11.4
	c-1.5,0-2.6-1.2-2.7-2.6c0-0.1,0-0.3,0-0.4c0-0.1,0.1-0.1,0.2-0.2c0.1,0,0.2,0,0.2,0C7.8,8.2,9,9.4,9,10.8c0,0.1,0,0.3,0,0.4
	c0,0.1-0.1,0.1-0.2,0.2C8.7,11.4,8.6,11.4,8.6,11.4L8.6,11.4z M8.4,14.6c-1.5,0-2.6-1.2-2.7-2.6c0-0.1,0-0.3,0-0.4
	c0-0.1,0.1-0.1,0.2-0.2c0.1,0,0.2,0,0.2,0c1.5,0,2.6,1.2,2.7,2.6c0,0.1,0,0.3,0,0.4c0,0.1-0.1,0.1-0.2,0.2
	C8.6,14.6,8.5,14.6,8.4,14.6L8.4,14.6z"/>
</svg>
