<?xml version="1.0" encoding="utf-8"?>
<!-- Generator: Adobe Illustrator 21.0.0, SVG Export Plug-In . SVG Version: 6.00 Build 0)  -->
<svg version="1.1" id="Capa_1" xmlns="http://www.w3.org/2000/svg" xmlns:xlink="http://www.w3.org/1999/xlink" x="0px" y="0px"
	 viewBox="0 0 35 35" style="enable-background:new 0 0 35 35;" xml:space="preserve">
<style type="text/css">
	.st0{clip-path:url(#SVGID_2_);fill:url(#SVGID_3_);}
</style>
<g>
	<defs>
		<path id="SVGID_1_" d="M17.5,12.4c-2.8,0-5.1,2.3-5.1,5.1s2.3,5.1,5.1,5.1s5.1-2.3,5.1-5.1S20.3,12.4,17.5,12.4L17.5,12.4z
			 M17.5,20.8c-1.8,0-3.3-1.5-3.3-3.3s1.5-3.3,3.3-3.3s3.3,1.5,3.3,3.3S19.3,20.8,17.5,20.8L17.5,20.8z M22.8,11
			c-0.7,0-1.2,0.5-1.2,1.2s0.5,1.2,1.2,1.2c0.7,0,1.2-0.5,1.2-1.2l0,0C24,11.5,23.5,11,22.8,11z M27.4,13.4c0-0.8-0.2-1.7-0.5-2.4
			c-0.2-0.7-0.6-1.3-1.2-1.8c-0.5-0.5-1.1-0.9-1.8-1.2c-0.8-0.3-1.6-0.4-2.4-0.5c-0.9,0-1.3,0-4,0s-3.1,0-4.1,0.1
			c-0.9,0-1.7,0.1-2.5,0.4c-0.6,0.3-1.2,0.7-1.7,1.2S8.3,10.3,8,10.9c-0.3,0.8-0.4,1.6-0.4,2.5c-0.1,1-0.1,1.4-0.1,4.1
			s0,3.1,0.1,4.1c0,0.8,0.2,1.7,0.5,2.4c0.4,1.4,1.5,2.5,2.8,3c0.8,0.3,1.6,0.5,2.4,0.5c1.1,0,1.5,0,4.2,0s3.1,0,4.1-0.1
			c0.8,0,1.7-0.2,2.4-0.5c0.7-0.2,1.3-0.6,1.8-1.2c0.5-0.5,0.9-1.1,1.2-1.8c0.3-0.8,0.4-1.6,0.5-2.4c0-1.1,0.1-1.4,0.1-4.1
			S27.5,14.4,27.4,13.4L27.4,13.4z M25.6,21.5c0,0.6-0.1,1.3-0.3,1.9c-0.2,0.4-0.4,0.8-0.7,1.2c-0.3,0.3-0.7,0.6-1.1,0.8
			c-0.6,0.2-1.2,0.3-1.9,0.3c-1.1,0.1-1.4,0.1-4,0.1s-3,0-4-0.1c-0.6,0-1.3-0.1-1.9-0.3c-0.4-0.2-0.8-0.4-1.2-0.8
			c-0.3-0.3-0.6-0.7-0.7-1.2c-0.3-0.6-0.4-1.2-0.4-1.9c0-1.1-0.1-1.4-0.1-4s0-3,0.1-4c0-0.6,0.1-1.3,0.3-1.9
			c0.2-0.4,0.4-0.8,0.8-1.2c0.3-0.3,0.7-0.6,1.2-0.8c0.5-0.1,1.1-0.2,1.8-0.2c1-0.1,1.3-0.1,4-0.1s3,0,4,0.1c0.6,0,1.3,0.1,1.9,0.3
			c0.4,0.2,0.8,0.4,1.1,0.8c0.3,0.3,0.6,0.7,0.7,1.2c0.3,0.5,0.4,1.1,0.4,1.8c0,1.1,0.1,1.4,0.1,4S25.7,20.5,25.6,21.5L25.6,21.5z"
			/>
	</defs>
	<clipPath id="SVGID_2_">
		<use xlink:href="#SVGID_1_"  style="overflow:visible;"/>
	</clipPath>
	
		<radialGradient id="SVGID_3_" cx="11.4683" cy="65.2234" r="25.7973" gradientTransform="matrix(-1.836970e-16 -1 -1 1.836970e-16 73.25 35)" gradientUnits="userSpaceOnUse">
		<stop  offset="0" style="stop-color:#FAED24"/>
		<stop  offset="3.569664e-02" style="stop-color:#F9E626"/>
		<stop  offset="8.854577e-02" style="stop-color:#F8D828"/>
		<stop  offset="0.152" style="stop-color:#F6C229"/>
		<stop  offset="0.2238" style="stop-color:#F3A22A"/>
		<stop  offset="0.3014" style="stop-color:#F17A28"/>
		<stop  offset="0.35" style="stop-color:#F15B27"/>
		<stop  offset="0.5" style="stop-color:#D41C5C"/>
		<stop  offset="0.8" style="stop-color:#932A8E"/>
		<stop  offset="1" style="stop-color:#932A8E"/>
	</radialGradient>
	<polygon class="st0" points="27.5,7.5 27.5,27.5 7.5,27.5 7.5,7.5 	"/>
</g>
</svg>
