<?xml version="1.0" encoding="utf-8"?>
<!-- Generator: Adobe Illustrator 21.0.0, SVG Export Plug-In . SVG Version: 6.00 Build 0)  -->
<svg version="1.1" id="Capa_1" xmlns="http://www.w3.org/2000/svg" xmlns:xlink="http://www.w3.org/1999/xlink" x="0px" y="0px"
	 viewBox="0 0 60 60" style="enable-background:new 0 0 60 60;" xml:space="preserve">
<style type="text/css">
	.st0{fill:#DF011F;}
	.st1{fill:#BF0724;}
</style>
<path class="st0" d="M26.3,22.8h0.2v-0.1l-0.4-0.2L26,22.7L26.3,22.8L26.3,22.8z M26,22.7h0.1h0v0.1L26,22.7L26,22.7z"/>
<polygon class="st0" points="33.8,29.4 33.6,29.2 33.6,29.3 "/>
<path class="st0" d="M30.3,25.6L30.3,25.6l0.1,0.2v0c0.3,0.3,0.7,0.5,1.2,0.7l-0.4-0.3L31,26.1V26l-0.3-0.2l-0.6-0.6L30,25.2
	C30,25.3,30.1,25.4,30.3,25.6L30.3,25.6z"/>
<polygon class="st0" points="30.5,34.2 30.6,34.2 30.6,34 30.5,33.6 "/>
<rect x="30.7" y="34.6" class="st0" width="0" height="0.3"/>
<polygon class="st0" points="31.6,33.6 31.6,33.6 31.6,33.6 "/>
<polygon class="st0" points="31.4,34.3 31.4,34.5 31.3,34.5 31.3,34.3 31.2,34.3 31.2,34.3 31.1,34.3 31,33.6 31,34 31,34 31,34.3 
	31,34.3 31,34.9 31.1,35.1 31.1,35.4 31.2,35.2 31.2,35 31.3,34.8 31.3,35 31.4,34.8 31.4,34.8 31.4,34.7 31.5,34.7 31.6,34.6 
	31.5,34.3 "/>
<polygon class="st0" points="30.5,34.9 30.6,35.2 30.6,34.5 30.5,34.7 "/>
<polygon class="st0" points="29.6,34.2 29.7,34.3 29.7,34.3 29.8,34.3 29.8,34 29.7,33.8 "/>
<polygon class="st0" points="30,34.3 30,33.9 29.9,33.9 29.9,34.1 29.9,34.3 29.9,34.5 29.9,34.7 29.9,34.9 29.8,35.1 29.8,35.2 
	30,35.2 30,35.1 30.1,35.1 30.1,34.5 30,34.3 "/>
<polygon class="st0" points="31.7,33.6 31.6,33.6 31.6,33.9 31.8,33.9 31.8,33.7 31.7,33.5 "/>
<polygon class="st0" points="30.4,33.6 30.4,33.9 30.3,33.9 30.3,34.3 30.3,34.3 30.4,34.3 30.4,34.3 30.4,34.3 30.5,34.5 
	30.5,34.3 30.4,34.3 "/>
<polygon class="st0" points="30,34 30,34 30,33.9 "/>
<polygon class="st0" points="30.2,33.9 30.2,34.2 30.2,34.3 30.3,34.3 30.3,33.9 "/>
<polygon class="st0" points="31.8,34.6 31.8,34.3 31.7,34.6 "/>
<polygon class="st0" points="33.1,27.9 33.2,27.9 33.2,27.8 "/>
<polygon class="st0" points="29.5,34.6 29.4,34.6 29.5,35 29.5,35 29.5,34.6 29.5,34.8 29.6,34.8 29.5,34 29.5,34.3 29.5,34.3 
	29.4,34.3 29.4,34.5 "/>
<polygon class="st0" points="33.1,30.5 33.1,30.2 33,30.2 "/>
<g>
	<path class="st0" d="M38.5,32.7l0.1-0.3l-0.2-0.4v-0.2l0.9-0.4v-0.3l-0.5-0.3L38,30h0.1L38,29.7l0.2,0.1l-0.6-0.7v-0.5l-0.5-0.1
		L37,28.3v-0.4l-0.1-0.2l-0.1-0.5l-0.5-0.7L35,25.3l-0.3-0.1l-1.3-1c-0.7-0.3-1.4-0.6-1.9-1.1v0.1l-0.3-0.2v-0.2h0.1
		c-0.2-0.2-0.3-0.4-0.4-0.6L30.5,22h-0.3v-0.3l-0.4-0.5l-0.3-0.1l-0.2-0.2l-0.7-0.4L28,19.3l-0.3-0.2L27,19.1l-0.2-0.2v-0.1h0.1
		l0.1,0.1h0.2l-0.3-0.3l-0.1-0.4h-0.1v0.1h-0.2l-0.3-0.3l-0.2,0.2l0.3,0.2h-0.2L25.6,18h-0.4v0.2h0.2l0.3,0.1l-0.1,0.3l0.3,0.4V19
		h-0.2l-0.2-0.3h-0.1v0.2l0.3,0.3h-0.1l-0.2-0.1h-0.2L25,19.2h0.2l0.2,0.2l-0.2,0.3l0.2,0.5l0.1,0.1l-0.1,0.2l-0.2,0.5l0.2,0.4
		l-0.3,0.4V22l-0.2-0.1h-0.1l0.3,0.6l-0.2,0.1v1l-0.2,0.1l-0.1,0.5l0.2,0.4l0.2,1.7v5.1l0.2,0.9l-0.1,0.3l0,0.7H25l0.1,0.3L25,34.2
		l-0.1,0.3l0.1,2.1l0.1,0.7l-0.1,0.1l-0.3,0.5l0.3-0.1v0.8l0.2,0.1l0.2,0.2L24.9,39v0.4l0.5-0.3h0.2l-0.2,0.4h0.4l-0.2,0.4V40
		l0.3,0.1l0.3,0.2h0.2l0.2,0.2l-0.3,0.3v0.1h0.3l0.3-0.1l0.2,0.1L26.6,41l0.2,0.1L27,41h0.3v0.2h-0.2l-0.1,0.2l-0.3,0.3h0.3l0.3-0.2
		l0.2,0.1l0.2,0.1v0.2L28,42h0.2l0.4-0.3l0.1,0.1l0.8-0.2l0.7-0.8l0.2-0.3l0.2-0.1l0.2-0.3l0.1,0.1h0.2L31,40l0.2-0.1l0.4-0.4h-0.3
		l0.4-0.4l0.2-0.2l0.2,0.1l0.3-0.4l0.2-0.1l1.2-1.1l0.2-0.4l0.1,0.2l0.1-0.2l0.3-0.1l0.3-0.3l0.2-0.4l0.2-0.2v0.1l0.2,0.1v-0.4
		l1.3-1.3l0.2-0.3l0.3-0.2l0.6-0.4v-0.2l0.1-0.1l0.1-0.7l0.1-0.2L38.5,32.7z M29.2,40.8L29.2,40.8L29.2,40.8L29.2,40.8z M29.4,23.5
		L29.4,23.5l0.2-0.1h0L29.4,23.5L29.4,23.5z M29.6,23.1L29.6,23.1L29.6,23h0.1V23.1z M25,32.9L25,32.9l0.2,0V33L25,33.2V32.9z
		 M30.2,25.2L30.2,25.2L30.2,25.2L30.2,25.2z M32,25.2L32,25.2L32,25.2L32,25.2h-0.2H32z M31.3,24.7h0.2v0.2L31.4,25l-0.3-0.1
		L31.3,24.7z M30.7,23L30.7,23L30.7,23L30.7,23z M30.6,23.3L30.6,23.3l0.3,0.4v0.1h-0.1l-0.4-0.4H30.6z M30.2,23.1l0.2-0.2v0.3
		l0.1,0.1h-0.3V23.1z M27.7,20.4h0.2l0.1,0.1L27.7,20.4L27.7,20.4z M27.3,19.2L27.3,19.2L27.3,19.2L27.3,19.2L27.3,19.2z M27.3,20.7
		L27.3,20.7l-0.1-0.2h0.1V20.7z M26.5,19.2L26.5,19.2l0.1,0.2l0.5,0.1v0.1L27,19.6l0.2,0.4H27l-0.2-0.1h-0.2v-0.1l-0.1-0.4V19.2z
		 M26.3,19.4L26.3,19.4l-0.2-0.1L26.3,19.4z M28.2,41.8H28v-0.2l0.2-0.2h0.1V41.8z M28.8,41.6L28.8,41.6l0.2-0.1L28.8,41.6z
		 M29.6,41.4l-0.4,0.2l0.2-0.4h0.3V41.4z M29.7,40.9L29.7,40.9l-0.2-0.1L29.7,40.9L29.7,40.9L29.7,40.9z M34,36.9L34,36.7H34V36.9z"
		/>
	<polygon class="st0" points="24.7,20.4 24.6,20.3 24.3,20.3 24.6,20.7 	"/>
</g>
<polygon class="st0" points="32.6,34.3 32.7,34.2 32.7,34 32.6,34.2 "/>
<polygon class="st0" points="32.2,34.3 32.2,34.3 32.2,34.7 32.3,34.7 32.3,34.3 32.2,34.3 "/>
<polygon class="st0" points="32,34.7 32.1,34.5 32,34.3 "/>
<rect x="31.8" y="34.3" class="st0" width="0" height="0.2"/>
<polygon class="st0" points="32.8,32.8 32.8,33.1 32.9,33 32.9,32.8 32.9,32.7 32.9,32.6 "/>
<polygon class="st0" points="32.8,33.7 32.8,33.7 32.8,33.5 "/>
<path class="st1" d="M30.1,1C14.1,1,1,13.8,1,29.9C1,45.6,14.1,58.7,29.9,59C46.2,59,59,45.9,59,30.1C59,14.1,46.2,1,30.1,1z
	 M30.2,54.7C16.5,54.7,5,43.8,5,29.9C5,16.2,15.9,4.7,29.8,4.7S55,15.9,55,29.6C55,43.5,43.8,54.7,30.2,54.7z"/>
</svg>
