<svg xmlns="http://www.w3.org/2000/svg" width="252" height="15" viewBox="0 0 252 15">
  <metadata><?xpacket begin="﻿" id="W5M0MpCehiHzreSzNTczkc9d"?>
<x:xmpmeta xmlns:x="adobe:ns:meta/" x:xmptk="Adobe XMP Core 5.6-c138 79.159824, 2016/09/14-01:09:01        ">
   <rdf:RDF xmlns:rdf="http://www.w3.org/1999/02/22-rdf-syntax-ns#">
      <rdf:Description rdf:about=""/>
   </rdf:RDF>
</x:xmpmeta>
                                                                                                    
                                                                                                    
                                                                                                    
                                                                                                    
                                                                                                    
                                                                                                    
                                                                                                    
                                                                                                    
                                                                                                    
                                                                                                    
                                                                                                    
                                                                                                    
                                                                                                    
                                                                                                    
                                                                                                    
                                                                                                    
                                                                                                    
                                                                                                    
                                                                                                    
                                                                                                    
                           
<?xpacket end="w"?></metadata>
<defs>
    <style>
      .cls-1 {
        fill: #fff;
        fill-rule: evenodd;
      }
    </style>
  </defs>
  <path id="Forma_33" data-name="Forma 33" class="cls-1" d="M294.521,120a32.2,32.2,0,0,1,12.291,2.021c3.639,1.525,5.12,3.508,5.722,4.9a5.066,5.066,0,0,1-.978,5.63,8.18,8.18,0,0,1-5.206,2.3,17.881,17.881,0,0,1-7.836-1.189,1.27,1.27,0,0,1,.869-2.386c5.427,1.979,8.955.984,10.327-.47a2.531,2.531,0,0,0,.492-2.882c-0.589-1.366-2.141-2.633-4.371-3.567a30.177,30.177,0,0,0-11.31-1.823c-21.593,0-37.366,2.594-52.621,5.1-14.412,2.371-28.026,4.61-45.586,4.61a37.556,37.556,0,0,1-12.3-1.792,17.691,17.691,0,0,1-2.769-1.248q-1.835.54-4,.974c-7.584,1.512-17.721,1.881-29.318,1.067-14.221-1-28.862-3.583-40.626-5.659-9.275-1.636-17.285-3.049-21.671-3.049-4.256,0-10.459.125-15.16,1.211a14.1,14.1,0,0,0-5.191,2.1,3.78,3.78,0,0,0-1.724,3.129,2.65,2.65,0,0,0,.984,2.226c2.371,1.922,8.284,1.2,10.362.764a1.27,1.27,0,0,1,.527,2.484,30.024,30.024,0,0,1-4.666.542c-3.546.125-6.177-.485-7.82-1.815a5.212,5.212,0,0,1-1.926-4.2,6.239,6.239,0,0,1,2.741-5.161,16.265,16.265,0,0,1,6.141-2.547c4.954-1.144,11.351-1.277,15.732-1.277,4.609,0,12.333,1.363,22.112,3.089,11.706,2.065,26.275,4.636,40.363,5.625,14.581,1.024,24.442.049,30.611-1.453a5.941,5.941,0,0,1-.761-1.027,3.568,3.568,0,0,1-.127-3.682c0.951-1.646,3.226-2.552,6.405-2.552h0.009c2.594,0,4.337.683,5.04,1.971a2.672,2.672,0,0,1-.22,2.841,9.265,9.265,0,0,1-3.984,2.984c-0.137.064-.278,0.127-0.42,0.189l0.212,0.078a35.062,35.062,0,0,0,11.446,1.644c17.353,0,30.867-2.222,45.174-4.575C256.843,122.616,272.721,120,294.521,120Zm-107.476,3.181c-0.1-.145-0.824-0.636-2.807-0.636h-0.006c-2.558,0-3.865.691-4.207,1.283a1.037,1.037,0,0,0,.128,1.142,4.945,4.945,0,0,0,1.451,1.472,13.754,13.754,0,0,0,4.884-2.494A1.7,1.7,0,0,0,187.045,123.185Z" transform="translate(-61 -120)"/>
</svg>
