<?xml version="1.0" encoding="utf-8"?>
<!-- Generator: Adobe Illustrator 21.0.0, SVG Export Plug-In . SVG Version: 6.00 Build 0)  -->
<svg version="1.1" id="Capa_1" xmlns="http://www.w3.org/2000/svg" xmlns:xlink="http://www.w3.org/1999/xlink" x="0px" y="0px"
	 viewBox="0 0 336 60" style="enable-background:new 0 0 336 60;" xml:space="preserve">
<style type="text/css">
	.st0{fill:#C7C7C7;}
	.st1{opacity:0.25;enable-background:new    ;}
</style>
<path id="Forma_15_copia_3" class="st0" d="M327.7,2.9C324.8,1.8,306.5,0,216.4,0C128.8,0,18.6,1.8,6.6,2.5c-0.8,0-2.5,1.2-4,5.3
	c-5.1,14-2.6,45.5,5.6,48.8c5.1,2,79.1,3.4,180,3.4c72.5,0,134.7-0.8,138.8-1.7c2.4-0.6,6.7-9,8.4-23
	C337.4,18.4,334.3,5.4,327.7,2.9z"/>
<path class="st1" d="M190.8,57.5h-2v-1h2V57.5z M184.8,57.5h-2v-1h2V57.5z M194.8,57.5v-1h2v1H194.8z M178.8,57.5h-2v-1h2V57.5z
	 M200.8,57.5V57v-0.5h2v1H200.8z M172.8,57.5h-2v-1h2V57.5z M206.8,57.5v-1h2v1H206.8z M166.8,57.5h-2V57v-0.5h2V57.5z M212.8,57.5
	V57v-0.5h2v1H212.8z M160.8,57.5h-2v-1h2V57.5z M218.8,57.5v-1h2v1H218.8z M154.8,57.5h-2V57v-0.5h2V57.5z M224.8,57.4v-1h2v1H224.8
	z M148.8,57.4h-2v-1h2V57.4z M230.8,57.4v-0.5v-0.5h2v1H230.8z M142.8,57.4h-2v-1h2V57.4z M236.8,57.4v-1h2v1H236.8z M136.8,57.4h-2
	v-1h2V57.4z M242.8,57.4v-0.5v-0.5h2v1H242.8z M130.8,57.3h-2v-1h2V57.3z M248.8,57.3v-1h2v1H248.8z M124.8,57.3h-2v-0.5v-0.5h2
	V57.3z M254.8,57.3v-0.5v-0.5h2v1H254.8z M118.8,57.3h-2v-1h2V57.3z M260.8,57.2v-1h2v1H260.8z M112.8,57.2h-2v-1h2V57.2z
	 M266.8,57.2v-1h2v1H266.8z M106.8,57.2h-2v-1h2V57.2z M272.8,57.1v-1h2v1H272.8z M100.8,57.1h-2v-1h2V57.1z M278.8,57.1v-1h2v1
	H278.8z M94.8,57.1h-1.9l-0.1-0.5l0.1-0.5h1.9V57.1z M284.8,57v-1h2v1H284.8z M88.8,57h-1.9l-0.1-0.5l0.1-0.5h1.9V57z M164.8,57
	v-0.5V57z M152.8,56.9v-0.5V56.9z M290.8,56.9v-1h2v1H290.8z M82.8,56.9h-2v-1h2V56.9z M76.7,56.8h-2v-1h2V56.8z M296.8,56.8v-1h2v1
	H296.8z M122.8,56.8v-0.5V56.8z M70.7,56.8h-2v-1h2V56.8z M302.8,56.7v-1h2v1H302.8z M64.7,56.7h-2v-1h2V56.7z M308.8,56.6v-1h2v1
	H308.8z M58.7,56.5h-2v-1h2V56.5z M92.8,56.5V56V56.5z M86.8,56.5V56V56.5z M314.8,56.5v-1l2-0.1v1L314.8,56.5z M52.7,56.4h-2v-1h2
	V56.4z M46.7,56.3h-2v-1h2V56.3z M320.8,56.2l-0.1-1c0.8,0,1.5-0.1,2-0.1l0.1,1C322.3,56.2,321.6,56.2,320.8,56.2z M40.7,56.1
	l-2-0.1v-1l2,0.1V56.1z M34.7,56l-2-0.1v-1l2,0.1V56z M28.7,55.7l-2-0.1v-1l2,0.1V55.7z M22.7,55.5c-0.7,0-1.4-0.1-2-0.1l0.1-1
	c0.6,0,1.3,0.1,2,0.1L22.7,55.5z M16.7,55.1c-0.7-0.1-1.4-0.1-2-0.2l0.1-1c0.6,0.1,1.3,0.1,2,0.2L16.7,55.1z M10.6,54.3
	C10,54,9.4,53.6,8.9,53l0.7-0.7c0.5,0.5,1,0.8,1.5,1L10.6,54.3z M326.6,54.2l-0.8-0.6c0.4-0.4,0.7-1,1.1-1.6l0.9,0.5
	C327.4,53.1,327,53.7,326.6,54.2z M6.5,49.6c-0.3-0.6-0.6-1.2-0.8-1.9l0.9-0.4c0.3,0.6,0.5,1.2,0.8,1.8L6.5,49.6z M329.5,48.8
	l-0.9-0.4c0.2-0.6,0.5-1.2,0.7-1.9l0.9,0.3C330,47.5,329.7,48.2,329.5,48.8z M4.4,43.9c-0.2-0.6-0.3-1.3-0.5-2l1-0.2
	C5,42.4,5.2,43,5.4,43.6L4.4,43.9z M331.4,43l-1-0.2c0.2-0.6,0.3-1.3,0.5-1.9l1,0.2C331.7,41.7,331.5,42.4,331.4,43z M3.2,38
	c-0.1-0.7-0.2-1.3-0.3-2l1-0.1c0.1,0.7,0.2,1.3,0.3,2L3.2,38z M332.6,37.1l-1-0.2c0.1-0.6,0.2-1.3,0.3-2l1,0.1
	C332.8,35.8,332.7,36.4,332.6,37.1z M2.6,31.9c0-0.7-0.1-1.3-0.1-2h1c0,0.7,0.1,1.3,0.1,2H2.6z M333.3,31.1l-1-0.1
	c0.1-0.7,0.1-1.3,0.1-2h1C333.4,29.7,333.3,30.4,333.3,31.1z M3.5,25.9h-1c0-0.7,0-1.3,0.1-2h1C3.6,24.6,3.5,25.3,3.5,25.9z
	 M332.5,25.1c0-0.7,0-1.3-0.1-2l1-0.1c0,0.7,0.1,1.3,0.1,2L332.5,25.1z M3.9,20l-1-0.1c0.1-0.7,0.2-1.3,0.3-2l1,0.1
	C4,18.7,4,19.3,3.9,20z M332,19.1c-0.1-0.7-0.2-1.3-0.3-1.9l1-0.2c0.1,0.6,0.2,1.3,0.3,2L332,19.1z M4.9,14.1l-1-0.2
	c0.2-0.7,0.3-1.3,0.5-2l1,0.3C5.2,12.8,5,13.5,4.9,14.1z M330.7,13.4c-0.2-0.6-0.5-1.2-0.7-1.8l0.9-0.4c0.3,0.6,0.5,1.2,0.8,1.9
	L330.7,13.4z M6.8,8.6L5.9,8.1C6.3,7.4,6.6,6.8,7,6.3L7.8,7C7.5,7.4,7.1,8,6.8,8.6z M327.9,8.4c-0.4-0.5-0.9-0.9-1.4-1.3l0.6-0.8
	c0.5,0.4,1.1,0.9,1.5,1.4L327.9,8.4z M324.7,6.1c-0.4-0.1-1-0.3-1.9-0.4l0.1-1c0.9,0.1,1.6,0.3,2,0.4L324.7,6.1z M11,5.7v-1
	c0.6,0,1.2,0,2-0.1v1C12.2,5.6,11.5,5.7,11,5.7z M17,5.5v-1h2v1H17z M23,5.4v-1h2v1H23z M318.9,5.3c-0.6-0.1-1.3-0.1-2-0.2l0.1-1
	c0.7,0.1,1.4,0.1,2,0.2L318.9,5.3z M29,5.2v-1h2v1H29z M35,5.1v-1h2v1H35z M41,5V4h2v1H41z M47,4.9v-1h2v1H47z M313,4.9
	c-0.6,0-1.3-0.1-2-0.1v-1c0.7,0,1.4,0.1,2,0.1V4.9z M53,4.8v-1h2v1H53z M59,4.7v-1h2v1H59z M65,4.7v-1h2v1H65z M307,4.6l-2-0.1v-1
	l2,0.1V4.6z M71,4.6v-1h2v1H71z M77,4.5v-1h2v1H77z M301,4.4l-2-0.1v-1l2,0.1V4.4z M83,4.4v-1h2v1H83z M89,4.3v-1h2v1H89z M95,4.3
	v-1h1.9L97,3.7l-0.1,0.5L95,4.3z M295,4.2l-2-0.1v-1l2,0.1V4.2z M101,4.2v-1h2v1H101z M107,4.1v-1h2v1H107z M289,4.1h-2v-1h2V4.1z
	 M113,4.1v-1h1.9l0.1,0.5v0.5H113z M119,4V3h2v1H119z M283,4h-2V3h2V4z M125,4V3h2v1H125z M131,3.9v-1h2v0.5v0.5H131z M277,3.9h-2
	v-1h2V3.9z M137,3.9v-1h2v1H137z M143,3.8v-1h2v1H143z M271,3.8h-2v-1h2V3.8z M149,3.8v-1h2v1H149z M265,3.7h-2v-1h2V3.7z M155,3.7
	v-1h2v1H155z M161.1,3.7v-1h2v1H161.1z M259.1,3.7h-2v-1h2V3.7z M167.1,3.6v-1h2v1H167.1z M253.1,3.6h-2v-1h2V3.6z M173.1,3.6v-1h2
	v1H173.1z M179.1,3.6v-1h2v1H179.1z M247.1,3.6h-2v-1h2V3.6z M185.1,3.6v-1h2v1H185.1z M241.1,3.6h-2v-1h2V3.6z M191.1,3.5v-1h2v1
	H191.1z M235.1,3.5h-2v-1h2V3.5z M197.1,3.5v-1h2v1H197.1z M229.1,3.5h-2v-1h2V3.5z M203.1,3.5v-1h2v1H203.1z M223.1,3.5h-2v-1h2
	V3.5z M209.1,3.5v-1h2v1H209.1z M217.1,3.5h-2v-1h2V3.5z"/>
</svg>
