<?xml version="1.0" encoding="utf-8"?>
<!-- Generator: Adobe Illustrator 21.0.0, SVG Export Plug-In . SVG Version: 6.00 Build 0)  -->
<svg version="1.1" id="Capa_1" xmlns="http://www.w3.org/2000/svg" xmlns:xlink="http://www.w3.org/1999/xlink" x="0px" y="0px"
	 viewBox="0 0 157 157" style="enable-background:new 0 0 157 157;" xml:space="preserve">
<style type="text/css">
	.st0{fill:#F1F1F1;}
	.st1{opacity:0.25;enable-background:new    ;}
</style>
<path id="Forma_15_copia_3" class="st0" d="M153.1,7.7c-1.4-2.9-9.9-7.7-52-7.7C60.2,0,8.7,4.7,3.1,6.5C2.7,6.7,1.9,9.7,1.2,20.4
	C-1.1,57.1,0,139.6,3.9,148.1c2.4,5.2,37,8.9,84.1,8.9c33.9,0,63-2,64.8-4.5c1.1-1.6,3.1-23.4,3.9-60.1
	C157.7,48.3,156.2,14.2,153.1,7.7z"/>
<path class="st1" d="M88.9,154.5v-1h2v1H88.9z M84.9,154.5h-2v-1h2V154.5z M94.9,154.5v-1h2v1H94.9z M78.9,154.5h-2v-1h2V154.5z
	 M100.9,154.4v-1h2v1H100.9z M72.9,154.4h-2v-1h2V154.4z M106.9,154.3v-1l2-0.1v1L106.9,154.3z M66.9,154.2l-2-0.1v-1l2,0.1V154.2z
	 M112.9,154.1v-1l2-0.1v1L112.9,154.1z M60.9,154.1l-2-0.1v-1l2,0.1V154.1z M118.9,153.9v-1l2-0.1v1L118.9,153.9z M54.9,153.8
	l-2-0.1v-1l2,0.1V153.8z M124.9,153.6l-0.1-1c0.7,0,1.3-0.1,2-0.1l0.1,1C126.3,153.5,125.6,153.5,124.9,153.6z M48.9,153.5l-2-0.1
	l0.1-1l2,0.1L48.9,153.5z M130.9,153.2l-0.1-1c0.7,0,1.3-0.1,2-0.1l0.1,1C132.3,153.1,131.6,153.1,130.9,153.2z M42.9,153.1l-2-0.1
	l0.1-1l2,0.1L42.9,153.1z M136.9,152.7l-0.1-1c0.7-0.1,1.3-0.1,2-0.2l0.1,1C138.3,152.6,137.6,152.6,136.9,152.7z M36.9,152.7
	c-0.7-0.1-1.3-0.1-2-0.2l0.1-1c0.7,0.1,1.3,0.1,2,0.2L36.9,152.7z M30.9,152.1c-0.7-0.1-1.3-0.1-2-0.2l0.1-1c0.6,0.1,1.3,0.1,2,0.2
	L30.9,152.1z M142.9,152l-0.1-1c0.7-0.1,1.4-0.2,2-0.3l0.2,1C144.3,151.8,143.6,151.9,142.9,152z M24.9,151.4
	c-0.7-0.1-1.3-0.2-2-0.3l0.1-1c0.6,0.1,1.3,0.2,2,0.3L24.9,151.4z M148.9,150.8l-0.3-0.9c0.8-0.3,1-0.5,1-0.5l0,0c0,0,0-0.1,0.1-0.3
	l1,0.3c-0.1,0.3-0.2,0.5-0.3,0.6C150.1,150.3,149.7,150.6,148.9,150.8z M19,150.5c-0.7-0.1-1.3-0.2-2-0.4l0.2-1
	c0.6,0.1,1.3,0.2,2,0.4L19,150.5z M13.1,149.2c-0.7-0.2-1.3-0.4-1.9-0.6l0.3-1c0.6,0.2,1.2,0.4,1.9,0.6L13.1,149.2z M7.4,146.9
	c-0.5-0.4-0.9-0.8-1.1-1.2c-0.1-0.2-0.1-0.3-0.2-0.6l0.9-0.3c0.1,0.2,0.1,0.3,0.2,0.5c0.1,0.3,0.4,0.6,0.8,0.9L7.4,146.9z
	 M151.4,145.3l-1-0.1c0.1-0.6,0.2-1.3,0.2-2l1,0.1C151.5,144,151.5,144.7,151.4,145.3z M5.2,141.1c-0.1-0.6-0.2-1.3-0.3-2l1-0.1
	c0.1,0.7,0.2,1.4,0.3,2L5.2,141.1z M152,139.3l-1-0.1c0.1-0.6,0.1-1.3,0.2-2l1,0.1C152.1,138,152.1,138.7,152,139.3z M4.5,135.1
	c-0.1-0.6-0.1-1.3-0.2-2l1-0.1c0.1,0.7,0.1,1.3,0.2,2L4.5,135.1z M152.5,133.3l-1-0.1c0-0.6,0.1-1.3,0.1-2l1,0.1
	C152.6,132,152.5,132.7,152.5,133.3z M4,129.1c0-0.7-0.1-1.3-0.1-2l1-0.1c0,0.7,0.1,1.3,0.1,2L4,129.1z M152.9,127.3l-1-0.1l0.1-2
	l1,0.1L152.9,127.3z M3.7,123.1l-0.1-2h1l0.1,2H3.7z M153.2,121.3l-1-0.1l0.1-2h1L153.2,121.3z M3.4,117.1l-0.1-2h1l0.1,2H3.4z
	 M153.5,115.3h-1l0.1-2h1L153.5,115.3z M3.1,111.1l-0.1-2h1l0.1,2H3.1z M153.7,109.3h-1l0.1-2h1L153.7,109.3z M2.9,105.1l-0.1-2h1
	l0.1,2H2.9z M153.9,103.3h-1l0.1-2h1L153.9,103.3z M2.8,99.1v-2h1v2H2.8z M154.1,97.3h-1v-2h1V97.3z M2.7,93.1v-2h1v2H2.7z
	 M153.2,91.3v-2h1v2H153.2z M2.6,87.1v-2h1v2H2.6z M154.4,85.3h-1v-2h1V85.3z M2.5,81.1v-2h1v2H2.5z M153.4,79.3v-2h1v1.9
	L153.4,79.3z M2.5,75v-2h1v2H2.5z M154.5,73.3h-1v-2h0.5h0.5V73.3z M3.5,69h-1v-2h1V69z M154.5,67.3h-1v-2h1V67.3z M3.5,63h-1v-2h1
	V63z M153.5,61.3v-2h1v2H153.5z M3.6,57h-1v-2h1V57z M153.4,55.3v-2h1v2H153.4z M3.7,51h-1v-2h1V51z M153.3,49.3v-2h1v2H153.3z
	 M3.8,45.1h-1v-2h1V45.1z M153.2,43.3c0-0.7,0-1.3-0.1-2h1c0,0.7,0,1.3,0.1,2H153.2z M3.9,39.1h-1L3,37h1L3.9,39.1z M152.9,37.4
	l-0.1-2h1l0.1,2H152.9z M4.2,33.1h-1l0.1-2h1L4.2,33.1z M152.6,31.4c0-0.7-0.1-1.3-0.1-2l1-0.1c0,0.7,0.1,1.3,0.1,2L152.6,31.4z
	 M4.4,27.1l-1-0.1l0.1-2l1,0.1L4.4,27.1z M152.2,25.4c-0.1-0.7-0.1-1.3-0.2-2l1-0.1c0.1,0.6,0.1,1.3,0.2,2L152.2,25.4z M4.8,21.1
	l-1-0.1c0.1-0.7,0.1-1.4,0.2-2l1,0.1C4.9,19.7,4.8,20.4,4.8,21.1z M151.7,19.4c-0.1-0.7-0.2-1.3-0.3-2l1-0.1c0.1,0.6,0.2,1.3,0.3,2
	L151.7,19.4z M5.3,15.1l-1-0.1c0.1-0.8,0.2-1.4,0.2-2l1,0.1C5.5,13.7,5.4,14.4,5.3,15.1z M150.7,13.6c-0.2-0.7-0.3-1.4-0.5-1.9
	l1-0.3c0.2,0.6,0.4,1.2,0.5,2L150.7,13.6z M149.8,10.6c-0.2-0.4-0.6-0.9-1.2-1.3l0.6-0.8c0.7,0.5,1.2,1.1,1.5,1.7L149.8,10.6z
	 M6.2,9.8l-0.3-1c0.4-0.1,1.1-0.3,2-0.5l0.2,1C7.2,9.5,6.6,9.6,6.2,9.8z M12,8.7l-0.1-1c0.6-0.1,1.3-0.2,2-0.3l0.1,1
	C13.3,8.6,12.6,8.7,12,8.7z M18,8l-0.1-1c0.6-0.1,1.3-0.1,2-0.2l0.1,1C19.3,7.9,18.6,8,18,8z M145.3,7.6c-0.6-0.2-1.2-0.4-1.9-0.6
	l0.3-1c0.7,0.2,1.3,0.4,1.9,0.6L145.3,7.6z M23.9,7.4l-0.1-1l2-0.2l0.1,1L23.9,7.4z M29.9,6.8l-0.1-1l2-0.2l0.1,1L29.9,6.8z
	 M35.9,6.3l-0.1-1l2-0.2l0.1,1L35.9,6.3z M139.6,6.1c-0.6-0.1-1.3-0.2-2-0.4l0.2-1c0.7,0.1,1.4,0.2,2,0.4L139.6,6.1z M41.9,5.9
	l-0.1-1l2-0.1l0.1,1L41.9,5.9z M47.9,5.5l-0.1-1l2-0.1l0.1,1L47.9,5.5z M133.7,5.1c-0.6-0.1-1.3-0.2-2-0.2l0.1-1
	c0.7,0.1,1.4,0.2,2,0.2L133.7,5.1z M53.8,5.1l-0.1-1l2-0.1l0.1,1L53.8,5.1z M59.8,4.7l-0.1-1l2-0.1l0.1,1L59.8,4.7z M127.7,4.5
	c-0.6-0.1-1.3-0.1-2-0.2l0.1-1c0.7,0.1,1.4,0.1,2,0.2L127.7,4.5z M65.8,4.4v-1l2-0.1v1L65.8,4.4z M71.8,4.1v-1l2-0.1v1L71.8,4.1z
	 M121.8,4.1c-0.6,0-1.3-0.1-2-0.1l0.1-1c0.7,0,1.3,0.1,2,0.1L121.8,4.1z M77.8,3.9v-1l2-0.1v1L77.8,3.9z M115.8,3.8
	c-0.7,0-1.3,0-2-0.1v-1c0.7,0,1.3,0,2,0.1V3.8z M83.8,3.7v-1l2-0.1v1L83.8,3.7z M89.8,3.6v-1h2v1H89.8z M109.8,3.6h-2v-1h2V3.6z
	 M95.8,3.5v-1h2v1H95.8z M103.8,3.5h-2v-1h2V3.5z"/>
</svg>
