<?xml version="1.0" encoding="utf-8"?>
<!-- Generator: Adobe Illustrator 21.0.0, SVG Export Plug-In . SVG Version: 6.00 Build 0)  -->
<svg version="1.1" id="Capa_1" xmlns="http://www.w3.org/2000/svg" xmlns:xlink="http://www.w3.org/1999/xlink" x="0px" y="0px"
	 viewBox="0 0 336 60" style="enable-background:new 0 0 336 60;" xml:space="preserve">
<style type="text/css">
	.st0{fill:#E8E8E8;}
	.st1{opacity:0.25;enable-background:new    ;}
</style>
<path id="Forma_15_copia_3" class="st0" d="M327.7,2.9C324.8,1.8,306.5,0,216.4,0C128.8,0,18.6,1.8,6.6,2.5c-0.8,0-2.5,1.2-4,5.3
	c-5.1,14-2.6,45.5,5.6,48.8c5.1,2,79.1,3.4,180,3.4c72.5,0,134.7-0.8,138.8-1.7c2.4-0.6,6.7-9,8.4-23
	C337.4,18.4,334.3,5.4,327.7,2.9z"/>
<path class="st1" d="M190.8,57.5h-2v-1h2V57.5z M184.8,57.5l-2,0v-1l2,0L184.8,57.5z M194.8,57.5v-1l2,0l0,1L194.8,57.5z
	 M178.8,57.5l-2,0l0-1l2,0V57.5z M200.8,57.5l0-0.5l0-0.5l2,0v1L200.8,57.5z M172.8,57.5l-2,0l0-1l2,0L172.8,57.5z M206.8,57.5l0-1
	l2,0l0,1L206.8,57.5z M166.8,57.5l-2,0l0-0.5l0-0.5l2,0L166.8,57.5z M212.8,57.5l0-0.5l0-0.5l2,0l0,1L212.8,57.5z M160.8,57.5l-2,0
	l0-1l2,0L160.8,57.5z M218.8,57.5l0-1l2,0l0,1L218.8,57.5z M154.8,57.5l-2,0l0-0.5l0-0.5l2,0L154.8,57.5z M224.8,57.4l0-1l2,0l0,1
	L224.8,57.4z M148.8,57.4l-2,0l0-1l2,0L148.8,57.4z M230.8,57.4l0-0.5l0-0.5l2,0l0,1L230.8,57.4z M142.8,57.4l-2,0l0-1l2,0
	L142.8,57.4z M236.8,57.4l0-1l2,0l0,1L236.8,57.4z M136.8,57.4l-2,0l0-1l2,0L136.8,57.4z M242.8,57.4l0-0.5l0-0.5l2,0l0,1
	L242.8,57.4z M130.8,57.3l-2,0l0-1l2,0L130.8,57.3z M248.8,57.3l0-1l2,0l0,1L248.8,57.3z M124.8,57.3l-2,0l0-0.5l0-0.5l2,0
	L124.8,57.3z M254.8,57.3l0-0.5l0-0.5l2,0l0,1L254.8,57.3z M118.8,57.3l-2,0l0-1l2,0L118.8,57.3z M260.8,57.2l0-1l2,0l0,1
	L260.8,57.2z M112.8,57.2l-2,0l0-1l2,0L112.8,57.2z M266.8,57.2l0-1l2,0l0,1L266.8,57.2z M106.8,57.2l-2,0l0-1l2,0L106.8,57.2z
	 M272.8,57.1l0-1l2,0l0,1L272.8,57.1z M100.8,57.1l-2,0l0-1l2,0L100.8,57.1z M278.8,57.1l0-1l2,0l0,1L278.8,57.1z M94.8,57.1l-1.9,0
	l-0.1-0.5l0.1-0.5l1.9,0L94.8,57.1z M284.8,57l0-1l2,0l0,1L284.8,57z M88.8,57l-1.9,0l-0.1-0.5l0.1-0.5l1.9,0L88.8,57z M164.8,57
	l0-0.5L164.8,57z M152.8,56.9l0-0.5L152.8,56.9z M290.8,56.9l0-1l2,0l0,1L290.8,56.9z M82.8,56.9l-2,0l0-1l2,0L82.8,56.9z
	 M76.7,56.8l-2,0l0-1l2,0L76.7,56.8z M296.8,56.8l0-1l2,0l0,1L296.8,56.8z M122.8,56.8l0-0.5L122.8,56.8z M70.7,56.8l-2,0l0-1l2,0
	L70.7,56.8z M302.8,56.7l0-1l2,0l0,1L302.8,56.7z M64.7,56.7l-2,0l0-1l2,0L64.7,56.7z M308.8,56.6l0-1l2,0l0,1L308.8,56.6z
	 M58.7,56.5l-2,0l0-1l2,0L58.7,56.5z M92.8,56.5l0-0.5L92.8,56.5z M86.8,56.5l0-0.5L86.8,56.5z M314.8,56.5l0-1l2-0.1l0,1
	L314.8,56.5z M52.7,56.4l-2,0l0-1l2,0L52.7,56.4z M46.7,56.3l-2,0l0-1l2,0L46.7,56.3z M320.8,56.2l-0.1-1c0.8,0,1.5-0.1,2-0.1l0.1,1
	C322.3,56.2,321.6,56.2,320.8,56.2z M40.7,56.1l-2-0.1l0-1l2,0.1L40.7,56.1z M34.7,56l-2-0.1l0-1l2,0.1L34.7,56z M28.7,55.7l-2-0.1
	l0-1l2,0.1L28.7,55.7z M22.7,55.5c-0.7,0-1.4-0.1-2-0.1l0.1-1c0.6,0,1.3,0.1,2,0.1L22.7,55.5z M16.7,55.1c-0.7-0.1-1.4-0.1-2-0.2
	l0.1-1c0.6,0.1,1.3,0.1,2,0.2L16.7,55.1z M10.6,54.3C10,54,9.4,53.6,8.9,53l0.7-0.7c0.5,0.5,1,0.8,1.5,1L10.6,54.3z M326.6,54.2
	l-0.8-0.6c0.4-0.4,0.7-1,1.1-1.6l0.9,0.5C327.4,53.1,327,53.7,326.6,54.2z M6.5,49.6c-0.3-0.6-0.6-1.2-0.8-1.9l0.9-0.4
	c0.3,0.6,0.5,1.2,0.8,1.8L6.5,49.6z M329.5,48.8l-0.9-0.4c0.2-0.6,0.5-1.2,0.7-1.9l0.9,0.3C330,47.5,329.7,48.2,329.5,48.8z
	 M4.4,43.9c-0.2-0.6-0.3-1.3-0.5-2l1-0.2c0.1,0.7,0.3,1.3,0.5,1.9L4.4,43.9z M331.4,43l-1-0.2c0.2-0.6,0.3-1.3,0.5-1.9l1,0.2
	C331.7,41.7,331.5,42.4,331.4,43z M3.2,38c-0.1-0.7-0.2-1.3-0.3-2l1-0.1c0.1,0.7,0.2,1.3,0.3,2L3.2,38z M332.6,37.1l-1-0.2
	c0.1-0.6,0.2-1.3,0.3-2l1,0.1C332.8,35.8,332.7,36.4,332.6,37.1z M2.6,31.9c0-0.7-0.1-1.3-0.1-2l1,0c0,0.7,0.1,1.3,0.1,2L2.6,31.9z
	 M333.3,31.1l-1-0.1c0.1-0.7,0.1-1.3,0.1-2l1,0C333.4,29.7,333.3,30.4,333.3,31.1z M3.5,25.9l-1,0c0-0.7,0-1.3,0.1-2l1,0
	C3.6,24.6,3.5,25.3,3.5,25.9z M332.5,25.1c0-0.7,0-1.3-0.1-2l1-0.1c0,0.7,0.1,1.3,0.1,2L332.5,25.1z M3.9,20l-1-0.1
	c0.1-0.7,0.2-1.3,0.3-2l1,0.1C4,18.7,4,19.3,3.9,20z M332,19.1c-0.1-0.7-0.2-1.3-0.3-1.9l1-0.2c0.1,0.6,0.2,1.3,0.3,2L332,19.1z
	 M4.9,14.1l-1-0.2c0.2-0.7,0.3-1.3,0.5-2l1,0.3C5.2,12.8,5,13.5,4.9,14.1z M330.7,13.4c-0.2-0.6-0.5-1.2-0.7-1.8l0.9-0.4
	c0.3,0.6,0.5,1.2,0.8,1.9L330.7,13.4z M6.8,8.6L5.9,8.1c0.4-0.7,0.7-1.3,1.1-1.8L7.8,7C7.5,7.4,7.1,8,6.8,8.6z M327.9,8.4
	c-0.4-0.5-0.9-0.9-1.4-1.3l0.6-0.8c0.5,0.4,1.1,0.9,1.5,1.4L327.9,8.4z M324.7,6.1c-0.4-0.1-1-0.3-1.9-0.4l0.1-1
	c0.9,0.1,1.6,0.3,2,0.4L324.7,6.1z M11,5.7l0-1c0.6,0,1.2,0,2-0.1l0,1C12.2,5.6,11.5,5.7,11,5.7z M17,5.5l0-1l2,0l0,1L17,5.5z
	 M23,5.4l0-1l2,0l0,1L23,5.4z M318.9,5.3c-0.6-0.1-1.3-0.1-2-0.2l0.1-1c0.7,0.1,1.4,0.1,2,0.2L318.9,5.3z M29,5.2l0-1l2,0l0,1
	L29,5.2z M35,5.1l0-1l2,0l0,1L35,5.1z M41,5l0-1l2,0l0,1L41,5z M47,4.9l0-1l2,0l0,1L47,4.9z M313,4.9c-0.6,0-1.3-0.1-2-0.1l0-1
	c0.7,0,1.4,0.1,2,0.1L313,4.9z M53,4.8l0-1l2,0l0,1L53,4.8z M59,4.7l0-1l2,0l0,1L59,4.7z M65,4.7l0-1l2,0l0,1L65,4.7z M307,4.6
	l-2-0.1l0-1l2,0.1L307,4.6z M71,4.6l0-1l2,0l0,1L71,4.6z M77,4.5l0-1l2,0l0,1L77,4.5z M301,4.4l-2-0.1l0-1l2,0.1L301,4.4z M83,4.4
	l0-1l2,0l0,1L83,4.4z M89,4.3l0-1l2,0l0,1L89,4.3z M95,4.3l0-1l1.9,0L97,3.7l-0.1,0.5L95,4.3z M295,4.2l-2-0.1l0-1l2,0.1L295,4.2z
	 M101,4.2l0-1l2,0l0,1L101,4.2z M107,4.1l0-1l2,0l0,1L107,4.1z M289,4.1l-2,0l0-1l2,0L289,4.1z M113,4.1l0-1l1.9,0l0.1,0.5L115,4.1
	L113,4.1z M119,4l0-1l2,0l0,1L119,4z M283,4l-2,0l0-1l2,0L283,4z M125,4l0-1l2,0l0,1L125,4z M131,3.9l0-1l2,0l0,0.5l0,0.5L131,3.9z
	 M277,3.9l-2,0l0-1l2,0L277,3.9z M137,3.9l0-1l2,0l0,1L137,3.9z M143,3.8l0-1l2,0l0,1L143,3.8z M271,3.8l-2,0l0-1l2,0L271,3.8z
	 M149,3.8l0-1l2,0l0,1L149,3.8z M265,3.7l-2,0l0-1l2,0L265,3.7z M155,3.7l0-1l2,0l0,1L155,3.7z M161.1,3.7l0-1l2,0l0,1L161.1,3.7z
	 M259.1,3.7l-2,0l0-1l2,0L259.1,3.7z M167.1,3.6l0-1l2,0l0,1L167.1,3.6z M253.1,3.6l-2,0l0-1l2,0L253.1,3.6z M173.1,3.6l0-1l2,0l0,1
	L173.1,3.6z M179.1,3.6l0-1l2,0l0,1L179.1,3.6z M247.1,3.6l-2,0l0-1l2,0L247.1,3.6z M185.1,3.6l0-1l2,0l0,1L185.1,3.6z M241.1,3.6
	l-2,0l0-1l2,0L241.1,3.6z M191.1,3.5l0-1l2,0l0,1L191.1,3.5z M235.1,3.5l-2,0l0-1l2,0L235.1,3.5z M197.1,3.5l0-1l2,0l0,1L197.1,3.5z
	 M229.1,3.5l-2,0l0-1l2,0L229.1,3.5z M203.1,3.5l0-1l2,0l0,1L203.1,3.5z M223.1,3.5l-2,0v-1l2,0L223.1,3.5z M209.1,3.5l0-1l2,0l0,1
	L209.1,3.5z M217.1,3.5h-2v-1h2V3.5z"/>
</svg>
