<?xml version="1.0" encoding="utf-8"?>
<!-- Generator: Adobe Illustrator 21.0.0, SVG Export Plug-In . SVG Version: 6.00 Build 0)  -->
<svg version="1.1" id="Capa_1" xmlns="http://www.w3.org/2000/svg" xmlns:xlink="http://www.w3.org/1999/xlink" x="0px" y="0px"
	 viewBox="0 0 8 9" style="enable-background:new 0 0 8 9;" xml:space="preserve">
<style type="text/css">
	.st0{fill:#BF0724;}
</style>
<path id="v" class="st0" d="M7.9,5.5L8,5.4L7.9,4.8l0-0.4c0,0,0-0.1,0-0.1c0,0,0-0.1,0-0.1l0-0.6c0,0,0-0.1,0-0.1L8,3.4L7.9,3.2
	l0-0.1L7.7,2.9L7.5,2.7c0,0-0.1,0-0.1,0h0L7.2,2.6c0,0,0,0-0.1,0H7L6.8,2.5c0,0-0.1,0-0.1,0c-0.1-0.1-0.2-0.1-0.3,0c0,0,0,0-0.1,0
	l-0.1,0H6.2L6.1,2.3c0,0-0.1,0-0.1-0.1c0,0,0,0-0.1,0L5.7,2.1L5.5,2H5.3L5.2,1.9H5.1c0,0,0,0-0.1,0L4.6,1.7H4.5L4.3,1.5H4.2
	c0,0,0,0,0,0L4.1,1.4c0,0-0.1,0-0.1,0c0,0-0.1,0-0.1,0L3.7,1.3c0,0-0.1,0-0.1,0L3.4,1.2c0,0-0.1,0-0.1,0L3,1L2.9,1c0,0-0.1,0-0.1,0
	h0L2.7,0.8c0,0-0.1-0.1-0.2-0.1l-0.1,0H2.3c0,0-0.1,0-0.1,0L2.1,0.6C2,0.5,1.9,0.5,1.8,0.5l-0.1,0H1.7l-0.1,0H1.5l0,0L1.4,0.3
	l-0.1,0c0,0,0,0,0,0h0c0,0,0,0,0,0L1.2,0.2H1l0-0.1L0.9,0H0.6L0.2,0.2L0.1,0.3c0,0,0,0.1,0,0.1c0,0,0,0.1,0,0.1l0,0.8
	c0,0,0.1,0,0.1,0l0,0l0,0.2l0.1,0.1l0,0.1l0.3,0.3l0.1,0c0.1,0,0.1,0.1,0.2,0.1l0.1,0.1h0l0.1,0c0.2,0.1,0.5,0.3,0.7,0.4l0,0
	l0.8,0.4c0.2,0.1,0.4,0.2,0.6,0.3h0.1l0.2,0.1c0.1,0,0.2,0.1,0.3,0.1c0,0,0.1,0,0.1,0c0,0,0.1,0.1,0.1,0.1L4.1,4c0,0,0,0,0.1,0
	c0,0,0,0,0.1,0l0.1,0.1l0.2,0.1h0.1l0.2,0.1l0.6,0.2h0.1c0,0,0,0,0,0L5.2,4.6L5.1,4.7L4.3,5L3.3,5.5l-0.1,0C3,5.6,2.9,5.7,2.7,5.7
	L2.5,5.8C2.5,5.9,2.4,6,2.3,6L1.9,6.1L1.4,6.3c-0.1,0-0.2,0.1-0.3,0.2L0.6,6.7h0L0.4,6.9L0.2,7.1L0.2,7.3c0,0,0,0.1,0,0.1l0,0.3
	l0,0.4l0,0.1l0,0v0.4h0.1l0,0.2L0.3,9l0.2,0c0,0,0.1,0,0.1,0l0.9-0.3c0.1,0,0.1,0,0.2,0c0.1,0,0.1,0,0.2,0h0.1c0,0,0,0,0.1,0l0.1,0
	c0,0,0.1,0,0.1,0c0,0,0,0,0,0c0.1,0,0.1,0,0.2-0.1l0.2-0.1l0.2-0.1C3,8.2,3.1,8.2,3.3,8.1L3.6,8h0l0.2-0.1C4,7.8,4,7.8,4.1,7.7
	c0.1,0,0.2-0.2,0.3-0.2c0.1,0,0.3-0.1,0.4-0.2l0.1,0c0,0,0-0.1,0.1-0.1c0,0,0.1,0,0.1,0h0l0.3-0.2C5.4,7,5.5,7,5.5,7
	c0.1,0,0.1,0,0.2-0.1L6,6.8c0,0,0,0,0,0h0l0.2-0.1c0,0,0.1-0.1,0.1-0.1l0.1,0c0.1-0.1,0.2-0.1,0.3-0.2l0,0h0.1l0,0l0.1,0
	c0.1,0,0.1,0,0.2-0.1l0.4-0.3L7.9,5.5z"/>
</svg>
