<?xml version="1.0" encoding="utf-8"?>
<!-- Generator: Adobe Illustrator 21.0.0, SVG Export Plug-In . SVG Version: 6.00 Build 0)  -->
<svg version="1.1" id="Capa_1" xmlns="http://www.w3.org/2000/svg" xmlns:xlink="http://www.w3.org/1999/xlink" x="0px" y="0px"
	 viewBox="0 0 280 50" style="enable-background:new 0 0 280 50;" xml:space="preserve">
<style type="text/css">
	.st0{fill:#E9E9E9;}
	.st1{opacity:0.7;fill:#FFFFFF;enable-background:new    ;}
</style>
<path id="Forma_15" class="st0" d="M272.6,2.5C270.2,1.6,255,0,180.2,0C107.4,0,15.9,1.5,6,2.1c-0.7,0-2.1,1-3.3,4.4
	c-4.2,11.7-2.2,38,4.7,40.7C11.5,48.9,73,50,156.8,50c60.2,0,111.8-0.6,115.2-1.4c2-0.5,5.6-7.5,6.9-19.1
	C280.6,15.4,278.1,4.5,272.6,2.5z"/>
<path class="st1" d="M157.2,47.5h-1.7v-1h1.7V47.5z M160.6,47.5v-1h1.7v1H160.6z M152.2,47.5h-1.7v-1h1.7V47.5z M147.2,47.5h-1.7v-1
	h1.7V47.5z M165.6,47.5V47v-0.5h1.7v1H165.6z M142.2,47.5h-1.7v-1h1.7V47.5z M170.6,47.5v-1h1.7v1H170.6z M175.6,47.5v-1h1.7v1
	H175.6z M137.2,47.5h-1.7V47v-0.5h1.7V47.5z M132.3,47.5h-1.7v-1h1.7V47.5z M180.6,47.5V47v-0.5h1.7v1H180.6z M127.3,47.5h-1.7v-1
	h1.7V47.5z M185.5,47.5v-1h1.7v1H185.5z M122.3,47.4h-1.7v-0.5v-0.5h1.7V47.4z M190.5,47.4v-1h1.7v1H190.5z M117.3,47.4h-1.7v-1h1.7
	V47.4z M195.5,47.4v-0.5v-0.5h1.7v1H195.5z M112.3,47.4h-1.7v-1h1.7V47.4z M200.5,47.4v-1h1.7v1H200.5z M107.3,47.4h-1.7v-0.5v-0.5
	h1.7V47.4z M205.5,47.4v-1h1.7v1H205.5z M102.3,47.3h-1.7v-1h1.7V47.3z M210.5,47.3v-0.5v-0.5h1.7v1H210.5z M97.3,47.3h-1.7v-0.5
	v-0.5h1.7V47.3z M215.5,47.3v-1h1.7v1H215.5z M92.3,47.3h-1.7v-1h1.7V47.3z M220.5,47.3l-0.1-0.5l0.1-0.5h1.6v1H220.5z M87.3,47.2
	h-1.7v-0.5v-0.5h1.7V47.2z M225.5,47.2v-1h1.7v1H225.5z M82.3,47.2h-1.7v-1h1.7V47.2z M230.5,47.2v-1h1.7v1H230.5z M77.2,47.1h-1.6
	v-0.5l0.1-0.5h1.6L77.2,47.1z M235.5,47.1v-1h1.7v1H235.5z M72.2,47.1h-1.7v-1h1.7V47.1z M240.5,47.1v-1h1.7v1H240.5z M67.2,47h-1.7
	v-1h1.7V47z M245.5,47v-1h1.7v1H245.5z M135.6,47v-0.5V47z M62.2,46.9h-1.7v-1h1.7V46.9z M120.6,46.9v-0.5V46.9z M250.5,46.9v-1h1.7
	v1H250.5z M57.2,46.9h-1.7v-1h1.7V46.9z M105.6,46.9v-0.5V46.9z M255.5,46.8v-1h1.7v1H255.5z M95.6,46.8v-0.5V46.8z M52.2,46.8h-1.7
	v-1h1.7V46.8z M85.6,46.7v-0.5V46.7z M260.5,46.7v-1h1.7v1H260.5z M47.2,46.7h-1.7v-1h1.7V46.7z M75.6,46.6v-0.5V46.6z M42.2,46.6
	h-1.7v-1h1.7V46.6z M265.5,46.5v-1c0.6,0,1.2-0.1,1.7-0.1v1C266.7,46.5,266.2,46.5,265.5,46.5z M37.2,46.5h-1.7v-1h1.7V46.5z
	 M32.2,46.3h-1.7v-1h1.7V46.3z M27.2,46.2l-1.7-0.1v-1l1.7,0.1V46.2z M22.2,46l-1.7-0.1v-1l1.7,0.1V46z M270.7,45.8l-0.4-0.8
	c0.3-0.3,0.7-0.7,1.2-1.2l0.7,0.7C271.5,45,271.1,45.5,270.7,45.8z M17.3,45.8c-0.6,0-1.2-0.1-1.7-0.1l0.1-1c0.5,0,1.1,0.1,1.7,0.1
	L17.3,45.8z M12.3,45.4c-0.7-0.1-1.2-0.1-1.7-0.2l0.1-1c0.4,0.1,1,0.1,1.7,0.2L12.3,45.4z M7.4,43.4c-0.4-0.5-0.7-1-1.1-1.6L7,41.2
	c0.3,0.6,0.7,1,1,1.5L7.4,43.4z M273.8,40.9l-0.7-0.5c0.2-0.6,0.5-1.2,0.7-1.8l0.7,0.4C274.3,39.7,274.1,40.3,273.8,40.9z M4.7,38.1
	c-0.2-0.6-0.4-1.3-0.6-1.9l0.8-0.3c0.2,0.6,0.3,1.3,0.6,1.9L4.7,38.1z M275.7,35.3l-0.8-0.3c0.2-0.6,0.3-1.2,0.4-1.9l0.8,0.2
	C276.1,34,275.9,34.6,275.7,35.3z M3.3,32.3c-0.1-0.7-0.2-1.3-0.2-2l0.8-0.1c0.1,0.7,0.2,1.3,0.2,2L3.3,32.3z M276.8,29.3l-0.8-0.2
	l0.1-0.4c0.1-0.5,0.2-1.1,0.2-1.6l0.8,0.1c-0.1,0.5-0.1,1.1-0.2,1.6L276.8,29.3z M2.7,26.3c0-0.7-0.1-1.3-0.1-2h0.8
	c0,0.7,0,1.3,0.1,2H2.7z M277.4,23.3h-0.8c0-0.5,0-1,0-1.5v-0.5h0.8v0.5C277.4,22.3,277.4,22.8,277.4,23.3z M3.5,20.2l-0.8-0.1
	c0-0.7,0.1-1.4,0.2-2l0.8,0.1C3.5,18.9,3.5,19.6,3.5,20.2z M276.3,17.4c-0.1-0.7-0.2-1.3-0.2-1.9l0.8-0.2c0.1,0.6,0.2,1.3,0.2,2
	L276.3,17.4z M4.1,14.4l-0.8-0.2c0.1-0.7,0.2-1.3,0.4-2l0.8,0.3C4.3,13.1,4.2,13.7,4.1,14.4z M275.1,11.7c-0.2-0.6-0.4-1.2-0.7-1.7
	l0.7-0.5c0.2,0.6,0.5,1.2,0.7,1.9L275.1,11.7z M5.6,8.8L4.8,8.4c0.2-0.7,0.6-1.3,0.9-1.8l0.7,0.6C6.1,7.6,5.8,8.2,5.6,8.8z
	 M272.4,7.1c-0.4-0.4-0.8-0.7-1.3-1l0.3-0.9c0.5,0.3,1,0.7,1.5,1.1L272.4,7.1z M270.2,5.6c-0.3-0.1-0.8-0.2-1.6-0.3l0.1-1
	c0.7,0.1,1.3,0.2,1.7,0.3L270.2,5.6z M8.8,5.3v-1c0.4,0,1,0,1.7-0.1v1C9.8,5.3,9.3,5.3,8.8,5.3z M13.8,5.2v-1h1.7v1H13.8z M18.8,5V4
	h1.7v1H18.8z M265.2,5c-0.5,0-1.1-0.1-1.7-0.1l0.1-1c0.6,0,1.2,0.1,1.7,0.1L265.2,5z M23.8,4.9v-1h1.7v1H23.8z M28.8,4.8v-1h1.7v1
	H28.8z M33.8,4.8v-1h1.7v1H33.8z M38.8,4.7v-1h1.7v1H38.8z M260.3,4.6l-1.7-0.1v-1l1.7,0.1V4.6z M43.8,4.6v-1h1.7v1H43.8z M48.8,4.5
	v-1h1.7v1H48.8z M53.8,4.4v-1h1.7v1H53.8z M255.3,4.4l-1.7-0.1v-1l1.7,0.1V4.4z M58.8,4.4v-1h1.7v1H58.8z M63.8,4.3v-1h1.7v1H63.8z
	 M68.8,4.2v-1h1.7v1H68.8z M250.3,4.2l-1.7-0.1v-1l1.7,0.1V4.2z M73.8,4.2v-1h1.7v1H73.8z M78.8,4.1v-1h1.6l0.1,0.5l-0.1,0.5H78.8z
	 M245.3,4.1h-1.7v-1h1.7V4.1z M83.8,4.1v-1h1.7v1H83.8z M88.8,4V3h1.6l0.1,0.5V4H88.8z M240.3,4h-1.7V3h1.7V4z M93.8,4V3h1.7v1H93.8
	z M98.8,3.9v-1h1.7v0.5v0.5H98.8z M235.3,3.9h-1.7v-1h1.7V3.9z M103.8,3.9v-1h1.7v1H103.8z M108.8,3.8v-1h1.7v0.5v0.5H108.8z
	 M230.3,3.8h-1.7v-1h1.7V3.8z M113.8,3.8v-1h1.7v1H113.8z M118.8,3.8v-1h1.7v1H118.8z M225.4,3.7h-1.7v-1h1.7V3.7z M123.8,3.7v-1
	h1.7v1H123.8z M128.8,3.7v-1h1.7v1H128.8z M220.4,3.7h-1.7v-1h1.7V3.7z M133.8,3.6v-1h1.7v1H133.8z M215.4,3.6h-1.7v-1h1.7V3.6z
	 M138.8,3.6v-1h1.7v1H138.8z M210.4,3.6h-1.7v-1h1.7V3.6z M143.8,3.6v-1h1.7v1H143.8z M148.8,3.6v-1h1.7v1H148.8z M205.4,3.6h-1.7
	v-1h1.7V3.6z M153.8,3.6v-1h1.7v1H153.8z M200.5,3.5h-1.7v-1h1.7V3.5z M158.8,3.5v-1h1.7v1H158.8z M195.5,3.5h-1.7v-1h1.7V3.5z
	 M163.8,3.5v-1h1.7v1H163.8z M190.5,3.5h-1.7v-1h1.7V3.5z M168.8,3.5v-1h1.7v1H168.8z M185.5,3.5V3V3.5z M185.4,3.5h-1.7v-1h1.7V3
	V3.5z M173.8,3.5v-1h1.7v1H173.8z M180.5,3.5h-1.7v-1h1.7V3.5z"/>
</svg>
