<?xml version="1.0" encoding="utf-8"?>
<!-- Generator: Adobe Illustrator 21.0.0, SVG Export Plug-In . SVG Version: 6.00 Build 0)  -->
<svg version="1.1" id="Capa_1" xmlns="http://www.w3.org/2000/svg" xmlns:xlink="http://www.w3.org/1999/xlink" x="0px" y="0px"
	 viewBox="0 0 336 50" style="enable-background:new 0 0 336 50;" xml:space="preserve">
<style type="text/css">
	.st0{fill:#E9E9E9;}
	.st1{opacity:0.7;fill:#FFFFFF;enable-background:new    ;}
</style>
<path id="Forma_15" class="st0" d="M327.3,2.5c-2.9-0.9-21.2-2.5-111-2.5C128.9,0,19,1.5,7.1,2.1c-0.8,0-2.5,1-4,4.4
	c-5.1,11.7-2.6,38,5.6,40.7c5,1.7,78.9,2.8,179.5,2.8c72.3,0,134.3-0.6,138.4-1.4c2.4-0.5,6.7-7.5,8.3-19.1
	C336.9,15.4,333.8,4.5,327.3,2.5z"/>
<path class="st1" d="M188.7,47.5h-2v-1h2V47.5z M192.7,47.5v-1l2,0l0,1L192.7,47.5z M182.7,47.5l-2,0v-1l2,0L182.7,47.5z
	 M176.7,47.5l-2,0l0-1l2,0V47.5z M198.7,47.5l0-0.5l0-0.5l2,0v1L198.7,47.5z M170.7,47.5l-2,0l0-1l2,0L170.7,47.5z M204.7,47.5l0-1
	l2,0l0,1L204.7,47.5z M210.7,47.5l0-1l2,0l0,1L210.7,47.5z M164.7,47.5l-2,0l0-0.5l0-0.5l2,0L164.7,47.5z M158.7,47.5l-2,0l0-1l2,0
	L158.7,47.5z M216.7,47.5l0-0.5l0-0.5l2,0l0,1L216.7,47.5z M152.7,47.5l-2,0l0-1l2,0L152.7,47.5z M222.7,47.5l0-1l2,0l0,1
	L222.7,47.5z M146.7,47.4l-2,0l0-0.5l0-0.5l2,0L146.7,47.4z M228.7,47.4l0-1l2,0l0,1L228.7,47.4z M140.7,47.4l-2,0l0-1l2,0
	L140.7,47.4z M234.7,47.4l0-0.5l0-0.5l2,0l0,1L234.7,47.4z M134.7,47.4l-2,0l0-1l2,0L134.7,47.4z M240.7,47.4l0-1l2,0l0,1
	L240.7,47.4z M128.7,47.4l-2,0l0-0.5l0-0.5l2,0L128.7,47.4z M246.7,47.4l0-1l2,0l0,1L246.7,47.4z M122.7,47.3l-2,0l0-1l2,0
	L122.7,47.3z M252.7,47.3l0-0.5l0-0.5l2,0l0,1L252.7,47.3z M116.7,47.3l-2,0l0-0.5l0-0.5l2,0L116.7,47.3z M258.7,47.3l0-1l2,0l0,1
	L258.7,47.3z M110.7,47.3l-2,0l0-1l2,0L110.7,47.3z M264.7,47.3l-0.1-0.5l0.1-0.5l1.9,0l0,1L264.7,47.3z M104.7,47.2l-2,0l0-0.5
	l0-0.5l2,0L104.7,47.2z M270.7,47.2l0-1l2,0l0,1L270.7,47.2z M98.7,47.2l-2,0l0-1l2,0L98.7,47.2z M276.7,47.2l0-1l2,0l0,1
	L276.7,47.2z M92.6,47.1l-1.9,0l0-0.5l0.1-0.5l1.9,0L92.6,47.1z M282.7,47.1l0-1l2,0l0,1L282.7,47.1z M86.6,47.1l-2,0l0-1l2,0
	L86.6,47.1z M288.7,47.1l0-1l2,0l0,1L288.7,47.1z M80.6,47l-2,0l0-1l2,0L80.6,47z M294.7,47l0-1l2,0l0,1L294.7,47z M162.7,47l0-0.5
	L162.7,47z M74.6,46.9l-2,0l0-1l2,0L74.6,46.9z M144.7,46.9l0-0.5L144.7,46.9z M300.7,46.9l0-1l2,0l0,1L300.7,46.9z M68.6,46.9l-2,0
	l0-1l2,0L68.6,46.9z M126.7,46.9l0-0.5L126.7,46.9z M306.7,46.8l0-1l2,0l0,1L306.7,46.8z M114.7,46.8l0-0.5L114.7,46.8z M62.6,46.8
	l-2,0l0-1l2,0L62.6,46.8z M102.7,46.7l0-0.5L102.7,46.7z M312.7,46.7l0-1l2,0l0,1L312.7,46.7z M56.6,46.7l-2,0l0-1l2,0L56.6,46.7z
	 M90.7,46.6l0-0.5L90.7,46.6z M50.6,46.6l-2,0l0-1l2,0L50.6,46.6z M318.7,46.5l0-1c0.7,0,1.4-0.1,2-0.1l0,1
	C320.1,46.5,319.5,46.5,318.7,46.5z M44.6,46.5l-2,0l0-1l2,0L44.6,46.5z M38.6,46.3l-2,0l0-1l2,0L38.6,46.3z M32.6,46.2l-2-0.1l0-1
	l2,0.1L32.6,46.2z M26.6,46l-2-0.1l0-1l2,0.1L26.6,46z M324.9,45.8l-0.5-0.8c0.4-0.3,0.9-0.7,1.4-1.2l0.8,0.7
	C325.9,45,325.4,45.5,324.9,45.8z M20.6,45.8c-0.7,0-1.4-0.1-2-0.1l0.1-1c0.6,0,1.3,0.1,2,0.1L20.6,45.8z M14.6,45.4
	c-0.8-0.1-1.5-0.1-2-0.2l0.1-1c0.5,0.1,1.2,0.1,2,0.2L14.6,45.4z M8.8,43.4c-0.5-0.5-0.9-1-1.3-1.6l0.8-0.6c0.4,0.6,0.8,1,1.2,1.5
	L8.8,43.4z M328.7,40.9l-0.9-0.5c0.3-0.6,0.6-1.2,0.8-1.8l0.9,0.4C329.3,39.7,329,40.3,328.7,40.9z M5.5,38.1
	c-0.2-0.6-0.5-1.3-0.7-1.9l1-0.3c0.2,0.6,0.4,1.3,0.7,1.9L5.5,38.1z M331,35.3l-1-0.3c0.2-0.6,0.4-1.2,0.5-1.9l1,0.2
	C331.4,34,331.2,34.6,331,35.3z M3.9,32.3c-0.1-0.7-0.2-1.3-0.3-2l1-0.1c0.1,0.7,0.2,1.3,0.3,2L3.9,32.3z M332.3,29.3l-1-0.2
	l0.1-0.4c0.1-0.5,0.2-1.1,0.2-1.6l1,0.1c-0.1,0.5-0.1,1.1-0.2,1.6L332.3,29.3z M3.1,26.3c0-0.7-0.1-1.3-0.1-2l1,0c0,0.7,0,1.3,0.1,2
	L3.1,26.3z M333,23.3l-1,0c0-0.5,0-1,0-1.5l0-0.5l1,0l0,0.5C333,22.3,333,22.8,333,23.3z M4.1,20.2l-1-0.1c0-0.7,0.1-1.4,0.2-2
	l1,0.1C4.1,18.9,4.1,19.6,4.1,20.2z M331.7,17.4c-0.1-0.7-0.2-1.3-0.3-1.9l1-0.2c0.1,0.6,0.2,1.3,0.3,2L331.7,17.4z M4.8,14.4
	l-1-0.2c0.1-0.7,0.3-1.3,0.5-2l1,0.3C5.1,13.1,4.9,13.7,4.8,14.4z M330.3,11.7c-0.3-0.6-0.5-1.2-0.9-1.7l0.9-0.5
	c0.3,0.6,0.6,1.2,0.9,1.9L330.3,11.7z M6.6,8.8L5.7,8.4C6,7.7,6.4,7.1,6.8,6.6l0.8,0.6C7.2,7.6,6.9,8.2,6.6,8.8z M327,7.1
	c-0.5-0.4-1-0.7-1.6-1l0.4-0.9c0.6,0.3,1.2,0.7,1.8,1.1L327,7.1z M324.3,5.6c-0.4-0.1-1-0.2-1.9-0.3l0.1-1c0.9,0.1,1.6,0.2,2,0.3
	L324.3,5.6z M10.4,5.3l0-1c0.5,0,1.2,0,2-0.1l0,1C11.6,5.3,11,5.3,10.4,5.3z M16.4,5.2l0-1l2,0l0,1L16.4,5.2z M22.5,5l0-1l2,0l0,1
	L22.5,5z M318.4,5c-0.6,0-1.3-0.1-2-0.1l0.1-1c0.7,0,1.4,0.1,2,0.1L318.4,5z M28.5,4.9l0-1l2,0l0,1L28.5,4.9z M34.5,4.8l0-1l2,0l0,1
	L34.5,4.8z M40.5,4.8l0-1l2,0l0,1L40.5,4.8z M46.5,4.7l0-1l2,0l0,1L46.5,4.7z M312.5,4.6l-2-0.1l0-1l2,0.1L312.5,4.6z M52.5,4.6l0-1
	l2,0l0,1L52.5,4.6z M58.5,4.5l0-1l2,0l0,1L58.5,4.5z M64.5,4.4l0-1l2,0l0,1L64.5,4.4z M306.5,4.4l-2-0.1l0-1l2,0.1L306.5,4.4z
	 M70.5,4.4l0-1l2,0l0,1L70.5,4.4z M76.5,4.3l0-1l2,0l0,1L76.5,4.3z M82.5,4.2l0-1l2,0l0,1L82.5,4.2z M300.5,4.2l-2-0.1l0-1l2,0.1
	L300.5,4.2z M88.5,4.2l0-1l2,0l0,1L88.5,4.2z M94.5,4.1l0-1l1.9,0l0.1,0.5l-0.1,0.5L94.5,4.1z M294.5,4.1l-2,0l0-1l2,0L294.5,4.1z
	 M100.5,4.1l0-1l2,0l0,1L100.5,4.1z M106.5,4l0-1l1.9,0l0.1,0.5l0,0.5L106.5,4z M288.5,4l-2,0l0-1l2,0L288.5,4z M112.5,4l0-1l2,0
	l0,1L112.5,4z M118.5,3.9l0-1l2,0l0,0.5l0,0.5L118.5,3.9z M282.5,3.9l-2,0l0-1l2,0L282.5,3.9z M124.5,3.9l0-1l2,0l0,1L124.5,3.9z
	 M130.5,3.8l0-1l2,0l0,0.5l0,0.5L130.5,3.8z M276.5,3.8l-2,0l0-1l2,0L276.5,3.8z M136.5,3.8l0-1l2,0l0,1L136.5,3.8z M142.5,3.8l0-1
	l2,0l0,1L142.5,3.8z M270.5,3.7l-2,0l0-1l2,0L270.5,3.7z M148.5,3.7l0-1l2,0l0,1L148.5,3.7z M154.5,3.7l0-1l2,0l0,1L154.5,3.7z
	 M264.5,3.7l-2,0l0-1l2,0L264.5,3.7z M160.5,3.6l0-1l2,0l0,1L160.5,3.6z M258.5,3.6l-2,0l0-1l2,0L258.5,3.6z M166.6,3.6l0-1l2,0l0,1
	L166.6,3.6z M252.5,3.6l-2,0l0-1l2,0L252.5,3.6z M172.6,3.6l0-1l2,0l0,1L172.6,3.6z M178.6,3.6l0-1l2,0l0,1L178.6,3.6z M246.6,3.6
	l-2,0l0-1l2,0L246.6,3.6z M184.6,3.6l0-1l2,0l0,1L184.6,3.6z M240.6,3.5l-2,0l0-1l2,0L240.6,3.5z M190.6,3.5l0-1l2,0l0,1L190.6,3.5z
	 M234.6,3.5l-2,0l0-1l2,0L234.6,3.5z M196.6,3.5l0-1l2,0l0,1L196.6,3.5z M228.6,3.5l-2,0l0-1l2,0L228.6,3.5z M202.6,3.5v-1l2,0l0,1
	L202.6,3.5z M222.6,3.5V3V3.5z M222.5,3.5l-2,0l0-1l2,0l0,0.5L222.5,3.5z M208.6,3.5v-1l2,0v1L208.6,3.5z M216.6,3.5h-2v-1h2V3.5z"
	/>
</svg>
