<?xml version="1.0" encoding="utf-8"?>
<!-- Generator: Adobe Illustrator 21.0.0, SVG Export Plug-In . SVG Version: 6.00 Build 0)  -->
<svg version="1.1" id="Capa_1" xmlns="http://www.w3.org/2000/svg" xmlns:xlink="http://www.w3.org/1999/xlink" x="0px" y="0px"
	 viewBox="0 0 630 470" style="enable-background:new 0 0 630 470;" xml:space="preserve">
<style type="text/css">
	.st0{fill:#DF011F;}
</style>
<path class="st0" d="M629.5,32.5h-0.2c1.1-15.2-3.1-26.5-11.2-28.9c-4-1.2-29.2-3.1-153-3.1C344.7,0.5,26.2,2.4,9.8,3.2
	c-1.1,0-3.4,1.3-5.5,5.6c-2.8,6-3.9,14.9-3.6,23.7H0.6v394.9c-1.1,17.5,4.2,38.2,21.4,38.2c6.9,2.3,265.6,3.9,404.4,3.9
	c99.6,0,165.1-0.9,170.6-1.9c31.1,0,29.3-10.2,31.6-26c0.3-2.1,0.5-4.1,0.6-6h0.2V32.5z"/>
</svg>
