<?xml version="1.0" encoding="utf-8"?>
<!-- Generator: Adobe Illustrator 21.0.0, SVG Export Plug-In . SVG Version: 6.00 Build 0)  -->
<svg version="1.1" id="Capa_1" xmlns="http://www.w3.org/2000/svg" xmlns:xlink="http://www.w3.org/1999/xlink" x="0px" y="0px"
	 viewBox="0 0 338 52" style="enable-background:new 0 0 338 52;" xml:space="preserve">
<style type="text/css">
	.st0{fill:#E9E9E9;}
</style>
<path class="st0" d="M189.2,52C86.9,52,14.6,50.8,9.4,49.1c-2.2-0.7-4-2.8-5.5-6.2C-0.4,33.5-0.7,16,3.2,7.1c1.6-3.6,3.5-4.9,4.8-5
	C20,1.5,129.8,0,217.3,0C302.7,0,325,1.4,328.6,2.5l0,0c7,2.2,10.4,13.5,8.3,28.1c-1.6,11.6-5.9,19.3-9.1,20
	C323.7,51.4,261.6,52,189.2,52z M217.3,2C129.9,2,20,3.5,8.1,4.1C7.8,4.1,6.4,4.8,5,7.9c-3.7,8.4-3.3,25.3,0.7,34.3
	c1.2,2.8,2.7,4.5,4.3,5.1c4.9,1.6,80.2,2.8,179.2,2.8c72.2,0,134.2-0.6,138.2-1.4c1.5-0.3,5.8-6.1,7.5-18.3c1.9-13.3-1-24-7-25.9
	l0,0C325.7,3.7,310.3,2,217.3,2z"/>
</svg>
