<?xml version="1.0" encoding="utf-8"?>
<!-- Generator: Adobe Illustrator 21.0.0, SVG Export Plug-In . SVG Version: 6.00 Build 0)  -->
<svg version="1.1" id="Capa_1" xmlns="http://www.w3.org/2000/svg" xmlns:xlink="http://www.w3.org/1999/xlink" x="0px" y="0px"
	 viewBox="0 0 630 390" style="enable-background:new 0 0 630 390;" preserveAspectRatio="none" xml:space="preserve">
<style type="text/css">
	.st0{fill:#F1F1F1;}
</style>
<path class="st0" d="M630,32.3h-0.2c1.1-15.3-3.1-26.8-11.2-29.2C614.6,2,589.4,0,465.3,0C344.7,0,25.7,1.9,9.1,2.7
	C8.1,2.7,5.7,4,3.7,8.4c-2.8,6-3.9,15-3.6,23.9H0v323.3h0.1c0.5,14.3,4.5,28.2,11.3,30.5c7,2.3,276.2,3.9,415.2,3.9
	c99.8,0,185.5-0.9,191.1-2c3.4-0.7,9.2-10.3,11.5-26.3c0.3-2.1,0.5-4.1,0.6-6.1h0.2V32.3z"/>
</svg>
