<?xml version="1.0" encoding="utf-8"?>
<!-- Generator: Adobe Illustrator 21.0.0, SVG Export Plug-In . SVG Version: 6.00 Build 0)  -->
<svg version="1.1" id="Capa_1" xmlns="http://www.w3.org/2000/svg" xmlns:xlink="http://www.w3.org/1999/xlink" x="0px" y="0px"
	 viewBox="0 0 630 500" style="enable-background:new 0 0 630 500;" preserveAspectRatio="none" xml:space="preserve">
<style type="text/css">
	.st0{fill:#E9E9E9;}
</style>
<path class="st0" d="M426.2,500c-122.9,0-406.8-1.9-414.2-5c-7.8-3.3-11.3-22.8-11.9-38.8h0l-0.1-1V41.3h0.1
	c-0.3-11.8,1-22.7,3.7-29.9C5.8,5.7,8.3,3.6,10,3.4c17-1,340.1-3.4,454.8-3.4C588.6,0,613.9,2.6,618,4.1
	c8.3,3.1,12.8,17.3,11.9,37.2h0.1v414.8h-0.3c-0.1,2.3-0.3,4.6-0.6,6.9c-2.2,20.1-7.9,33.3-12.2,34.4
	C611.3,498.9,525.8,500,426.2,500z M2,454.4l0.1,0.7c0.6,20,5,35.6,10.7,38c6.8,2.7,258.8,4.9,413.5,4.9c99.4,0,184.8-1.1,190.2-2.5
	c2.6-0.7,8.5-12.3,10.7-32.7c0.3-2.6,0.5-5.2,0.6-7.7l0.1-1h0.2V43.3h-0.3l0.1-1.1c1.1-19.2-3-33.4-10.5-36.2
	c-3.2-1.2-24.4-4-152.4-4C350.1,2,27.2,4.5,10.2,5.5c-0.6,0-2.6,1.3-4.6,6.6C3,19.3,1.7,30.3,2.1,42.3l0,1H2V454.4z"/>
</svg>
