<?xml version="1.0" encoding="utf-8"?>
<!-- Generator: Adobe Illustrator 21.0.0, SVG Export Plug-In . SVG Version: 6.00 Build 0)  -->
<svg version="1.1" id="Capa_1" xmlns="http://www.w3.org/2000/svg" xmlns:xlink="http://www.w3.org/1999/xlink" x="0px" y="0px"
	 viewBox="0 0 335 50" style="enable-background:new 0 0 335 50;" xml:space="preserve">
<style type="text/css">
	.st0{fill:#E9E9E9;}
	.st1{opacity:0.25;enable-background:new    ;}
</style>
<path id="Forma_15" class="st0" d="M326.8,2.5c-2.9-0.9-21.2-2.5-111-2.5C128.4,0,18.6,1.5,6.6,2.1c-0.8,0-2.5,1-4,4.4
	c-5.1,11.7-2.6,38,5.6,40.7c5,1.7,78.9,2.8,179.5,2.8c72.3,0,134.3-0.7,138.4-1.4c2.4-0.5,6.7-7.5,8.3-19.2
	C336.4,15.4,333.3,4.5,326.8,2.5z"/>
<path class="st1" d="M188.2,47.5h-2v-1h2V47.5z M192.2,47.5v-1l2,0l0,1L192.2,47.5z M182.2,47.5l-2,0v-1l2,0L182.2,47.5z
	 M176.2,47.5l-2,0l0-1l2,0V47.5z M198.2,47.5l0-0.5l0-0.5l2,0v1L198.2,47.5z M204.2,47.5l0-1l2,0l0,1L204.2,47.5z M170.2,47.5l-2,0
	l0-1l2,0L170.2,47.5z M164.2,47.5l-2,0l0-0.5l0-0.5l2,0L164.2,47.5z M210.2,47.5l0-1l2,0l0,1L210.2,47.5z M158.2,47.5l-2,0l0-1l2,0
	L158.2,47.5z M216.2,47.5l0-0.5l0-0.5l2,0l0,1L216.2,47.5z M152.2,47.5l-2,0l0-1l2,0L152.2,47.5z M222.2,47.5l0-1l2,0l0,1
	L222.2,47.5z M228.2,47.4l0-1l2,0l0,1L228.2,47.4z M146.2,47.4l-2,0l0-0.5l0-0.5l2,0L146.2,47.4z M140.2,47.4l-2,0l0-1l2,0
	L140.2,47.4z M234.2,47.4l0-0.5l0-0.5l2,0l0,1L234.2,47.4z M134.2,47.4l-2,0l0-1l2,0L134.2,47.4z M240.2,47.4l0-1l2,0l0,1
	L240.2,47.4z M128.2,47.4l-2,0l0-0.5l0-0.5l2,0L128.2,47.4z M246.2,47.4l0-1l2,0l0,1L246.2,47.4z M122.2,47.3l-2,0l0-1l2,0
	L122.2,47.3z M252.2,47.3l0-0.5l0-0.5l2,0l0,1L252.2,47.3z M116.2,47.3l-2,0l0-0.5l0-0.5l2,0L116.2,47.3z M258.2,47.3l0-1l2,0l0,1
	L258.2,47.3z M110.2,47.3l-2,0l0-1l2,0L110.2,47.3z M264.3,47.3l-0.1-0.5l0.1-0.5l1.9,0l0,1L264.3,47.3z M104.2,47.2l-2,0l0-0.5
	l0-0.5l2,0L104.2,47.2z M270.2,47.2l0-1l2,0l0,1L270.2,47.2z M98.2,47.2l-2,0l0-1l2,0L98.2,47.2z M276.2,47.2l0-1l2,0l0,1
	L276.2,47.2z M92.2,47.1l-1.9,0l0-0.5l0.1-0.5l1.9,0L92.2,47.1z M282.2,47.1l0-1l2,0l0,1L282.2,47.1z M86.2,47.1l-2,0l0-1l2,0
	L86.2,47.1z M288.2,47.1l0-1l2,0l0,1L288.2,47.1z M80.2,47l-2,0l0-1l2,0L80.2,47z M294.2,47l0-1l2,0l0,1L294.2,47z M162.2,47l0-0.5
	L162.2,47z M74.2,46.9l-2,0l0-1l2,0L74.2,46.9z M144.2,46.9l0-0.5L144.2,46.9z M300.2,46.9l0-1l2,0l0,1L300.2,46.9z M68.2,46.9l-2,0
	l0-1l2,0L68.2,46.9z M126.2,46.9l0-0.5L126.2,46.9z M306.2,46.8l0-1l2,0l0,1L306.2,46.8z M114.2,46.8l0-0.5L114.2,46.8z M62.2,46.8
	l-2,0l0-1l2,0L62.2,46.8z M102.2,46.7l0-0.5L102.2,46.7z M312.3,46.7l0-1l2,0l0,1L312.3,46.7z M56.2,46.7l-2,0l0-1l2,0L56.2,46.7z
	 M90.2,46.6l0-0.5L90.2,46.6z M50.2,46.6l-2,0l0-1l2,0L50.2,46.6z M318.3,46.5l0-1c0.7,0,1.4-0.1,2-0.1l0,1
	C319.7,46.5,319,46.5,318.3,46.5z M44.2,46.5l-2,0l0-1l2,0L44.2,46.5z M38.2,46.3l-2,0l0-1l2,0L38.2,46.3z M32.2,46.2l-2-0.1l0-1
	l2,0.1L32.2,46.2z M26.2,46c-0.7,0-1.4,0-2-0.1l0-1c0.6,0,1.3,0,2,0.1L26.2,46z M324.4,45.8l-0.5-0.8c0.4-0.3,0.9-0.7,1.4-1.2
	l0.8,0.7C325.5,45,324.9,45.4,324.4,45.8z M20.1,45.8c-0.7,0-1.4-0.1-2-0.1l0.1-1c0.6,0,1.3,0.1,2,0.1L20.1,45.8z M14.1,45.4
	c-0.8-0.1-1.5-0.1-2-0.2l0.1-1c0.5,0.1,1.2,0.1,2,0.2L14.1,45.4z M8.3,43.4c-0.5-0.5-0.9-1-1.3-1.6l0.8-0.6c0.4,0.6,0.8,1,1.2,1.5
	L8.3,43.4z M328.3,40.9l-0.9-0.5c0.3-0.6,0.6-1.2,0.8-1.8l0.9,0.4C328.8,39.7,328.6,40.3,328.3,40.9z M5.1,38.1
	c-0.2-0.6-0.5-1.3-0.7-1.9l1-0.3c0.2,0.6,0.4,1.3,0.7,1.9L5.1,38.1z M330.5,35.2l-1-0.3c0.2-0.6,0.4-1.2,0.5-1.9l1,0.2
	C330.9,34,330.7,34.6,330.5,35.2z M3.4,32.3c-0.1-0.7-0.2-1.3-0.3-2l1-0.1c0.1,0.7,0.2,1.3,0.3,2L3.4,32.3z M331.9,29.3l-1-0.2
	l0.1-0.4c0.1-0.5,0.2-1.1,0.2-1.6l1,0.1c-0.1,0.5-0.1,1.1-0.2,1.6L331.9,29.3z M2.6,26.2c0-0.7-0.1-1.3-0.1-2l1,0c0,0.7,0,1.3,0.1,2
	L2.6,26.2z M332.5,23.3l-1,0c0-0.5,0-1,0-1.5l0-0.5l1,0l0,0.5C332.5,22.3,332.5,22.8,332.5,23.3z M3.6,20.2l-1-0.1
	c0-0.7,0.1-1.4,0.2-2l1,0.1C3.7,18.9,3.6,19.6,3.6,20.2z M331.2,17.4c-0.1-0.7-0.2-1.3-0.3-1.9l1-0.2c0.1,0.6,0.2,1.3,0.3,2
	L331.2,17.4z M4.3,14.4l-1-0.2c0.1-0.7,0.3-1.3,0.5-2l1,0.3C4.6,13.1,4.4,13.7,4.3,14.4z M329.8,11.7c-0.3-0.6-0.5-1.2-0.9-1.7
	l0.9-0.5c0.3,0.6,0.6,1.2,0.9,1.8L329.8,11.7z M6.1,8.8L5.2,8.4c0.3-0.7,0.7-1.3,1.1-1.8l0.8,0.6C6.8,7.6,6.4,8.2,6.1,8.8z
	 M326.5,7.1c-0.5-0.4-1-0.7-1.6-1l0.4-0.9c0.6,0.3,1.2,0.7,1.8,1.1L326.5,7.1z M323.8,5.6c-0.4-0.1-1-0.2-1.9-0.3l0.1-1
	c0.9,0.1,1.6,0.2,2,0.4L323.8,5.6z M10,5.3l0-1c0.5,0,1.2,0,2-0.1l0,1C11.2,5.3,10.5,5.3,10,5.3z M16,5.2l0-1l2,0l0,1L16,5.2z M22,5
	l0-1l2,0l0,1L22,5z M318,5c-0.6,0-1.3-0.1-2-0.1l0.1-1c0.7,0,1.4,0.1,2,0.1L318,5z M28,4.9l0-1l2,0l0,1L28,4.9z M34,4.8l0-1l2,0l0,1
	L34,4.8z M40,4.7l0-1l2,0l0,1L40,4.7z M46,4.7l0-1l2,0l0,1L46,4.7z M312,4.6l-2-0.1l0-1l2,0.1L312,4.6z M52,4.6l0-1l2,0l0,1L52,4.6z
	 M58,4.5l0-1l2,0l0,1L58,4.5z M64,4.4l0-1l2,0l0,1L64,4.4z M306,4.4l-2-0.1l0-1l2,0.1L306,4.4z M70,4.4l0-1l2,0l0,1L70,4.4z M76,4.3
	l0-1l2,0l0,1L76,4.3z M82,4.2l0-1l2,0l0,1L82,4.2z M300,4.2l-2-0.1l0-1l2,0.1L300,4.2z M88,4.2l0-1l2,0l0,1L88,4.2z M94,4.1l0-1
	l1.9,0L96,3.6L96,4.1L94,4.1z M294,4.1l-2,0l0-1l2,0L294,4.1z M100,4.1l0-1l2,0l0,1L100,4.1z M106,4l0-1l1.9,0l0.1,0.5l0,0.5L106,4z
	 M288,4l-2,0l0-1l2,0L288,4z M112,4l0-1l2,0l0,1L112,4z M118,3.9l0-1l2,0l0,0.5l0,0.5L118,3.9z M282.1,3.9l-2,0l0-1l2,0L282.1,3.9z
	 M124,3.9l0-1l2,0l0,1L124,3.9z M130,3.8l0-1l2,0l0,0.5l0,0.5L130,3.8z M276.1,3.8l-2,0l0-1l2,0L276.1,3.8z M136,3.8l0-1l2,0l0,1
	L136,3.8z M142.1,3.8l0-1l2,0l0,1L142.1,3.8z M270.1,3.7l-2,0l0-1l2,0L270.1,3.7z M148.1,3.7l0-1l2,0l0,1L148.1,3.7z M154.1,3.7l0-1
	l2,0l0,1L154.1,3.7z M264.1,3.7l-2,0l0-1l2,0L264.1,3.7z M160.1,3.6l0-1l2,0l0,1L160.1,3.6z M258.1,3.6l-2,0l0-1l2,0L258.1,3.6z
	 M166.1,3.6l0-1l2,0l0,1L166.1,3.6z M252.1,3.6l-2,0l0-1l2,0L252.1,3.6z M172.1,3.6l0-1l2,0l0,1L172.1,3.6z M178.1,3.6l0-1l2,0l0,1
	L178.1,3.6z M246.1,3.6l-2,0l0-1l2,0L246.1,3.6z M184.1,3.6l0-1l2,0l0,1L184.1,3.6z M240.1,3.5l-2,0l0-1l2,0L240.1,3.5z M190.1,3.5
	l0-1l2,0l0,1L190.1,3.5z M234.1,3.5l-2,0l0-1l2,0L234.1,3.5z M196.1,3.5l0-1l2,0l0,1L196.1,3.5z M228.1,3.5l-2,0l0-1l2,0L228.1,3.5z
	 M202.1,3.5v-1l2,0l0,1L202.1,3.5z M222.1,3.5V3V3.5z M222.1,3.5l-2,0l0-1l2,0l0,0.5L222.1,3.5z M208.1,3.5v-1l2,0v1L208.1,3.5z
	 M216.1,3.5h-2v-1h2V3.5z"/>
</svg>
