<?xml version="1.0" encoding="utf-8"?>
<!-- Generator: Adobe Illustrator 21.0.0, SVG Export Plug-In . SVG Version: 6.00 Build 0)  -->
<svg version="1.1" id="Capa_1" xmlns="http://www.w3.org/2000/svg" xmlns:xlink="http://www.w3.org/1999/xlink" x="0px" y="0px"
	 viewBox="0 0 8 9" style="enable-background:new 0 0 8 9;" xml:space="preserve">
<style type="text/css">
	.st0{fill:#DF011F;}
</style>
<path id="x" class="st0" d="M7.4,2L7.4,2L7.4,2L7.4,2L7.4,2L7.3,2.1L7.2,2V1.9l0,0v0l0.1,0h0.1l0.1,0l0.1-0.1l0,0l0,0l0.1,0l0.2-0.1
	l-0.1,0l0-0.1h0.1v0l0.1,0c0,0,0,0,0-0.1l0-0.1L8,1.3H7.9L7.9,1.4l-0.1,0l0,0H7.7l0,0.1L7.6,1.6l0,0l-0.1,0l0,0l-0.1,0l0.1,0l-0.1,0
	L7.3,1.8h0l0.1-0.1l0,0l0,0l0.1,0c0,0,0.1-0.1,0.1-0.1l0.1-0.1v0h0l0,0h0c0,0,0,0,0,0l0,0l0.1-0.1l-0.1,0H7.7v0l0,0v0l0,0l-0.1,0
	l0,0l0,0l-0.1,0l0.1,0l0,0l-0.1,0v0l-0.1,0l0,0.1l0,0v0l0,0v0L7.2,1.3l0,0l0,0l0-0.1l0,0.1H7l0-0.1l0,0l0,0.1l-0.1,0c0,0,0,0,0,0v0
	l0-0.1l0,0v0l0,0h0v0l0,0l0,0l0,0l-0.1,0l0.1-0.1L6.6,1.2h0l0,0l-0.1,0l-0.1,0h0l0,0l-0.1,0l-0.1,0l-0.1,0v0L6.1,1.2L6,1.2H5.9
	c0,0,0,0-0.1,0c0.1,0,0.1,0,0.1,0l0,0l0,0l-0.1,0L5.8,1.4L5.5,1.5h0.1l0,0l-0.1,0L5.4,1.6v0l-0.1,0L5.2,1.8l0,0l0,0L5,2v0L4,3
	L3.1,1.9c0-0.1,0-0.2-0.1-0.2C3,1.7,2.9,1.6,2.8,1.5H2.7v0l-0.1,0v0c0,0,0,0,0.1,0h0l0,0l0,0l-0.1,0l0-0.1l0,0l-0.1,0l-0.1,0v0l0,0
	l0,0l0,0l-0.1,0v0L2.4,1.1h0l0,0l0.1,0.1l0,0l0,0l0,0l0.1,0v0.1l0,0l0,0l0,0l0-0.1h0l-0.1,0v0l0.1,0l0,0l0,0l0,0l0,0v0l0,0L2.2,1
	H2.2l0,0v0h0v0l0,0l0,0H1.9l0,0l0,0h0L1.8,1l0,0H1.7l-0.1,0h0l0,0l0,0l0,0l0,0L1.4,1.1v0h0l0,0l0,0l0,0h0l-0.1,0V1l0,0l0,0.1v0l0,0
	l0,0h0c0,0,0,0,0,0l-0.1,0v0H1.1l0-0.1L1,1.1l0,0l-0.1,0l0,0H0.8c0,0,0,0.1,0,0.1h0l0,0h0v0l-0.1,0l0,0l-0.1,0l0,0.1l0,0v0.1l0,0
	l0,0l0,0v0.1l0,0C0.8,2,1.1,2.4,1.4,2.7l0.1,0.1C1.7,3.1,1.8,3.3,2,3.5l0.1,0l0,0.1l0.1,0l0-0.1h0.1l0.1,0.1h0l0,0H2.1l0.3,0.4
	l0-0.1l0-0.1v0l0,0c0,0,0,0,0,0l0,0l0-0.1h0L2.6,4L2.6,4l0-0.1v0H2.5l0,0.1H2.5l0.2,0.3l0.1,0.1L2.7,4.5c0,0.1,0,0.1,0,0.2v0.1
	l-0.1,0l0,0L2.5,4.9L2.4,5l0,0.1L2.2,5.2c0,0,0,0.1,0,0.1L1.8,5.9l0,0l-0.1,0L1.6,6l0,0.2l-0.1,0L1.3,6.3c0,0,0,0.1,0,0.1l0,0.1
	L1.2,6.6l-0.1,0c0,0.1,0,0.1,0,0.2L0.9,7l0,0.1L0.7,7.3c0,0.1,0,0.1-0.1,0.2c0,0.1-0.1,0.1-0.1,0.1l0,0.1C0.4,7.8,0.3,7.9,0.3,8
	c0,0.1,0,0.2-0.1,0.3L0.1,8.4l0,0L0,8.5l0,0.1l0.1,0h0l0.1,0h0l0,0.1l0.1,0l-0.1,0l0.1,0l0,0h0.1l0,0h0.2l0,0l0.1,0l0,0h0.1v0l0,0
	l0,0l0.1,0v0h0.1l0.1-0.1l0,0l0,0h0.1v0l0.1,0l0,0h0l0.1,0l0.1,0l0.1,0l0,0h0v0l0.1,0l0,0l0,0l0.1-0.1h0l0,0l0.1-0.1H2
	C1.9,8.6,1.8,8.6,1.8,8.7h0l0,0l0,0l0.1-0.1l0.1,0l0-0.1l0.1,0l0,0l0.1,0l0,0H2.1L2,8.4L2,8.4l0.1-0.1v0l0.1-0.1l0,0l0,0h0.1
	l0.1-0.1l0,0l0.1,0l0,0L2.4,8.1l0.1,0L2.6,8l0.1-0.2L2.5,8L2.4,7.9C2.4,8,2.4,8,2.3,8l0,0l0.2-0.2l0,0h0.1v0h0l0.1-0.1V7.7l0.1,0
	l0.1-0.1L2.8,7.7l0,0l0-0.1l0,0l0,0l0.1,0l0-0.1l0.1,0C3,7.3,3.2,7.2,3.3,7l0,0C3.3,7,3.4,6.9,3.4,6.8l0,0H3.3c0,0,0.1-0.1,0.1-0.1
	l0,0l0.2-0.1c0,0,0,0,0,0l0.1,0V6.4l0.1,0h0.1v0.1l0.1,0v0.1l0.3-0.3l0.3,0.4C4.7,7,4.9,7.4,5.2,7.7C5.4,8,5.6,8.2,5.8,8.4l0.1,0.1
	C6,8.6,6.1,8.7,6.3,8.8l0,0l0.2,0.1l0,0l0.1,0v0l-0.1,0v0c0,0,0.1,0,0.1,0l0.1,0l0,0h0l0,0h0.1v0h0l0,0L7,9v0h0v0l0,0l0,0h0.1l0.1,0
	l0.1,0l0.1,0l0.1,0l0.1,0h0L7.4,8.8l0,0l0.1,0.1l0.1,0l0.1,0l0,0l0.1-0.1h0.1l0,0v0l0.1,0l0,0v0l-0.1,0l0,0h0l0.1,0l0,0h0
	c0,0,0.1-0.1,0-0.1l0-0.1c0-0.1-0.1-0.2-0.1-0.3c-0.3-0.5-0.7-1-0.9-1.5l-0.1,0l0-0.1c0-0.1-0.1-0.1-0.1-0.2L6.6,6.3
	C6.4,6.1,6.2,5.8,6.1,5.5L5.7,5l0,0L5.5,4.8L5.4,4.6l0,0l0.5-0.6l0.1-0.1v0C5.9,3.9,5.8,3.9,5.7,4l0,0v0l0,0
	c0.1-0.1,0.2-0.2,0.2-0.3l-0.1,0c0,0,0.1-0.1,0.1-0.1H6L6,3.5L6,3.4l0,0v0L6,3.3h0.1c0,0,0,0,0-0.1l0.1,0V3.1l0.1,0l0,0l0.1,0l0,0
	l0.1-0.1l0-0.1l0,0L6.4,3.1V3L6.3,3l0,0V2.9l0.1-0.1l0.1,0v0l0,0v0h0.1l0-0.1h0v0l0.1,0l0,0l0-0.1l0-0.1l0,0l0,0l0,0l0,0l0,0l0.1,0
	v0l0,0v0l0,0v0l0.1,0l0.1-0.1L7,2.2l0,0l0-0.1v0L7.2,2l0,0l0,0L7.1,2.1l0.2-0.1l0,0l-0.1,0l0,0l0.1-0.1V2z M3.1,5C3.1,5,3,5.1,3,5.2
	l0,0.1C3,5.2,3,5.1,3.1,5L3,5.2C2.9,5.4,2.8,5.5,2.7,5.7L2.5,5.9L2.4,5.9l0,0C2.3,6,2.3,6.1,2.2,6.1L2.2,6.2h0l0.1-0.1L2.3,6
	l0.2-0.2c0,0,0,0,0.1,0l0.1-0.1l0-0.1H2.5l0.4-0.4l-0.1,0v0L3.1,5L3.1,5z M7.3,1.8L7.3,1.8L7.2,1.9c0,0-0.1,0.1-0.1,0.1h0l0,0.1
	c0,0,0,0-0.1,0L7,2l0,0c0,0,0,0,0,0h0l0,0.1c-0.1,0-0.2,0.1-0.3,0.2l-0.1,0l0.1-0.1v0l0,0l0-0.1L6.9,2L7,2v0l0,0v0l0.1,0l0.1,0
	l0.1,0L7.3,1.8L7.3,1.8L7.3,1.8z M1,1.9l0,0.1l0.1,0.1l0.1,0.2l-0.1,0l-0.1,0l0,0.1l-0.1,0L1,2.2l0,0l0,0l0.1,0h0l0.1,0.1l0.1,0
	L1.1,2.1L1,1.9L1,1.9L1,2l0,0l0.1,0l0,0h0l0,0l-0.1,0l0-0.1l0,0L1,1.9L1,1.9L1,1.9L1,1.9L1,1.9L0.9,1.9v0L1,1.9z M2.3,6.2L2.3,6.2
	L2.3,6.2L2.3,6.2L2.3,6.2L2.3,6.2L2.1,6.4c0,0,0,0.1,0,0.1H2l0,0L1.9,6.6V6.5l0.2-0.2v0L2,6.4v0.1l0,0l0.1-0.1L2.3,6.2L2.3,6.2
	L2.3,6.2z M3.7,6L3.7,6L3.7,6L3.6,6.2l0.1,0l0,0l0,0.1l0,0L3.7,6.3v0l-0.1,0v0l0,0.1h0V6.2h0l0-0.1L3.7,6L3.7,6z M1.7,6.9L1.7,6.9
	L1.6,7.1l0,0.1l0,0l-0.1,0L1.4,7.3l0-0.1l0.1-0.1l0-0.1l0.1,0L1.6,7L1.7,6.9L1.7,6.9L1.7,6.9L1.7,6.9z M7,1.8L7,1.8L7,1.8L7,1.8
	C6.8,1.9,6.7,1.9,6.6,2v0h0v0l0.1-0.1l0.1-0.1L7,1.8L7,1.8L7,1.8L7,1.8z M6.2,1.4L6.2,1.4L6.2,1.4L6.2,1.4l-0.1,0l0,0l-0.1,0l0,0.1
	l0,0l0,0l0,0l-0.1,0v0l0.2-0.2L6.2,1.4L6.2,1.4L6.2,1.4L6.2,1.4L6.2,1.4z M0.7,1.4l0,0.1l0.1,0.1l0.1,0.2l0,0
	C0.8,1.7,0.7,1.6,0.7,1.6l0,0L0.7,1.4l-0.1,0v0L0.7,1.4L0.7,1.4z M1.5,7.3L1.4,7.4c0,0.1-0.1,0.1-0.1,0.2l0,0c0,0,0-0.1,0-0.1l0,0
	l0,0l0.1-0.1h0L1.5,7.3L1.5,7.3L1.5,7.3L1.5,7.3z M3.3,6.5c0,0.1-0.1,0.1-0.1,0.2l0,0L3.1,6.8H3l0-0.1l0.2-0.2L3.3,6.5L3.3,6.5
	L3.3,6.5z M3,6.6L2.8,6.8l0,0l0-0.1C2.8,6.7,2.9,6.7,3,6.6L3,6.6L3,6.6z M2.4,7.6L2.3,7.8l-0.1,0L2.4,7.6L2.4,7.6L2.4,7.6z M3.6,6
	L3.4,6.1l0,0v0L3.6,6L3.6,6L3.6,6z M2.4,8.3L2.4,8.3L2.4,8.3L2.4,8.3L2.4,8.3L2.2,8.4l-0.1,0c0,0,0,0-0.1,0.1l0,0l0.1-0.1l0,0h0l0,0
	L2.4,8.3z M2.6,7.5L2.6,7.5L2.6,7.5L2.6,7.5L2.4,7.6V7.5L2.6,7.5L2.6,7.5L2.6,7.5L2.6,7.5z M2.7,8.1L2.7,8.1L2.7,8.1L2.7,8.1
	L2.5,8.2l0,0h0.1C2.6,8.2,2.6,8.1,2.7,8.1z M3.4,6.6L3.3,6.7v0.1l-0.1,0l0.1,0l0,0l-0.1,0l0,0L3.4,6.6L3.4,6.6L3.4,6.6L3.4,6.6z
	 M1.9,6.7L1.8,6.9l0,0l0,0L1.9,6.7L1.9,6.7L1.9,6.7L1.9,6.7z M3,7.7L3,7.7L3,7.7l-0.2,0c0,0,0,0.1,0,0.1l0.1-0.1
	C2.9,7.7,2.9,7.7,3,7.7L3,7.7z M2.3,8.2L2.3,8.2L2.3,8.2L2.3,8.2L2.2,8.3l0,0.1l0,0l0,0l0.1,0L2.3,8.2z M7.3,8.9L7.3,8.9L7.3,8.9
	L7.2,9l0-0.1l0,0L7.3,8.9L7.3,8.9z M1.9,6.4L1.8,6.5l-0.1,0l0,0.1h0V6.5L1.9,6.4L1.9,6.4L1.9,6.4z M2.5,6L2.4,6.1L2.3,6.2l0,0L2.5,6
	L2.5,6z M3.5,6.2L3.3,6.3l0,0L3.5,6.2L3.5,6.2z M3.3,7.2L3.3,7.2L3.2,7.2v0.1l0,0l0-0.1L3.3,7.2z M6.7,1.7L6.7,1.7L6.5,1.7l-0.1,0
	l0,0l0.1,0L6.7,1.7L6.7,1.7z M2.1,3.3L2.1,3.3L2,3.3l0,0l0,0L2.1,3.3L2.1,3.3z M7.6,1.9L7.6,1.9l-0.2,0L7.6,1.9L7.6,1.9z M0.7,1.7
	L0.7,1.7L0.7,1.7l0,0.1h0L0.7,1.7L0.7,1.7L0.7,1.7z M6.4,2.7L6.3,2.8l0,0h0L6.4,2.7L6.4,2.7L6.4,2.7L6.4,2.7z M3.1,7.5L3.1,7.5
	L3,7.5l0,0L3.1,7.5L3.1,7.5z M2.9,1.8L2.9,1.8L2.9,1.8C2.9,1.8,2.8,1.8,2.9,1.8L2.9,1.8L2.9,1.8z M2,6.9L1.9,7.1c0,0,0,0,0,0L2,6.9
	L2,6.9z M0.6,1.4l0,0.2l-0.1,0L0.6,1.4L0.6,1.4z M6.1,3.5L6.1,3.5L6,3.6l0,0l0,0L6.1,3.5L6.1,3.5z M3.5,7.1L3.5,7.1l-0.1,0L3.5,7.1
	L3.5,7.1z M0.8,1.8C0.8,1.8,0.9,1.8,0.8,1.8l0.1,0.1H0.9l0,0L0.8,1.8L0.8,1.8L0.8,1.8L0.8,1.8z M2.8,4.8L2.8,4.8L2.8,4.8l0.1-0.1
	l0,0L2.8,4.8z M3.1,7.6L3.1,7.6L3.1,7.6L3,7.7L3.1,7.6z M3.1,4.9L3.1,4.9L3.1,4.9L3.1,4.9L3.1,4.9L3.1,4.9L3.1,4.9z M3.2,5.3
	L3.2,5.3L3.2,5.3L3.2,5.3l-0.1,0L3.2,5.3L3.2,5.3z M2.7,7.2L2.6,7.3l0,0L2.7,7.2L2.7,7.2z M5.9,1.8l-0.1,0l0,0L5.9,1.8L5.9,1.8
	L5.9,1.8z M6.5,2.8L6.5,2.8L6.4,2.9v0L6.5,2.8z M7.6,1.4L7.6,1.4L7.6,1.4L7.4,1.5l0-0.1L7.6,1.4L7.6,1.4L7.6,1.4z M5.3,1.7L5.3,1.7
	L5.3,1.7L5.3,1.7L5.3,1.7z M4.9,6.7L4.9,6.7L4.7,6.5C4.8,6.6,4.8,6.6,4.9,6.7z M6.4,8.8L6.4,8.8L6.4,8.8L6.4,8.8L6.4,8.8l-0.1,0
	L6.4,8.8z M3.2,5.1L3.2,5.1l0-0.1L3.2,5.1L3.2,5.1z M6.7,2.1L6.7,2.1L6.7,2.1l-0.1,0L6.7,2.1L6.7,2.1L6.7,2.1L6.7,2.1L6.7,2.1z
	 M6.2,3L6.2,3L6.2,3L6.2,3L6.2,3L6.2,3z M6.2,2.2L6.2,2.2L6.2,2.2L6.2,2.2L6.2,2.2z M5.7,1.7l-0.1,0L5.7,1.7L5.7,1.7L5.7,1.7z
	 M6.7,2.9L6.7,2.9L6.6,2.9L6.7,2.9z M7.9,1.6L7.9,1.6L7.9,1.6L7.9,1.6L7.9,1.6z M4.7,6.2L4.7,6.2L4.7,6.2L4.7,6.2L4.7,6.2z M2.6,3.7
	L2.6,3.7L2.6,3.7L2.6,3.7L2.6,3.7z M3.6,6.5L3.5,6.5L3.6,6.5L3.6,6.5L3.6,6.5z M1,1.6l0.1,0.1L1,1.8L1,1.6z M3.3,6.4L3.3,6.4
	L3.3,6.4L3.3,6.4L3.3,6.4L3.3,6.4L3.3,6.4z M3.8,6.4L3.8,6.4l0-0.1L3.8,6.4L3.8,6.4z M3.1,6.7L3.1,6.7L3.1,6.7L3.1,6.7
	C3.1,6.6,3.1,6.7,3.1,6.7z M2.6,1.5C2.6,1.5,2.6,1.5,2.6,1.5L2.6,1.5C2.6,1.5,2.6,1.5,2.6,1.5L2.6,1.5z M5.6,1.8L5.6,1.8L5.6,1.8
	L5.6,1.8L5.6,1.8z M2.6,6.5L2.6,6.5L2.6,6.5L2.6,6.5L2.6,6.5z M7.3,2.2L7.3,2.2L7.3,2.2l-0.1,0L7.3,2.2L7.3,2.2z M6,3.7L6,3.7L6,3.7
	L6,3.7L6,3.7z M3,7.1l0-0.1h0L3,7.1z M2.9,7.1L2.9,7.1L2.9,7.1L2.9,7.1L2.9,7.1z M1.1,1.5L1.1,1.5L1.1,1.5L1.1,1.5L1.1,1.5z
	 M6.8,2.7L6.8,2.7L6.8,2.7L6.8,2.7L6.8,2.7z M1,7.9L1,7.9L1,7.9L1,7.9z M7.4,1.3L7.4,1.3L7.4,1.3L7.4,1.3L7.4,1.3L7.4,1.3z M6.1,3.4
	L6.1,3.4L6.1,3.4L6.1,3.4L6.1,3.4L6.1,3.4z M2.6,6.6L2.6,6.6L2.6,6.6L2.6,6.6L2.6,6.6L2.6,6.6z M2.4,7.6L2.4,7.6L2.4,7.6L2.4,7.6z
	 M2.8,7.9L2.8,7.9L2.8,7.9L2.8,7.9L2.8,7.9L2.8,7.9z M5.7,1.7L5.7,1.7L5.7,1.7L5.7,1.7L5.7,1.7z M2.8,6L2.8,6L2.8,6L2.8,6L2.8,6z
	 M2.6,7.4L2.6,7.4C2.5,7.4,2.5,7.4,2.6,7.4L2.6,7.4L2.6,7.4z M1.6,2.7L1.6,2.7L1.6,2.7L1.6,2.7L1.6,2.7L1.6,2.7z M6.4,1.8L6.3,1.9
	L6.4,1.8L6.4,1.8L6.4,1.8z M7.7,1.6L7.7,1.6L7.7,1.6L7.7,1.6L7.7,1.6z M6.9,2.5L6.9,2.5L6.9,2.5L6.9,2.5L6.9,2.5L6.9,2.5z M7.3,1.7
	L7.3,1.7L7.3,1.7L7.3,1.7L7.3,1.7z M6,1.6L6,1.6L6,1.6L6,1.6L6,1.6L6,1.6z M2.3,1.1L2.3,1.1L2.3,1.1L2.3,1.1L2.3,1.1L2.3,1.1z
	 M2.5,1.2L2.5,1.2L2.5,1.2L2.5,1.2L2.5,1.2L2.5,1.2z M6.3,2.1L6.3,2.1L6.3,2.1L6.3,2.1L6.3,2.1z M3.8,6.5L3.8,6.5L3.8,6.5L3.8,6.5z
	 M3.6,5.9L3.6,6L3.6,5.9L3.6,5.9z M2.6,5.2L2.6,5.2L2.6,5.2L2.6,5.2L2.6,5.2z M6.3,2.9L6.3,2.9L6.3,2.9L6.3,2.9L6.3,2.9z M2.4,7.9
	L2.4,7.9L2.4,7.9L2.4,7.9L2.4,7.9z M2.4,6.4L2.4,6.4L2.4,6.4L2.4,6.4z M7,2.1L7,2.1L7,2.1L7,2.1L7,2.1L7,2.1z M3,6.5L3,6.5L3,6.5
	C2.9,6.5,2.9,6.5,3,6.5L3,6.5L3,6.5L3,6.5z M6.8,2.6L6.8,2.6L6.8,2.6L6.8,2.6L6.8,2.6z M6.9,2.6L6.9,2.6L6.9,2.6L6.9,2.6L6.9,2.6
	L6.9,2.6z M3,5.8L3,5.8L3,5.8L3,5.8L3,5.8z M6.2,3.4L6.2,3.4L6.2,3.4L6.2,3.4L6.2,3.4z M1.1,7.6L1.1,7.6L1.1,7.6L1.1,7.6z M2.2,6.4
	L2.2,6.4L2.2,6.4L2.2,6.4L2.2,6.4z M3.7,6.6L3.7,6.6L3.7,6.6L3.7,6.6z M2.8,1.6L2.8,1.6L2.8,1.6L2.8,1.6L2.8,1.6z M2.9,7.8L2.9,7.8
	L2.9,7.8L2.9,7.8L2.9,7.8z M1.9,3.3L1.9,3.3L1.9,3.3L1.9,3.3L1.9,3.3L1.9,3.3z M7.3,1.6L7.3,1.6L7.3,1.6L7.3,1.6L7.3,1.6z M6.5,2.7
	L6.5,2.7L6.5,2.7L6.5,2.7z M2,7L2,7L2,7L2,7L2,7z M3.1,5.7L3.1,5.7L3.1,5.7L3.1,5.7L3.1,5.7z M7,1.6L7,1.6L7,1.6L7,1.6L7,1.6z
	 M3.3,5.2C3.3,5.2,3.3,5.2,3.3,5.2L3.3,5.2L3.3,5.2z M2.2,3.6L2.2,3.6L2.2,3.6L2.2,3.6L2.2,3.6z M6.6,2.4L6.6,2.4L6.6,2.4L6.6,2.4
	L6.6,2.4z M2.4,8.3L2.4,8.3L2.4,8.3L2.4,8.3L2.4,8.3z M2.4,8.2L2.4,8.2L2.4,8.2L2.4,8.2L2.4,8.2z M6.3,1.4L6.3,1.4L6.3,1.4L6.3,1.4
	L6.3,1.4z M2.2,6.6L2.2,6.6L2.2,6.6L2.2,6.6L2.2,6.6z M6.7,2.7L6.7,2.7L6.7,2.7L6.7,2.7z M6.1,3.2L6.1,3.2L6.1,3.2L6.1,3.2L6.1,3.2
	L6.1,3.2z M1.9,7.2L1.9,7.2L1.9,7.2L1.9,7.2L1.9,7.2z M3.6,6.4L3.6,6.4L3.6,6.4L3.6,6.4z M3.5,6.1L3.5,6.1L3.5,6.1L3.5,6.1L3.5,6.1z
	 M3.6,6.9L3.6,6.9L3.6,6.9L3.6,6.9L3.6,6.9z M0.7,1.6L0.7,1.6L0.7,1.6L0.7,1.6L0.7,1.6z M6.3,3.2L6.3,3.2L6.3,3.2L6.3,3.2z M5.8,3.8
	L5.8,3.8L5.8,3.8L5.8,3.8L5.8,3.8L5.8,3.8z M6.2,1.4L6.2,1.4L6.2,1.4L6.2,1.4z M6.3,3.1L6.3,3.1L6.3,3.1L6.3,3.1L6.3,3.1z M6.8,1.7
	L6.8,1.7L6.8,1.7L6.8,1.7L6.8,1.7L6.8,1.7z M7.2,8.9L7.2,8.9L7.2,8.9L7.2,8.9L7.2,8.9L7.2,8.9z M2.1,6.6L2.1,6.6L2.1,6.6L2.1,6.6
	L2.1,6.6z M6.1,2.3L6.1,2.3L6.1,2.3L6.1,2.3L6.1,2.3z M2.6,1.4L2.6,1.4L2.6,1.4L2.6,1.4L2.6,1.4z M2.4,8L2.4,8L2.4,8L2.4,8L2.4,8z
	 M6.7,1.7L6.7,1.7L6.7,1.7L6.7,1.7L6.7,1.7z M6.9,1.7L6.9,1.7L6.9,1.7L6.9,1.7L6.9,1.7z M6.4,1.3L6.4,1.3L6.4,1.3L6.4,1.3z M7.2,1.8
	L7.2,1.8L7.2,1.8L7.2,1.8L7.2,1.8z M2.3,3.7L2.3,3.7L2.3,3.7L2.3,3.7L2.3,3.7z M5.8,1.7L5.8,1.7L5.8,1.7L5.8,1.7z M6.1,1.9L6.1,1.9
	L6.1,1.9L6.1,1.9L6.1,1.9L6.1,1.9z M5.8,3.8L5.8,3.8L5.8,3.8L5.8,3.8L5.8,3.8z M0.5,1.3L0.5,1.3L0.5,1.3L0.5,1.3z M7.1,1.7L7.1,1.7
	L7.1,1.7L7.1,1.7z M2.1,6.2L2.1,6.2L2.1,6.2L2.1,6.2L2.1,6.2z M6.6,1.9L6.6,1.9L6.6,1.9L6.6,1.9L6.6,1.9L6.6,1.9z M6.2,1.1L6.2,1.1
	L6.2,1.1L6.2,1.1z M2.2,7.8L2.2,7.8L2.2,7.8L2.2,7.8L2.2,7.8z M0.4,1.3L0.4,1.3L0.4,1.3L0.4,1.3L0.4,1.3z M6.7,1.8L6.7,1.8L6.7,1.8
	L6.7,1.8z M2.8,1.7L2.8,1.7L2.8,1.7L2.8,1.7z M6.1,1.2L6.1,1.2L6.1,1.2L6.1,1.2z M3,5.9L3,5.9L3,5.9L3,5.9L3,5.9z M2.7,6.8L2.7,6.8
	L2.7,6.8L2.7,6.8z M3,5.7L3,5.7L3,5.7L3,5.7z M2.8,5.2L2.8,5.2L2.8,5.2L2.8,5.2z M6.5,1.1L6.5,1.1L6.5,1.1L6.5,1.1z M2,6.6L2,6.6
	L2,6.6L2,6.6z M2.6,8L2.6,8L2.6,8L2.6,8z M1.6,6.9L1.6,6.9L1.6,6.9L1.6,6.9L1.6,6.9z M3.7,6.8L3.7,6.8L3.7,6.8L3.7,6.8L3.7,6.8z
	 M5.8,3.7L5.8,3.7L5.8,3.7L5.8,3.7z M7.3,1.4L7.3,1.4L7.3,1.4L7.3,1.4z M6.6,2.2L6.6,2.2L6.6,2.2L6.6,2.2z M2.3,1.2L2.3,1.2L2.3,1.2
	L2.3,1.2z M7.1,2.4L7.1,2.4L7.1,2.4L7.1,2.4z M3.4,7L3.4,7L3.4,7L3.4,7L3.4,7z M3.1,7.3L3.1,7.3L3.1,7.3L3.1,7.3z M6.3,3.3L6.3,3.3
	L6.3,3.3L6.3,3.3z M6.1,1.1L6.1,1.1L6.1,1.1L6.1,1.1z M1.6,7.2L1.6,7.2L1.6,7.2L1.6,7.2z M2.3,8.1L2.3,8.1L2.3,8.1L2.3,8.1z
	 M1.7,8.4L1.7,8.4L1.7,8.4L1.7,8.4L1.7,8.4z M5.8,3.7L5.8,3.7L5.8,3.7L5.8,3.7L5.8,3.7z M0.9,8.1L0.9,8.1L0.9,8.1L0.9,8.1z M6.1,2.3
	L6.1,2.3L6.1,2.3L6.1,2.3L6.1,2.3z M3.5,6.7L3.5,6.7L3.5,6.7L3.5,6.7z M2.5,5.8L2.5,5.8L2.5,5.8L2.5,5.8z M3.6,6.2L3.6,6.2L3.6,6.2
	C3.7,6.2,3.7,6.2,3.6,6.2z M5.9,3.6L5.9,3.6L5.9,3.6L5.9,3.6L5.9,3.6z M6.2,3.1L6.2,3.1L6.2,3.1L6.2,3.1z M2.9,7.6L2.9,7.6L2.9,7.6
	L2.9,7.6z M6.2,1.9L6.2,1.9L6.2,1.9L6.2,1.9L6.2,1.9z M3.6,6.2C3.6,6.2,3.6,6.2,3.6,6.2L3.6,6.2z M0.6,7L0.6,7L0.6,7L0.6,7L0.6,7
	l0.1-0.1L0.8,7v0.1l0,0v0l-0.1,0H0.6l-0.1,0L0.4,7.3l0,0l0,0l-0.1,0L0.2,7.4l0.1,0l0,0.1H0.2v0l-0.1,0c0,0,0,0,0,0.1l0,0.1L0,7.7
	h0.1l0.1-0.1l0.1,0l0,0h0.1l0-0.1l0.1-0.1l0,0l0.1,0l0,0l0.1,0l-0.1,0l0.1,0l0.1-0.1h0L0.6,7.3l0,0l0,0l-0.1,0c0,0-0.1,0.1-0.1,0.1
	L0.3,7.6v0h0l0,0h0c0,0,0,0,0,0l0,0L0.1,7.7l0.1,0h0.1v0l0,0v0l0,0l0.1,0l0,0l0,0l0.1,0l-0.1,0l0,0l0.1,0v0l0.1,0l0-0.1l0,0v0l0,0v0
	l0.1-0.1l0,0l0,0l0,0.1l0-0.1H1l0,0.1l0,0l0-0.1l0.1,0c0,0,0,0,0,0v0l0,0.1l0,0v0l0,0h0v0l0,0l0,0l0,0l0.1,0L1.2,7.9l0.1-0.1h0l0,0
	l0.1,0l0.1,0h0l0,0l0.1,0l0.1,0l0.1,0v0l0.1-0.1l0.1,0h0.1c0,0,0,0,0.1,0c-0.1,0-0.1,0-0.1,0l0,0l0,0l0.1,0l0.1-0.1l0.3-0.1H2.4l0,0
	l0.1,0l0.1-0.1v0l0.1,0l0.1-0.1l0,0l0,0L3,7v0L4,6l0.9,1.1c0,0.1,0,0.2,0.1,0.2C5,7.3,5.1,7.4,5.2,7.5h0.1v0l0.1,0v0c0,0,0,0-0.1,0
	h0l0,0l0,0l0.1,0l0,0.1l0,0l0.1,0l0.1,0v0l0,0l0,0l0,0l0.1,0v0l0.1,0.1h0l0,0L5.6,7.8l0,0l0,0l0,0l-0.1,0V7.7l0,0l0,0l0,0l0,0.1h0
	l0.1,0v0l-0.1,0l0,0l0,0l0,0l0,0v0l0,0l0.1,0h0.1l0,0v0h0v0l0,0l0,0h0.2l0,0l0,0h0l0.1,0l0,0h0.1l0.1,0h0l0,0l0,0l0,0l0,0l0.1-0.1v0
	h0l0,0l0,0l0,0h0l0.1,0V8l0,0l0-0.1v0l0,0l0,0h0c0,0,0,0,0,0l0.1,0v0h0.1l0,0.1l0.1,0l0,0l0.1,0l0,0h0.1c0,0,0-0.1,0-0.1h0l0,0h0v0
	l0.1,0l0,0l0.1,0l0-0.1l0,0V7.7l0,0l0,0l0,0V7.4l0,0C7.2,7,6.9,6.6,6.6,6.3L6.5,6.2C6.3,5.9,6.2,5.7,6,5.5l-0.1,0l0-0.1l-0.1,0
	l0,0.1H5.8L5.8,5.3h0l0,0h0.1L5.6,4.9l0,0.1l0,0.1v0l0,0c0,0,0,0,0,0l0,0l0,0.1h0L5.4,5l0.1,0l0,0.1v0h0.1l0-0.1h0.1L5.4,4.7
	L5.3,4.5l0.1-0.1c0-0.1,0-0.1,0-0.2V4.3l0.1,0l0,0l0.2-0.1l0.1,0l0-0.1l0.1-0.1c0,0,0-0.1,0-0.1l0.4-0.6l0,0l0.1,0L6.4,3l0-0.2
	l0.1,0l0.1-0.1c0,0,0-0.1,0-0.1l0-0.1l0.1-0.1l0.1,0c0-0.1,0-0.1,0-0.2L7.1,2l0-0.1l0.2-0.2c0-0.1,0-0.1,0.1-0.2
	c0-0.1,0.1-0.1,0.1-0.1l0-0.1C7.6,1.2,7.7,1.1,7.7,1c0-0.1,0-0.2,0.1-0.3l0.1-0.1l0,0l0.1,0l0-0.1l-0.1,0h0l-0.1,0h0l0-0.1l-0.1,0
	l0.1,0l-0.1,0l0,0H7.6l0,0H7.4l0,0l-0.1,0l0,0H7.2v0l0,0l0,0l-0.1,0v0H7.1L6.9,0.2l0,0l0,0H6.7v0l-0.1,0l0,0h0l-0.1,0l-0.1,0l-0.1,0
	l0,0h0v0l-0.1,0l0,0l0,0L6.1,0.3h0l0,0L5.9,0.4H6c0.1-0.1,0.2-0.1,0.2-0.1h0l0,0l0,0L6.1,0.4l-0.1,0l0,0.1L6,0.5l0,0l-0.1,0l0,0h0.1
	l0.1,0l0.1,0L5.9,0.7v0L5.8,0.8l0,0l0,0H5.7L5.6,0.9l0,0L5.5,1l0,0l0.1-0.1l-0.1,0L5.4,1L5.3,1.1L5.5,1l0.1,0.1C5.6,1,5.6,1,5.7,1
	l0,0L5.5,1.2l0,0H5.4v0h0L5.4,1.2v0.1l-0.1,0L5.2,1.4l0.1-0.1l0,0l0,0.1l0,0l0,0l-0.1,0l0,0.1l-0.1,0C5,1.7,4.8,1.8,4.7,2l0,0
	C4.7,2,4.6,2.1,4.6,2.2l0,0h0.1c0,0-0.1,0.1-0.1,0.1l0,0L4.4,2.5c0,0,0,0,0,0l-0.1,0v0.1l-0.1,0H4.2V2.5l-0.1,0V2.4L3.9,2.7L3.6,2.3
	C3.3,2,3.1,1.6,2.8,1.3C2.6,1,2.4,0.8,2.2,0.6L2.2,0.6C2,0.4,1.9,0.3,1.7,0.2l0,0L1.5,0.1l0,0l-0.1,0v0l0.1,0v0c0,0-0.1,0-0.1,0
	L1.3,0l0,0h0l0,0H1.2v0h0l0,0L1,0v0h0v0l0,0l0,0H0.9L0.8,0L0.8,0L0.7,0L0.6,0L0.6,0h0l0.1,0.2l0,0L0.6,0.1l-0.1,0l-0.1,0l0,0
	L0.4,0.1H0.3l0,0v0l-0.1,0l0,0v0l0.1,0l0,0h0l-0.1,0l0,0h0c0,0-0.1,0.1,0,0.1l0,0.1c0,0.1,0.1,0.2,0.1,0.3c0.3,0.5,0.7,1,0.9,1.5
	l0.1,0l0,0.1c0,0.1,0.1,0.1,0.1,0.2l0.1,0.2c0.2,0.3,0.3,0.5,0.5,0.8L2.3,4l0,0l0.1,0.2l0.2,0.2l0,0L2.2,5.1L2.1,5.2v0
	C2.1,5.1,2.2,5.1,2.3,5l0,0v0l0,0C2.2,5.1,2.1,5.2,2.1,5.3l0.1,0c0,0-0.1,0.1-0.1,0.1H2L2,5.5l0.1,0l0,0v0L2,5.7H1.9c0,0,0,0,0,0.1
	l-0.1,0v0.1l-0.1,0l0,0l-0.1,0l0,0L1.5,5.9l0,0.1l0,0l0.1-0.1V6l0.1,0l0,0v0.1L1.6,6.1l-0.1,0v0l0,0v0H1.5l0,0.1h0v0l-0.1,0l0,0
	l0,0.1L1.3,6.4l0.1,0l0,0l0,0l0,0l0,0l0,0v0l0,0v0l0,0v0l-0.1,0L1.1,6.7L1,6.8l0,0.1l0,0.1v0L0.8,7l0,0l0,0l0.1-0.1L0.8,6.9L0.6,7
	l0.2-0.1l0,0L0.6,6.9L0.6,7L0.6,7z M4.9,4C4.9,4,5,3.9,5,3.8l0-0.1C5,3.8,5,3.9,4.9,4L5,3.8c0.1-0.2,0.2-0.3,0.4-0.5l0.2-0.2
	l0.1-0.1l0,0C5.7,3,5.7,2.9,5.8,2.9l0.1-0.1h0L5.8,2.9L5.7,3L5.6,3.2c0,0,0,0-0.1,0L5.4,3.3l0,0.1h0.1L5.1,3.8l0.1,0v0L4.9,4L4.9,4z
	 M0.7,7.2L0.7,7.2l0.1-0.1c0,0,0.1-0.1,0.1-0.1h0l0-0.1c0,0,0,0,0.1,0L1,7l0,0c0,0,0,0,0,0h0l0-0.1c0.1,0,0.2-0.1,0.3-0.2l0.1,0
	L1.3,6.8v0l0,0l0,0.1L1.1,7L1,7v0l0,0v0L1,7.1l-0.1,0l-0.1,0L0.7,7.2L0.7,7.2L0.7,7.2z M7,7.1L7,7.1L6.8,6.9L6.7,6.7l0.1,0l0.1,0
	l0-0.1l0.1,0L7,6.8l0,0l0,0L7,6.8h0L6.8,6.8l-0.1,0l0.1,0.1L7,7.1L7,7.1L7,7l0,0l-0.1,0l0,0h0l0,0l0.1,0l0,0.1l0,0L7,7.1L7,7.1
	L7,7.1L7,7.1L7,7.1l0.1,0.1v0L7,7.1z M5.7,2.8L5.7,2.8L5.7,2.8L5.7,2.8L5.7,2.8L5.7,2.8l0.2-0.1c0,0,0-0.1,0-0.1H6l0,0l0.1-0.1v0.1
	L5.9,2.7v0L6,2.6V2.5l0,0L5.9,2.6L5.7,2.8L5.7,2.8L5.7,2.8z M4.3,3L4.3,3L4.3,3l0.1-0.2l-0.1,0l0,0l0-0.1l0,0l0.1-0.1v0l0.1,0v0
	l0-0.1h0v0.1h0l0,0.1L4.3,3L4.3,3z M6.3,2L6.3,2l0.1-0.1l0-0.1l0,0l0.1,0l0.1-0.1l0,0.1L6.5,1.8l0,0.1l-0.1,0L6.4,2L6.3,2L6.3,2
	L6.3,2L6.3,2z M1,7.2L1,7.2L1,7.2L1,7.2C1.2,7.1,1.2,7.1,1.4,7v0h0v0L1.3,7.1L1.2,7.2L1,7.2L1,7.2L1,7.2z M1.8,7.6L1.8,7.6L1.8,7.6
	L1.8,7.6l0.1,0l0,0l0.1,0l0-0.1l0,0l0,0l0,0l0.1,0v0L2.1,7.6L1.8,7.6L1.8,7.6L1.8,7.6L1.8,7.6L1.8,7.6z M7.3,7.6l0-0.1L7.2,7.4
	L7.1,7.2l0,0c0.1,0.1,0.1,0.1,0.1,0.2l0,0L7.3,7.6l0.1,0v0L7.3,7.6L7.3,7.6z M6.5,1.7l0.1-0.1c0-0.1,0.1-0.1,0.1-0.2l0,0
	c0,0,0,0.1,0,0.1l0,0l0,0L6.7,1.6h0L6.5,1.7L6.5,1.7L6.5,1.7L6.5,1.7z M4.7,2.5c0-0.1,0.1-0.1,0.1-0.2l0,0l0.1-0.1H5l0,0.1L4.8,2.4
	L4.7,2.5L4.7,2.5L4.7,2.5z M5,2.4l0.2-0.2l0,0l0,0.1C5.2,2.3,5.1,2.3,5,2.4L5,2.4L5,2.4z M5.6,1.4l0.1-0.2l0.1,0L5.6,1.4L5.6,1.4
	L5.6,1.4z M4.4,3l0.2-0.1l0,0v0L4.4,3L4.4,3L4.4,3z M5.6,0.7L5.6,0.7L5.6,0.7L5.6,0.7L5.6,0.7l0.1-0.1l0.1,0c0,0,0-0.1,0.1-0.1l0,0
	L5.8,0.5l0,0h0l0,0L5.6,0.7z M5.4,1.5L5.4,1.5L5.4,1.5L5.4,1.5l0.1-0.1v0.1L5.4,1.5L5.4,1.5L5.4,1.5L5.4,1.5z M5.3,0.9L5.3,0.9
	L5.3,0.9L5.3,0.9l0.2-0.1l0,0H5.5C5.4,0.8,5.4,0.9,5.3,0.9z M4.6,2.4l0.1-0.1V2.2l0.1,0l-0.1,0l0,0l0.1,0l0,0L4.6,2.4L4.6,2.4
	L4.6,2.4z M6.1,2.3l0.1-0.2l0,0l0,0L6.1,2.3L6.1,2.3L6.1,2.3L6.1,2.3z M5,1.3L5,1.3L5,1.3l0.2,0c0,0,0-0.1,0-0.1L5.2,1.2
	C5.1,1.3,5.1,1.3,5,1.3z M5.7,0.8L5.7,0.8L5.7,0.8L5.7,0.8l0.2-0.1l0-0.1l0,0l0,0l-0.1,0L5.7,0.8z M0.7,0.1L0.7,0.1L0.7,0.1L0.8,0
	l0,0.1l0,0L0.7,0.1L0.7,0.1z M6.1,2.6l0.1-0.1l0.1,0l0-0.1h0v0.1L6.1,2.6L6.1,2.6L6.1,2.6z M5.5,3l0.1-0.1l0.1-0.1l0,0L5.5,3L5.5,3z
	 M4.5,2.8l0.2-0.1l0,0L4.5,2.8L4.5,2.8z M4.7,1.8L4.7,1.8l0.2-0.1V1.7l0,0l0,0.1L4.7,1.8z M1.4,7.3L1.4,7.3l0.1-0.1l0.1,0l0,0
	l-0.1,0L1.4,7.3L1.4,7.3z M5.9,5.7L5.9,5.7L6,5.7l0,0l0,0L5.9,5.7L5.9,5.7z M0.4,7.1L0.4,7.1l0.2,0L0.4,7.1L0.4,7.1z M7.3,7.3
	L7.3,7.3L7.3,7.3l0-0.1h0L7.3,7.3L7.3,7.3L7.3,7.3z M1.6,6.3l0.1-0.1l0,0h0L1.6,6.3L1.6,6.3L1.6,6.3L1.6,6.3z M4.9,1.5l0,0.1L5,1.5
	l0,0L4.9,1.5L4.9,1.5z M5.1,7.2L5.1,7.2L5.1,7.2C5.1,7.2,5.2,7.2,5.1,7.2L5.1,7.2L5.1,7.2z M6,2.1l0.1-0.1c0,0,0,0,0,0L6,2.1L6,2.1z
	 M7.4,7.6l0-0.2l0.1,0L7.4,7.6L7.4,7.6z M1.9,5.5L1.9,5.5l0.1,0l0,0l0,0L1.9,5.5L1.9,5.5z M4.5,1.9L4.5,1.9l0.1,0L4.5,1.9L4.5,1.9z
	 M7.2,7.2C7.2,7.2,7.1,7.2,7.2,7.2L7.1,7.1h0.1l0,0L7.2,7.2L7.2,7.2L7.2,7.2L7.2,7.2L7.2,7.2z M5.2,4.2L5.2,4.2L5.2,4.2L5.2,4.4l0,0
	L5.2,4.2z M4.9,1.4L4.9,1.4L4.9,1.4L5,1.3L4.9,1.4z M4.9,4.1L4.9,4.1L4.9,4.1L4.9,4.1L4.9,4.1L4.9,4.1L4.9,4.1z M4.8,3.7L4.8,3.7
	L4.8,3.7L4.8,3.7l0.1,0L4.8,3.7L4.8,3.7z M5.3,1.8l0.1-0.2l0,0L5.3,1.8L5.3,1.8z M2.1,7.2l0.1,0l0,0L2.1,7.2L2.1,7.2L2.1,7.2z
	 M1.5,6.2L1.5,6.2l0.1-0.1v0L1.5,6.2z M0.4,7.6L0.4,7.6L0.4,7.6l0.2-0.1l0,0.1L0.4,7.6L0.4,7.6L0.4,7.6z M2.7,7.3L2.7,7.3L2.7,7.3
	L2.7,7.3L2.7,7.3z M3.2,2.3L3.2,2.3l0.1,0.1C3.2,2.4,3.2,2.4,3.2,2.3L3.2,2.3z M1.6,0.2L1.6,0.2L1.6,0.2L1.6,0.2L1.6,0.2l0.1,0
	L1.6,0.2z M4.8,3.9L4.8,3.9l0,0.1L4.8,3.9L4.8,3.9z M1.3,6.9L1.3,6.9L1.3,6.9l0.1,0L1.3,6.9L1.3,6.9L1.3,6.9L1.3,6.9L1.3,6.9z
	 M1.8,6L1.8,6L1.8,6L1.8,6L1.8,6L1.8,6z M1.8,6.8L1.8,6.8L1.8,6.8L1.8,6.8L1.8,6.8z M2.3,7.3l0.1,0L2.3,7.3L2.3,7.3L2.3,7.3z
	 M1.3,6.1L1.3,6.1l0.1-0.1L1.3,6.1z M0.1,7.4L0.1,7.4L0.1,7.4L0.1,7.4L0.1,7.4z M3.3,2.8L3.3,2.8L3.3,2.8L3.3,2.8L3.3,2.8z M5.4,5.3
	L5.4,5.3L5.4,5.3L5.4,5.3L5.4,5.3z M4.4,2.5l0.1-0.1L4.4,2.5L4.4,2.5L4.4,2.5z M7,7.4L6.9,7.2l0.1,0L7,7.4z M4.7,2.6L4.7,2.6
	L4.7,2.6L4.7,2.6L4.7,2.6L4.7,2.6L4.7,2.6z M4.2,2.6L4.2,2.6v0.1V2.6L4.2,2.6z M4.9,2.3L4.9,2.3L4.9,2.3L4.9,2.3L4.9,2.3L4.9,2.3z
	 M5.4,7.5C5.4,7.5,5.4,7.5,5.4,7.5L5.4,7.5C5.4,7.5,5.4,7.5,5.4,7.5L5.4,7.5z M2.4,7.2L2.4,7.2L2.4,7.2L2.4,7.2L2.4,7.2z M5.4,2.5
	L5.4,2.5L5.4,2.5L5.4,2.5L5.4,2.5z M0.7,6.8L0.7,6.8L0.7,6.8l0.1,0L0.7,6.8L0.7,6.8z M2,5.3L2,5.3L2,5.3L2,5.3C2.1,5.3,2,5.3,2,5.3z
	 M5,1.9l0,0.1h0L5,1.9z M5.1,1.9L5.1,1.9L5.1,1.9L5.1,1.9L5.1,1.9z M6.9,7.5L6.9,7.5L6.9,7.5L6.9,7.5L6.9,7.5z M1.2,6.3L1.2,6.3
	L1.2,6.3L1.2,6.3L1.2,6.3z M7,1.1L7,1L7,1.1L7,1.1z M0.6,7.7L0.6,7.7L0.6,7.7L0.6,7.7L0.6,7.7L0.6,7.7z M1.9,5.6L1.9,5.6L1.9,5.6
	L1.9,5.6L1.9,5.6L1.9,5.6z M5.4,2.4L5.4,2.4L5.4,2.4L5.4,2.4L5.4,2.4L5.4,2.4z M5.6,1.4L5.6,1.4L5.6,1.4L5.6,1.4z M5.2,1.1L5.2,1.1
	L5.2,1.1L5.2,1.1L5.2,1.1L5.2,1.1z M2.3,7.3L2.3,7.3L2.3,7.3L2.3,7.3L2.3,7.3z M5.2,3L5.2,3L5.2,3L5.2,3C5.2,3,5.2,3,5.2,3z
	 M5.4,1.6L5.4,1.6C5.5,1.6,5.5,1.6,5.4,1.6L5.4,1.6L5.4,1.6z M6.4,6.3L6.4,6.3L6.4,6.3L6.4,6.3L6.4,6.3L6.4,6.3z M1.6,7.2l0.1-0.1
	L1.6,7.2L1.6,7.2L1.6,7.2z M0.3,7.4L0.3,7.4L0.3,7.4L0.3,7.4L0.3,7.4z M1.1,6.5L1.1,6.5L1.1,6.5L1.1,6.5L1.1,6.5L1.1,6.5z M0.7,7.3
	L0.7,7.3L0.7,7.3L0.7,7.3L0.7,7.3z M2,7.4L2,7.4L2,7.4L2,7.4L2,7.4L2,7.4z M5.7,7.9L5.7,7.9L5.7,7.9L5.7,7.9L5.7,7.9L5.7,7.9z
	 M5.5,7.8L5.5,7.8L5.5,7.8L5.5,7.8L5.5,7.8L5.5,7.8z M1.7,6.9L1.7,6.9L1.7,6.9L1.7,6.9L1.7,6.9z M4.2,2.5L4.2,2.5L4.2,2.5L4.2,2.5z
	 M4.4,3.1L4.4,3L4.4,3.1L4.4,3.1z M5.4,3.8L5.4,3.8L5.4,3.8L5.4,3.8L5.4,3.8z M1.7,6.1L1.7,6.1L1.7,6.1L1.7,6.1L1.7,6.1z M5.6,1.1
	L5.6,1.1L5.6,1.1L5.6,1.1L5.6,1.1z M5.6,2.6L5.6,2.6L5.6,2.6L5.6,2.6z M1,6.9L1,6.9L1,6.9L1,6.9L1,6.9L1,6.9z M5,2.5L5,2.5L5,2.5
	C5.1,2.5,5.1,2.5,5,2.5L5,2.5L5,2.5L5,2.5z M1.2,6.4L1.2,6.4L1.2,6.4L1.2,6.4L1.2,6.4z M1.1,6.4L1.1,6.4L1.1,6.4L1.1,6.4L1.1,6.4
	L1.1,6.4z M5,3.2L5,3.2L5,3.2L5,3.2L5,3.2z M1.8,5.6L1.8,5.6L1.8,5.6L1.8,5.6L1.8,5.6z M6.9,1.4L6.9,1.4L6.9,1.4L6.9,1.4z M5.8,2.6
	L5.8,2.6L5.8,2.6L5.8,2.6L5.8,2.6z M4.3,2.4L4.3,2.4L4.3,2.4L4.3,2.4z M5.2,7.4L5.2,7.4L5.2,7.4L5.2,7.4L5.2,7.4z M5.1,1.2L5.1,1.2
	L5.1,1.2L5.1,1.2L5.1,1.2z M6.1,5.7L6.1,5.7L6.1,5.7L6.1,5.7L6.1,5.7L6.1,5.7z M0.7,7.4L0.7,7.4L0.7,7.4L0.7,7.4L0.7,7.4z M1.5,6.3
	L1.5,6.3L1.5,6.3L1.5,6.3z M6,2L6,2L6,2L6,2L6,2z M4.9,3.3L4.9,3.3L4.9,3.3L4.9,3.3L4.9,3.3z M1,7.4L1,7.4L1,7.4L1,7.4L1,7.4z
	 M4.7,3.8C4.7,3.8,4.7,3.8,4.7,3.8L4.7,3.8L4.7,3.8z M5.8,5.4L5.8,5.4L5.8,5.4L5.8,5.4L5.8,5.4z M1.4,6.6L1.4,6.6L1.4,6.6L1.4,6.6
	L1.4,6.6z M5.6,0.7L5.6,0.7L5.6,0.7L5.6,0.7L5.6,0.7z M5.6,0.8L5.6,0.8L5.6,0.8L5.6,0.8L5.6,0.8z M1.7,7.6L1.7,7.6L1.7,7.6L1.7,7.6z
	 M5.8,2.4L5.8,2.4L5.8,2.4L5.8,2.4L5.8,2.4z M1.4,6.3L1.4,6.3L1.4,6.3L1.4,6.3z M1.9,5.8L1.9,5.8L1.9,5.8L1.9,5.8L1.9,5.8L1.9,5.8z
	 M6.1,1.8L6.1,1.8L6.1,1.8L6.1,1.8L6.1,1.8z M4.4,2.6L4.4,2.6L4.4,2.6L4.4,2.6L4.4,2.6z M4.5,2.9L4.5,2.9L4.5,2.9L4.5,2.9L4.5,2.9z
	 M4.4,2.1L4.4,2.1L4.4,2.1L4.4,2.1L4.4,2.1z M7.3,7.4L7.3,7.4L7.3,7.4L7.3,7.4C7.3,7.5,7.3,7.4,7.3,7.4z M1.7,5.8L1.7,5.8L1.7,5.8
	L1.7,5.8z M2.2,5.2L2.2,5.2L2.2,5.2L2.2,5.2L2.2,5.2L2.2,5.2z M1.8,7.6L1.8,7.6L1.8,7.6L1.8,7.6z M1.7,5.9L1.7,5.9L1.7,5.9L1.7,5.9
	L1.7,5.9z M1.2,7.3L1.2,7.3L1.2,7.3L1.2,7.3L1.2,7.3z M0.8,0.1L0.8,0.1L0.8,0.1L0.8,0.1L0.8,0.1L0.8,0.1z M5.9,2.4L5.9,2.4L5.9,2.4
	L5.9,2.4L5.9,2.4z M1.9,6.7L1.9,6.7L1.9,6.7L1.9,6.7L1.9,6.7z M5.4,7.6L5.4,7.6L5.4,7.6L5.4,7.6L5.4,7.6z M5.6,1L5.6,1L5.6,1L5.6,1
	L5.6,1z M1.3,7.3L1.3,7.3L1.3,7.3L1.3,7.3L1.3,7.3z M1.1,7.3L1.1,7.3L1.1,7.3L1.1,7.3L1.1,7.3z M1.6,7.7L1.6,7.7L1.6,7.7L1.6,7.7z
	 M0.8,7.2L0.8,7.2L0.8,7.2L0.8,7.2L0.8,7.2z M5.7,5.3L5.7,5.3L5.7,5.3L5.7,5.3L5.7,5.3z M2.2,7.3L2.2,7.3L2.2,7.3L2.2,7.3z M1.9,7.1
	L1.9,7.1L1.9,7.1L1.9,7.1C1.9,7.2,1.9,7.1,1.9,7.1z M2.2,5.2L2.2,5.2L2.2,5.2L2.2,5.2L2.2,5.2z M7.5,7.7L7.5,7.7L7.5,7.7L7.5,7.7z
	 M0.9,7.3L0.9,7.3L0.9,7.3L0.9,7.3z M5.9,2.8L5.9,2.8L5.9,2.8L5.9,2.8L5.9,2.8z M1.4,7.1L1.4,7.1L1.4,7.1L1.4,7.1L1.4,7.1L1.4,7.1z
	 M1.8,7.9L1.8,7.9L1.8,7.9L1.8,7.9z M5.8,1.2L5.8,1.2L5.8,1.2L5.8,1.2L5.8,1.2z M7.6,7.7L7.6,7.7L7.6,7.7L7.6,7.7L7.6,7.7z M1.4,7.2
	L1.4,7.2L1.4,7.2L1.4,7.2z M5.2,7.3L5.2,7.3L5.2,7.3L5.2,7.3z M1.9,7.8L1.9,7.8L1.9,7.8L1.9,7.8z M5,3.1L5,3.1L5,3.1L5,3.1L5,3.1z
	 M5.3,2.2L5.3,2.2L5.3,2.2L5.3,2.2z M5,3.3L5,3.3L5,3.3L5,3.3z M5.2,3.8L5.2,3.8L5.2,3.8L5.2,3.8z M1.5,7.9L1.5,7.9L1.5,7.9L1.5,7.9
	z M6,2.4L6,2.4L6,2.4L6,2.4z M5.4,1L5.4,1L5.4,1L5.4,1z M6.4,2.1L6.4,2.1L6.4,2.1L6.4,2.1L6.4,2.1z M4.3,2.2L4.3,2.2L4.3,2.2
	L4.3,2.2L4.3,2.2z M2.2,5.3L2.2,5.3L2.2,5.3L2.2,5.3z M0.7,7.6L0.7,7.6L0.7,7.6L0.7,7.6z M1.4,6.8L1.4,6.8L1.4,6.8L1.4,6.8z
	 M5.7,7.8L5.7,7.8L5.7,7.8L5.7,7.8z M0.9,6.6L0.9,6.6L0.9,6.6L0.9,6.6z M4.6,2L4.6,2L4.6,2L4.6,2L4.6,2z M4.9,1.7L4.9,1.7L4.9,1.7
	L4.9,1.7z M1.7,5.7L1.7,5.7L1.7,5.7L1.7,5.7z M1.9,7.9L1.9,7.9L1.9,7.9L1.9,7.9z M6.4,1.8L6.4,1.8L6.4,1.8L6.4,1.8z M5.7,0.9
	L5.7,0.9L5.7,0.9L5.7,0.9z M6.3,0.6L6.3,0.6L6.3,0.6L6.3,0.6L6.3,0.6z M2.2,5.3L2.2,5.3L2.2,5.3L2.2,5.3z M7.1,0.9L7.1,0.9L7.1,0.9
	L7.1,0.9z M1.9,6.7L1.9,6.7L1.9,6.7L1.9,6.7z M4.5,2.3L4.5,2.3L4.5,2.3L4.5,2.3z M5.5,3.2L5.5,3.2L5.5,3.2L5.5,3.2z M4.4,2.8
	L4.4,2.8L4.4,2.8C4.3,2.8,4.3,2.8,4.4,2.8z M2.1,5.4L2.1,5.4L2.1,5.4L2.1,5.4L2.1,5.4z M1.8,5.9L1.8,5.9L1.8,5.9L1.8,5.9z M5.1,1.4
	L5.1,1.4L5.1,1.4L5.1,1.4z M1.8,7.1L1.8,7.1L1.8,7.1L1.8,7.1L1.8,7.1z M4.4,2.8C4.4,2.8,4.4,2.8,4.4,2.8L4.4,2.8z"/>
</svg>
