<?xml version="1.0" encoding="utf-8"?>
<!-- Generator: Adobe Illustrator 21.0.0, SVG Export Plug-In . SVG Version: 6.00 Build 0)  -->
<svg version="1.1" id="Capa_1" xmlns="http://www.w3.org/2000/svg" xmlns:xlink="http://www.w3.org/1999/xlink" x="0px" y="0px"
	 viewBox="0 0 336 2" style="enable-background:new 0 0 336 2;" xml:space="preserve" preserveAspectRatio="none">
<style type="text/css">
	.st0{fill:#C7C7C7;}
</style>
<path id="Forma_14_copia_9" class="st0" d="M167.5,0.1c51.1-0.2,103.7,0,156.3,0.1c3,0,5.9,0.1,8.7,0.2c3.6,0.1,4.6,0.6,1.9,1
	c-3.3,0.4-6.6,0.6-9.9,0.6c-7,0-14,0-21,0c-39.2-0.2-78.3-0.2-117.5-0.2c-40.9,0-81.9,0.1-122.8,0.1c-17.5,0-35,0-52.4-0.3
	C8.5,1.6,6,1.6,3.6,1.5c-1.1,0-2.2-0.1-3.3-0.3c-0.7-0.2-0.5-0.4,1.4-0.4c3.5-0.1,7-0.1,10.4-0.1C63.4,0.4,114.7,0.2,167.5,0.1z"/>
</svg>
