<?xml version="1.0" encoding="utf-8"?>
<!-- Generator: Adobe Illustrator 21.0.0, SVG Export Plug-In . SVG Version: 6.00 Build 0)  -->
<svg version="1.1" id="Capa_1" xmlns="http://www.w3.org/2000/svg" xmlns:xlink="http://www.w3.org/1999/xlink" x="0px" y="0px"
	 viewBox="0 0 1820 2" style="enable-background:new 0 0 1820 2;" xml:space="preserve">
<style type="text/css">
	.st0{fill:#E9E9E9;}
</style>
<path id="Forma_14_copia_8" class="st0" d="M907.3,0.1c276.6-0.2,561.7,0,846.8,0.1c16.5,0,31.8,0.1,47.3,0.2
	c19.6,0.1,24.9,0.6,10.5,1C1797,1.8,1779.2,2,1758.1,2c-37.9,0-75.8,0-113.6,0c-212.1-0.2-424.3-0.2-636.5-0.2
	c-221.7,0-443.3,0.1-665,0.1c-94.7,0-189.3-0.1-283.9-0.3c-13.2,0-26.3-0.1-39.4-0.1C12,1.5,5.3,1.4,2,1.2C-1.6,0.9-1,0.7,9.7,0.7
	c18.8-0.1,37.7-0.1,56.6-0.1C343.7,0.4,621.1,0.1,907.3,0.1z"/>
</svg>
