<?xml version="1.0" encoding="utf-8"?>
<!-- Generator: Adobe Illustrator 21.0.0, SVG Export Plug-In . SVG Version: 6.00 Build 0)  -->
<svg version="1.1" id="Capa_1" xmlns="http://www.w3.org/2000/svg" xmlns:xlink="http://www.w3.org/1999/xlink" x="0px" y="0px"
	 viewBox="0 0 150 2" style="enable-background:new 0 0 150 2;" xml:space="preserve">
<style type="text/css">
	.st0{fill:#E9E9E9;}
</style>
<path id="Forma_14_copia_11" class="st0" d="M74.8,0.1c22.7-0.2,46,0,69.3,0.1c1.3,0,2.6,0.1,3.9,0.2c1.6,0.1,2,0.6,0.8,1
	c-1.5,0.4-2.9,0.6-4.4,0.6c-3.1,0-6.2,0-9.3,0C117.7,1.8,100.4,1.8,83,1.8c-18.1,0-36.3,0.1-54.5,0.1c-7.8,0-15.5,0-23.2-0.3
	c-1,0-2.1-0.1-3.2-0.1c-0.5,0-1-0.1-1.5-0.3C0.4,1,0.4,0.8,1.3,0.8c1.6-0.1,3.1-0.1,4.6-0.1C28.6,0.4,51.4,0.2,74.8,0.1z"/>
</svg>
