<?xml version="1.0" encoding="utf-8"?>
<!-- Generator: Adobe Illustrator 21.0.0, SVG Export Plug-In . SVG Version: 6.00 Build 0)  -->
<svg version="1.1" id="Capa_1" xmlns="http://www.w3.org/2000/svg" xmlns:xlink="http://www.w3.org/1999/xlink" x="0px" y="0px"
	 viewBox="0 0 52 52" style="enable-background:new 0 0 52 52;" xml:space="preserve">
<style type="text/css">
	.st0{fill:#E9E9E9;}
	.st1{fill:#DF011F;}
</style>
<path id="Forma_15_1_" class="st0" d="M2.7,48.1C3.1,49,5.8,50.5,19,50.5c12.8,0,28.9-1.5,30.6-2c0.1,0,0.4-1,0.6-4.3
	C50.9,32.7,50.6,7,49.4,4.3C48.6,2.6,37.8,1.5,23,1.5C12.5,1.5,3.4,2.1,2.8,2.9c-0.4,0.5-1,7.3-1.2,18.8C1.3,35.4,1.7,46.1,2.7,48.1
	z"/>
<path class="st0" d="M18.9,51.5c-14.1,0-16.5-1.7-17.1-3c-1.3-2.7-1.5-15.6-1.2-26.9C0.7,15,1.2,3.5,2,2.3c1.3-1.7,16.4-1.8,21-1.8
	c7.7,0,25.8,0.3,27.2,3.4c1.4,3,1.6,29.5,0.9,40.3c-0.3,4.9-0.7,5-1.3,5.2C47.9,50.1,31.6,51.5,18.9,51.5z M3.6,47.7
	C3.7,47.8,5,49.6,19,49.6c12.2,0,26.9-1.3,29.9-1.9c0.1-0.5,0.2-1.5,0.4-3.6C49.9,32,49.5,7,48.4,4.7C47.6,3.8,39.1,2.5,23,2.5
	C12.3,2.5,5.1,3.1,3.6,3.6C3.3,5,2.8,11,2.5,21.7C2.2,36.7,2.8,46.1,3.6,47.7z M49.3,47.5C49.2,47.5,49.2,47.5,49.3,47.5
	C49.2,47.5,49.2,47.5,49.3,47.5z M3.4,3.6L3.4,3.6L3.4,3.6z M3.7,3.3L3.7,3.3z"/>
<g>
	<polygon class="st1" points="26.1,23.2 25.9,23.2 25.9,23.3 26,23.5 	"/>
	<polygon class="st1" points="27.2,23.3 27.1,23.3 27.1,23.3 	"/>
	<polygon class="st1" points="26,22.8 26,22.8 25.9,22.6 25.9,23 26,22.9 	"/>
	<polygon class="st1" points="26.3,23.5 26.4,23.3 26.5,23.3 26.6,23.1 26.6,23.1 26.4,23.1 26.4,23.1 26.3,23.1 26.1,23 26.1,23.1 
		26.2,23.1 	"/>
	<path class="st1" d="M26.6,23.1L26.6,23.1L26.6,23.1z"/>
	<polygon class="st1" points="26.7,23.3 26.8,23.2 26.8,23.1 26.6,23.1 26.6,23.3 	"/>
	<rect x="25.6" y="22.8" class="st1" width="0.1" height="0.2"/>
	<polygon class="st1" points="24,22.9 23.7,22.9 23.7,22.9 23.7,23.1 24,23.1 24.1,23 24.2,23 24.3,23.1 24.4,23.1 24.6,23.1 
		24.7,23.1 25,23.5 25,23.3 24.9,23.3 24.9,23.1 25,23.1 25,22.8 24.7,22.7 24.6,22.5 24.6,22.6 24.4,22.7 24.3,22.8 24.2,22.7 
		24.1,22.8 24,22.8 	"/>
	<polygon class="st1" points="28.4,22.9 28.5,22.9 28.4,22.7 28.3,22.7 28.3,22.9 28.3,22.8 28.2,22.8 28.2,23.3 28.4,23.1 
		28.4,23.1 28.5,23.1 28.5,23 	"/>
	<path class="st1" d="M35.8,24.7l0.1-0.1v-0.3h-0.2l-0.1-0.1l0.1-0.2l0.2-0.1l-0.1-0.7l-0.2-0.3h-5.3l-0.7-0.1l-1.1,0.1v0.2l0,0v0.1
		l-0.1,0.3h-0.1v0.2l-0.1,0.6H28v-0.1V24v-0.2l-0.1-0.2h-0.6v0.3h0.5v0.3l0,0v-0.1h-0.1l-0.1,0.2l-0.1-0.1l0,0v-0.1v0.2h-0.1
		l-0.1-0.2L26.9,24l-0.1,0.1h-0.2v-0.2l-0.2-0.2h-0.1l-0.1,0.1l0,0l-0.1,0.1L26,23.6l-0.1,0.1h-0.1l-0.1-0.1l-0.1,0.1h-0.1v-0.4
		v-0.1V23l-0.2,0.3l0.1,0.3v0.1V24h-0.1l-0.1-0.1v0.2l0.1,0.1v0.4l0.1,0.1v0.2h-0.1L25,24.1h-0.1l-0.1,0.2l-0.1-0.2h-0.1V24h-0.2
		v-0.5h0.1v0.2l0.1,0.1l0.1-0.1l-0.1-0.2v-0.3h-0.2v0.2l-0.1,0.1l-0.1,0.2L24,23.8l0-0.1l0.1-0.2H24v-0.1l0.1-0.1v-0.1h-0.3v0.2v0.1
		v0.2v0.1h-0.3v-0.3l-0.1,0.2l-0.3,0.1v0.1l0.2,0.1v0.1l-0.1,0.1L23,24.1l-0.1-0.2h-0.1v0.3v0.2l-0.2,0.1v0.2l-0.1-0.1l0.1-0.2
		l-0.2-0.1l0.1-0.2l0,0l0,0l0,0l0.1-0.1l0.4-0.3l0.1-0.1l0,0l0.1,0.1l0.1-0.1h0.2l0,0v-0.2h-0.3v-0.2l0.1-0.1l0.3-0.8l-0.1-0.1V22
		h0.1l0.1-0.1l-0.1-0.1l0.2-0.2h0.1v-0.1l-0.1-0.1v-0.1l0.1-0.1l0.2-0.3L24,21.1v-0.5l-0.1-0.1l-0.2-0.1l0.3-0.1v-0.2l-0.3,0.2h-0.1
		l0.1-0.2h-0.3l0.1-0.2v-0.1l-0.2-0.1l-0.2-0.1H23l0-0.1l0.2-0.2v-0.1H23l-0.2,0.1l-0.1-0.1l0.2-0.2l-0.2-0.1L22.6,19h-0.2v0h0.1
		l0.1-0.1l0.2-0.2h-0.2l-0.2,0.1l-0.1-0.1l-0.2-0.1v-0.1L22,18.4h0l-0.3,0.2l-0.1-0.1l-0.5,0.1l-0.4,0.5l-0.1,0.2l-0.1,0.1l-0.1,0.2
		l-0.1-0.1h-0.1l-0.1,0.2L20,19.8L19.8,20H20l-0.3,0.2l-0.1,0.1l-0.1-0.1l-0.2,0.2l-0.1,0.1l-0.7,0.7l-0.1,0.2l-0.1-0.1l-0.1,0.1
		L18,21.5l-0.2,0.2l0,0.3l-1,1l-0.1,0.2l-0.2,0.1l-0.4,0.2v0.1L16,23.7l0,0.4v0.1l0.1,0.1L16,24.5l0.2,0.2v0.1l0.1,0.2v0.2l0.1,0.6
		l0.1,0.2h-0.1l0.1,0.2l-0.1-0.1l0.4,0.4v0.3L16.4,27l0.1,0.1v0.2l0.1,0.1l0.1,0.3l0.3,0.4l0.8,0.7l0.2,0.1l1.2,0.9l0.2,0.1V30
		l0.3,0.2l0.6,0.6l0.4,0.3h0.2v0.2l0.3,0.3l0.2,0.1l0.1,0.1l0.4,0.3l0.5,0.7l0.2,0.1L23,33l0.1,0.1V33H23l-0.1-0.1h-0.1l0.2,0.2
		l0.1,0.2h0.1v-0.1H23l0.2,0.2l0.1-0.1L23,33.2h0.1l0.4,0.3h0.3v-0.1h-0.1l-0.2-0.1l0.1-0.2l-0.2-0.2v-0.1h0.1l0.2,0.2h0.1v-0.1
		l-0.2-0.2h0.1l0.1,0.1H24l0.1-0.1H24l-0.1-0.1l0.2-0.2L24,32.1L23.9,32l0.1-0.1l0.1-0.3L24,31.3l0.2-0.3v0l0.1,0.1l0,0L24,30.7
		l0.1-0.1V30l0.2-0.1l0.1-0.3l-0.2-0.4L24,28.9l-0.2-0.3l-0.1-0.1v-0.1h-0.1h1.2l0.1-0.1l0.3,0.1l0.1-0.1l0.5,0.1l0.7-0.1h1.6v0.1
		l0.1,0.1l3.5,0.1l1-0.1H33l1.7-0.3l0.2-0.1l0.3-0.1l0.3-0.2l0.3-0.4l0.1-0.6V25L35.8,24.7z M23.2,23L23.2,23L23.2,23
		C23.3,23,23.3,23,23.2,23z M23.1,22.9l0.1-0.1l0.1,0.1H23.1L23.1,22.9C23.1,23,23.1,23,23.1,22.9L23.1,22.9z M18.3,21.8v-0.1V21.8
		L18.3,21.8z M19.5,29L19.5,29L19.5,29h0.1H19.5z M20,30.5h-0.1l-0.1-0.2v-0.1l0.2,0.1V30.5z M20,29.3h-0.1v-0.1l0.1-0.1l0.2,0.1
		L20,29.3z M23.5,24.1l0.1-0.1v0.1H23.5L23.5,24.1z M23.6,24.9V25l0,0V24.9L23.6,24.9z M23.6,25.2L23.6,25.2l0.1,0.1h-0.1V25.2
		L23.6,25.2z M23.1,25.3l0.1-0.1l0.1,0.1l0,0H23.1L23.1,25.3z M20.6,29L20.6,29L20.6,29L20.6,29z M22.1,24.9L22.1,24.9v-0.2h0.1v0.2
		H22.1z M22.3,25.5L22.3,25.5L22.3,25.5L22.3,25.5L22.3,25.5z M22,25.5L22,25.5L22,25.5L22,25.5z M22.8,25.2v0.2h-0.2v-0.1
		L22.8,25.2z M22,24.8L22,24.8h-0.2H22L22,24.8z M22.5,23.9L22.5,23.9L22.5,23.9v-0.2h0.1v-0.2h0.1L22.5,23.9z M22.8,23.5L22.8,23.5
		L22.8,23.5L22.8,23.5z M22.8,23.4l-0.1,0.1v-0.1H22.8z M21.9,18.6h0.2v0.1L22,18.8h-0.1V18.6z M21.5,18.7L21.5,18.7l-0.1,0.1
		L21.5,18.7z M21.3,19.2L21.3,19.2L21.3,19.2L21.3,19.2z M21.1,18.9l0.3-0.1L21.2,19H21v-0.1H21.1z M21,19.2L21,19.2l0.1,0.1
		L21,19.2L21,19.2z M20.4,30.4L20.4,30.4L20.4,30.4L20.4,30.4z M20.4,30.2L20.2,30v-0.1h0.1l0.3,0.3C20.6,30.2,20.4,30.2,20.4,30.2z
		 M20.7,30.3l-0.1,0.1v-0.2l-0.1-0.1h0.2V30.3z M21.1,30.4L21.1,30.4v-0.1l0,0V30.4z M21.2,30.1h-0.1H21.2L21.2,30.1L21.2,30.1z
		 M22,31.3h-0.1v-0.1H22V31.3z M22.2,32h-0.1L22,31.9L22.2,32L22.2,32z M22.5,32.7L22.5,32.7L22.5,32.7L22.5,32.7L22.5,32.7
		L22.5,32.7z M22.5,31.9L22.5,31.9l-0.1-0.1h0.1V31.9z M23,32.8L23,32.8L23,32.8l-0.3-0.2v-0.1l0.1-0.1l-0.2-0.2h0.1l0.1,0.1H23v0.1
		L23,32.8C23,32.7,23,32.8,23,32.8z M23.1,32.6L23.1,32.6l0.1,0.1L23.1,32.6z M23.9,28.8v0.1l-0.2-0.2v-0.2h0.1L23.9,28.8z
		 M23.7,24.7L23.7,24.7L23.7,24.7v-0.1V24.7z M24.2,24.7L24.2,24.7L24.2,24.7L24.2,24.7l-0.1-0.2h0.1V24.7z M24.2,24.1h-0.1V24
		L24.2,24.1L24.2,24.1z M24.7,28.2L24.7,28.2L24.7,28.2L24.7,28.2L24.7,28.2L24.7,28.2z M24.9,24.7l-0.3-0.1h-0.1l0.2-0.2H25
		l0.1,0.1L24.9,24.7z M25.4,25.2L25.4,25.2h-0.3v-0.1h0.1V25h0.1L25.4,25.2L25.4,25.2z M25.4,24L25.4,24L25.4,24L25.4,24L25.4,24z
		 M25.5,24.2L25.5,24.2L25.5,24.2L25.5,24.2L25.5,24.2L25.5,24.2z M25.7,25.4v-0.1l-0.1-0.1v-0.1V25l0.2,0.1L25.7,25.4z M25.8,28.1
		v-0.2V28.1L25.8,28.1z M25.7,24.2V24v-0.1h0.1v0.2l0.1,0.2h-0.2V24.2z M26.3,24.2L26.3,24.2L26.3,24.2l-0.2-0.1l0.1-0.1l0,0v0.2
		H26.3z M27.8,24.7L27.8,24.7l-0.1,0.4h-0.1v-0.4v-0.2v-0.2l0.1-0.1l0.1,0.2l0.1,0.1L27.8,24.7z M28.1,24.4L28.1,24.4l0.1,0.2h-0.1
		V24.4z M28.9,23.3L28.9,23.3L28.9,23.3L28.9,23.3z M29.5,23.8L29.5,23.8L29.5,23.8L29.5,23.8L29.5,23.8z M35.7,24.5L35.7,24.5h-0.2
		v-0.1l0.2-0.1V24.5z"/>
	<polygon class="st1" points="28.1,23.2 28,23.1 27.9,23.1 27.8,23.1 27.8,23.3 27.9,23.4 	"/>
	<polygon class="st1" points="27.2,23.1 27.2,23.3 27.4,23.3 27.5,23.2 27.4,23.1 27.5,23 27.5,22.9 27.5,22.8 27.6,22.7 27.6,22.6 
		27.2,22.6 27.2,22.7 27.1,22.7 27.1,23 	"/>
	<polygon class="st1" points="16.4,26.6 16.5,26.8 16.5,26.7 	"/>
	<path class="st1" d="M23.9,33.2h-0.2v0.1l0.4,0.2l0.1-0.2L24,33.1L23.9,33.2z M24.1,33.3H24v-0.1L24.1,33.3L24.1,33.3z"/>
	<polygon class="st1" points="24.1,32 24.2,32.1 24.3,32.1 24.2,31.8 	"/>
</g>
</svg>
