<?xml version="1.0" encoding="utf-8"?>
<!-- Generator: Adobe Illustrator 21.0.0, SVG Export Plug-In . SVG Version: 6.00 Build 0)  -->
<svg version="1.1" id="Capa_1" xmlns="http://www.w3.org/2000/svg" xmlns:xlink="http://www.w3.org/1999/xlink" x="0px" y="0px"
	 viewBox="0 0 52 52" style="enable-background:new 0 0 52 52;" xml:space="preserve">
<style type="text/css">
	.st0{fill:#E9E9E9;}
	.st1{fill:#DF011F;}
</style>
<path id="Forma_15_1_" class="st0" d="M2.7,48.1C3.1,49,5.8,50.5,19,50.5c12.8,0,28.9-1.5,30.6-2c0.1,0,0.4-1,0.6-4.3
	C50.9,32.7,50.6,7,49.4,4.3C48.6,2.6,37.8,1.5,23,1.5C12.5,1.5,3.4,2.1,2.8,2.9c-0.4,0.5-1,7.3-1.2,18.8C1.3,35.4,1.7,46.1,2.7,48.1
	z"/>
<path class="st0" d="M18.9,51.5c-14.1,0-16.5-1.7-17.1-3c-1.3-2.7-1.5-15.6-1.2-26.9C0.7,15,1.2,3.5,2,2.3c1.3-1.7,16.4-1.8,21-1.8
	c7.7,0,25.8,0.3,27.2,3.4c1.4,3,1.6,29.5,0.9,40.3c-0.3,4.9-0.7,5-1.3,5.2C47.9,50.1,31.6,51.5,18.9,51.5z M3.6,47.7
	C3.7,47.8,5,49.6,19,49.6c12.2,0,26.9-1.3,29.9-1.9c0.1-0.5,0.2-1.5,0.4-3.6C49.9,32,49.5,7,48.4,4.7C47.6,3.8,39.1,2.5,23,2.5
	C12.3,2.5,5.1,3.1,3.6,3.6C3.3,5,2.8,11,2.5,21.7C2.2,36.7,2.8,46.1,3.6,47.7z M49.3,47.5C49.2,47.5,49.2,47.5,49.3,47.5
	C49.2,47.5,49.2,47.5,49.3,47.5z M3.4,3.6L3.4,3.6L3.4,3.6z M3.7,3.3L3.7,3.3z"/>
<g>
	<polygon class="st1" points="25.9,23.2 26.1,23.2 26.1,23.3 26,23.5 	"/>
	<polygon class="st1" points="24.8,23.3 24.9,23.3 24.9,23.3 	"/>
	<polygon class="st1" points="26,22.8 26,22.8 26.1,22.6 26.1,23 26,22.9 	"/>
	<polygon class="st1" points="25.7,23.5 25.6,23.3 25.5,23.3 25.4,23.1 25.4,23.1 25.6,23.1 25.6,23.1 25.7,23.1 25.9,23 25.9,23.1 
		25.8,23.1 	"/>
	<path class="st1" d="M25.4,23.1L25.4,23.1L25.4,23.1z"/>
	<polygon class="st1" points="25.3,23.3 25.2,23.2 25.2,23.1 25.4,23.1 25.4,23.3 	"/>
	<rect x="26.3" y="22.8" class="st1" width="0.1" height="0.2"/>
	<polygon class="st1" points="28,22.9 28.3,22.9 28.3,22.9 28.3,23.1 28,23.1 27.9,23 27.8,23 27.7,23.1 27.6,23.1 27.4,23.1 
		27.3,23.1 27,23.5 27,23.3 27.1,23.3 27.1,23.1 27,23.1 27,22.8 27.3,22.7 27.4,22.5 27.4,22.6 27.6,22.7 27.7,22.8 27.8,22.7 
		27.9,22.8 28,22.8 	"/>
	<polygon class="st1" points="23.6,22.9 23.5,22.9 23.6,22.7 23.7,22.7 23.7,22.9 23.7,22.8 23.8,22.8 23.8,23.3 23.6,23.1 
		23.6,23.1 23.5,23.1 23.5,23 	"/>
	<path class="st1" d="M16,25v1.8l0.1,0.6l0.3,0.4l0.3,0.2l0.3,0.1l0.2,0.1l1.7,0.3H19l1,0.1l3.5-0.1l0.1-0.1v-0.1h1.6l0.7,0.1
		l0.5-0.1l0.1,0.1l0.3-0.1l0.1,0.1h1.2H28v0.1l-0.1,0.1l0.1,0.3l-0.1,0.3l-0.2,0.4l0.1,0.3L28,30v0.6l0.1,0.1l-0.2,0.4l0,0L28,31
		v0.1l0.2,0.3l-0.1,0.3l0.1,0.3l0.1,0.1l-0.1,0.1l-0.1,0.3l0.2,0.2l-0.1,0.1h-0.1l0.1,0.1h0.2l0.1-0.1h0.1L28.4,33v0.1h0.1l0.2-0.2
		h0.1V33l-0.2,0.2l0.1,0.2l-0.2,0.1h-0.1v0.1h0.3l0.4-0.3H29l-0.2,0.1l0.1,0.1l0.2-0.2h0.1v0.1h0.1l0.1-0.2l0.2-0.2h-0.1l-0.2,0
		h-0.1v-0.1l0.1-0.1l0.4-0.1l0.2-0.1l0.5-0.7l0.4-0.3l0.1-0.1l0.2-0.1l0.3-0.3V31h0.2l0.4-0.3l0.6-0.6l0.3-0.2V30l0.2-0.1l1.2-0.9
		l0.2-0.1l0.8-0.7l0.3-0.4l0.1-0.3l0.1-0.1v-0.2l0.1-0.1L35.6,27v-0.3l0.4-0.4l-0.1,0.1l0.1-0.2h-0.1L36,26l0.1-0.6V25l0.1-0.2v-0.1
		l0.2-0.2l-0.1-0.2l0.1-0.1L36,24.1l-0.1-0.4l-0.1-0.1v-0.1l-0.4-0.2l-0.2-0.1V23l-1-1l-0.1-0.3l-0.2-0.2l-0.2-0.1l-0.1-0.1
		l-0.1,0.1l-0.1-0.2l-0.7-0.7l-0.1-0.1l-0.2-0.2l-0.1,0.1l-0.1-0.1L32,20.1h0.2L32,19.9l-0.1-0.1l-0.1-0.2h-0.1l-0.1,0.1l-0.1-0.2
		l-0.1-0.1l-0.1-0.2l-0.4-0.5l-0.5-0.1l-0.1,0.1L30,18.5h-0.1l-0.1,0.1v0.1l-0.2,0.1l-0.1,0.1l-0.2-0.1h-0.2l0.2,0.2l0.1,0.1h0.1
		v0.1h-0.2l-0.1-0.1L29,19.2l0.2,0.2l-0.1,0.1L29,19.3h-0.2v0.1l0.2,0.2l-0.1,0.1h-0.1l-0.2,0.1l-0.2,0.1V20l0.1,0.2h-0.3l0.1,0.2
		h-0.1L28,20.2v0.2l0.3,0.1l-0.2,0.1l-0.1,0v0.5L27.9,21l0.2,0.3l0.1,0.1v0.1l-0.1,0.1v0.1h0.1l0.2,0.2L28.3,22l0.1,0.1h0.1v0.1
		l-0.1,0.1l0.3,0.8l0.1,0.1v0.2h-0.3v0.2l0,0h0.2l0.1,0.1l0.1-0.1l0,0l0.1,0.1l0.4,0.3l0.1,0.1l0,0l0,0l0,0l0.1,0.2l-0.2,0.1
		l0.1,0.2l-0.1,0.1v-0.2l-0.2-0.1v-0.2v-0.3h-0.1L29,24.1l-0.2,0.1l-0.1-0.1V24l0.2-0.1v-0.1l-0.3-0.1l-0.1-0.2v0.3h-0.3v-0.1v-0.2
		v-0.1v-0.2h-0.3v0.1l0.1,0.1v0.1h-0.1l0.1,0.2l-0.1,0.1l-0.2-0.1l-0.1-0.2l-0.1-0.1v-0.2h-0.2v0.3l-0.1,0.2l0.1,0.1l0.1-0.1v-0.2
		h0.1V24h-0.2v0.1h-0.1l-0.1,0.2L27,24.1h0l-0.2,0.6h-0.1v-0.2l0.1-0.1V24l0.1-0.1v-0.2L26.8,24h-0.1v-0.3v-0.1l0.1-0.3L26.6,23v0.2
		v0.1v0.4h-0.1l-0.1-0.1l-0.1,0.1h-0.1L26,23.6l-0.1,0.2l-0.1-0.1l0,0l-0.1-0.1h-0.1l-0.2,0.2V24h-0.2l-0.1,0l-0.2,0.1l-0.1,0.2
		h-0.1V24v0.1l0,0l-0.1,0.1L24.5,24h-0.1v0.1l0,0v-0.3h0.5v-0.3h-0.6l-0.1,0.2v0.2v0.2v0.1H24l-0.1-0.6v-0.2h-0.1l-0.1-0.3V23l0,0
		v-0.2l-1.1-0.1l-0.7,0.1h-5.3l-0.2,0.3L16,23.9l0.2,0.1l0.1,0.2l-0.1,0.1H16v0.3l0.1,0.1L16,25z M28.7,23L28.7,23L28.7,23L28.7,23z
		 M28.9,23L28.9,23L28.9,23l-0.1-0.1l0.1-0.1V23L28.9,23z M33.7,21.8l0.1-0.1L33.7,21.8L33.7,21.8z M32.4,29L32.4,29l0.1-0.1
		L32.4,29L32.4,29z M32,30.3l0.2-0.1v0.1l-0.1,0.2H32V30.3z M31.9,29.2l0.2-0.1l0.1,0.1v0.1H32L31.9,29.2z M28.5,24.1h-0.1V24
		L28.5,24.1L28.5,24.1z M28.5,25L28.5,25L28.5,25L28.5,25L28.5,25z M28.5,25.3L28.5,25.3h-0.2v-0.1L28.5,25.3L28.5,25.3z M28.9,25.3
		h-0.2l0,0l0.1-0.1L28.9,25.3L28.9,25.3z M31.4,29L31.4,29L31.4,29L31.4,29z M29.7,24.9v-0.2h0.1v0.1v0.1H29.7z M29.8,25.5
		L29.8,25.5L29.8,25.5L29.8,25.5L29.8,25.5z M30,25.4L30,25.4L30,25.4L30,25.4z M29.4,25.3L29.4,25.3l-0.3,0.1v-0.2L29.4,25.3z
		 M30,24.7L30,24.7v0.1V24.7L30,24.7z M29.2,23.5h0.1v0.2h0.1l0.1,0.2l0,0l0,0L29.2,23.5z M29.1,23.4L29.1,23.4L29.1,23.4L29.1,23.4
		z M29.4,23.4L29.4,23.4h-0.1H29.4z M30.1,18.8L30.1,18.8l-0.2-0.1v-0.1h0.2V18.8z M30.6,18.8h-0.1v-0.1L30.6,18.8z M30.7,19.2
		L30.7,19.2L30.7,19.2L30.7,19.2z M30.9,19h-0.2l-0.1-0.2l0.3,0.1C30.9,18.9,30.9,19,30.9,19z M31,19.2h-0.1H31L31,19.2L31,19.2z
		 M31.6,30.3L31.6,30.3L31.6,30.3L31.6,30.3z M31.5,30.2l0.3-0.3h0.1V30l-0.2,0.2H31.5z M31.3,30.2h0.2l-0.1,0.1v0.2l-0.1-0.1V30.2z
		 M30.9,30.3L30.9,30.3v0.1l0,0V30.3z M30.8,30.1L30.8,30.1l0.1,0.1L30.8,30.1L30.8,30.1z M30,31.2h0.1v0.1H30V31.2z M29.8,31.9H30
		L29.9,32L29.8,31.9L29.8,31.9z M29.5,32.7L29.5,32.7L29.5,32.7L29.5,32.7L29.5,32.7L29.5,32.7z M29.5,31.8L29.5,31.8l0.1,0.1h-0.1
		V31.8z M29,32.7v-0.3v-0.1h0.2l0.1-0.1h0.1l-0.2,0.2l0.1,0.1v0.1L29,32.7L29,32.7L29,32.7L29,32.7z M28.8,32.7l0.1-0.1l0.1,0.1
		H28.8z M28.2,28.5L28.2,28.5l0.1,0.2l-0.2,0.2v-0.1L28.2,28.5z M28.3,24.5L28.3,24.5v0.2l0,0V24.5z M27.8,24.5L27.8,24.5l0.1,0.2
		v0.1v-0.1l0,0v-0.2H27.8z M27.8,24h0.1v0.1L27.8,24L27.8,24z M27.2,28.2L27.2,28.2L27.2,28.2L27.2,28.2L27.2,28.2L27.2,28.2z
		 M27,24.6L27,24.6l0.4-0.1l0.2,0.2h-0.1l-0.3,0.1L27,24.6z M26.6,25L26.6,25l0.1,0.1h0.1v0.1l-0.2,0.1l-0.1-0.1V25H26.6z M26.6,24
		L26.6,24L26.6,24L26.6,24L26.6,24z M26.5,24.2L26.5,24.2L26.5,24.2v-0.1V24.2L26.5,24.2z M26.2,25.1l0.2-0.1v0.1v0.1l-0.1,0.1v0.1
		L26.2,25.1z M26.1,28.1v-0.2V28.1L26.1,28.1z M26.1,24.2l0.1-0.2v-0.2h0.1V24v0.2H26.1z M25.7,24.1L25.7,24.1l0.2,0.1l-0.1,0.1
		h-0.1l0,0V24.1z M24.2,24.6L24.2,24.6l0.2-0.3l0.1,0.1v0.2v0.2v0.4h-0.1v-0.4h-0.1L24.2,24.6z M23.9,24.6L23.9,24.6l-0.1-0.2h0.1
		V24.6z M23,23.2L23,23.2L23,23.2L23,23.2z M22.5,23.7L22.5,23.7L22.5,23.7L22.5,23.7L22.5,23.7z M16.3,24.4l0.2,0.1v0.1h-0.2l0,0
		V24.4z"/>
	<polygon class="st1" points="23.9,23.2 24,23.1 24.1,23.1 24.2,23.1 24.2,23.3 24.1,23.4 	"/>
	<polygon class="st1" points="24.8,23.1 24.8,23.3 24.6,23.3 24.5,23.2 24.6,23.1 24.5,23 24.5,22.9 24.5,22.8 24.4,22.7 24.4,22.6 
		24.8,22.6 24.8,22.7 24.9,22.7 24.9,23 	"/>
	<polygon class="st1" points="35.6,26.6 35.5,26.8 35.5,26.7 	"/>
	<path class="st1" d="M28,33.1l-0.2,0.2l0.1,0.2l0.4-0.2v-0.1h-0.2L28,33.1z M27.9,33.2L27.9,33.2L27.9,33.2L27.9,33.2L27.9,33.2z"
		/>
	<polygon class="st1" points="27.9,32 27.8,32.1 27.7,32.1 27.8,31.8 	"/>
</g>
</svg>
