<?xml version="1.0" encoding="utf-8"?>
<!-- Generator: Adobe Illustrator 21.0.0, SVG Export Plug-In . SVG Version: 6.00 Build 0)  -->
<svg version="1.1" id="Capa_1" xmlns="http://www.w3.org/2000/svg" xmlns:xlink="http://www.w3.org/1999/xlink" x="0px" y="0px"
	 viewBox="0 0 104 2" style="enable-background:new 0 0 104 2;" xml:space="preserve">
<style type="text/css">
	.st0{fill:#C7C7C7;}
</style>
<path id="Forma_14_copia_2" class="st0" d="M51.8,0.1c15.7-0.2,31.9,0,48.1,0.1c0.9,0,1.8,0.1,2.7,0.2c1.1,0.1,1.4,0.6,0.6,1
	c-1,0.4-2,0.6-3.1,0.6c-2.2,0-4.3,0-6.5,0C81.7,1.8,69.6,1.7,57.6,1.8C45,1.8,32.4,1.8,19.8,1.9c-5.4,0-10.8,0-16.1-0.3
	c-0.7,0-1.5-0.1-2.2-0.1c-0.4,0-0.7-0.1-1-0.3C0.2,0.9,0.2,0.7,0.8,0.7C1.9,0.7,3,0.6,4,0.6C19.8,0.4,35.6,0.1,51.8,0.1z"/>
</svg>
